SplineFontDB: 3.2
FontName: WackClubSans-Regular
FullName: Wack Club Sans Regular
FamilyName: Wack Club Sans
Weight: Book
Version: 001.001
ItalicAngle: 0
UnderlinePosition: -100
UnderlineWidth: 50
Ascent: 800
Descent: 200
InvalidEm: 0
sfntRevision: 0x00010000
LayerCount: 2
Layer: 0 1 "Back" 1
Layer: 1 1 "Fore" 0
XUID: [1021 773 41157053 2285649]
StyleMap: 0x0040
FSType: 0
OS2Version: 4
OS2_WeightWidthSlopeOnly: 0
OS2_UseTypoMetrics: 0
CreationTime: 1642317716
ModificationTime: 1644129705
PfmFamily: 17
TTFWeight: 400
TTFWidth: 5
LineGap: 90
VLineGap: 0
Panose: 2 0 5 3 0 0 0 0 0 0
OS2TypoAscent: 800
OS2TypoAOffset: 0
OS2TypoDescent: -200
OS2TypoDOffset: 0
OS2TypoLinegap: 90
OS2WinAscent: 745
OS2WinAOffset: 0
OS2WinDescent: 1
OS2WinDOffset: 0
HheadAscent: 745
HheadAOffset: 0
HheadDescent: -1
HheadDOffset: 0
OS2SubXSize: 650
OS2SubYSize: 700
OS2SubXOff: 0
OS2SubYOff: 140
OS2SupXSize: 650
OS2SupYSize: 700
OS2SupXOff: 0
OS2SupYOff: 480
OS2StrikeYSize: 49
OS2StrikeYPos: 258
OS2CapHeight: 706
OS2XHeight: 729
OS2Vendor: 'CLGR'
OS2CodePages: 00000001.00000000
OS2UnicodeRanges: 00000003.00000000.00000000.00000000
DEI: 91125
TtTable: prep
PUSHW_1
 511
SCANCTRL
PUSHB_1
 4
SCANTYPE
EndTTInstrs
ShortTable: cvt  2
  33
  633
EndShort
ShortTable: maxp 16
  1
  0
  76
  89
  3
  0
  0
  2
  0
  1
  1
  0
  64
  0
  0
  0
EndShort
LangName: 1033 "" "" "" "Calligraphr : Wack Club Sans Regular : 16-01-2022" "" "Version 001.001" "" "" "" "" "Created with Calligraphr.com" "" "" "" "" "" "Wack Club Sans" "Regular"
GaspTable: 1 65535 15 1
Encoding: UnicodeBmp
UnicodeInterp: none
NameList: AGL For New Fonts
DisplaySize: -48
AntiAlias: 1
FitToEm: 0
WinInfo: 0 20 8
BeginChars: 65538 100

StartChar: .notdef
Encoding: 65536 -1 0
Width: 364
Flags: W
LayerCount: 2
Fore
SplineSet
33 0 m 1,0,-1
 33 666 l 1,1,-1
 298 666 l 1,2,-1
 298 0 l 1,3,-1
 33 0 l 1,0,-1
66 33 m 1,4,-1
 265 33 l 1,5,-1
 265 633 l 1,6,-1
 66 633 l 1,7,-1
 66 33 l 1,4,-1
EndSplineSet
EndChar

StartChar: exclam
Encoding: 33 33 5
Width: 207
Flags: W
LayerCount: 2
Fore
SplineSet
78 684 m 0,0,1
 93 699 93 699 105 699 c 128,-1,2
 117 699 117 699 130 686 c 0,3,4
 149 667 149 667 153 637 c 128,-1,5
 157 607 157 607 157 488 c 0,6,7
 157 350 157 350 152 327 c 0,8,9
 138 261 138 261 103 261 c 0,10,11
 92 261 92 261 79 269 c 0,12,13
 60 281 60 281 56.5 298.5 c 128,-1,14
 53 316 53 316 51 405 c 0,15,16
 51 418 51 418 50.5 442 c 128,-1,17
 50 466 50 466 50 477 c 0,18,19
 50 623 50 623 59 653 c 0,20,21
 64 670 64 670 78 684 c 0,0,1
56 127 m 0,22,23
 56 128 56 128 55.5 131 c 128,-1,24
 55 134 55 134 55 135 c 0,25,26
 55 156 55 156 68 172 c 128,-1,27
 81 188 81 188 101 188 c 128,-1,28
 121 188 121 188 134 172 c 128,-1,29
 147 156 147 156 147 135 c 0,30,31
 147 112 147 112 131 96 c 0,32,33
 115 82 115 82 102 82 c 0,34,35
 88 82 88 82 72 96 c 0,36,37
 58 108 58 108 56 127 c 0,22,23
EndSplineSet
EndChar

StartChar: quotedbl
Encoding: 34 34 6
AltUni2: 00201e.ffffffff.0 00201d.ffffffff.0 00201c.ffffffff.0
Width: 232
Flags: W
LayerCount: 2
Fore
SplineSet
71 715 m 0,0,1
 77 722 77 722 86 722 c 128,-1,2
 95 722 95 722 101 714 c 0,3,4
 107 705 107 705 107 679 c 0,5,6
 107 650 107 650 100 617 c 128,-1,7
 93 584 93 584 84 571 c 0,8,9
 76 560 76 560 68 560 c 0,10,11
 50 560 50 560 50 592 c 0,12,13
 50 598 50 598 51 602 c 0,14,15
 52 608 52 608 55.5 635.5 c 128,-1,16
 59 663 59 663 63 687 c 128,-1,17
 67 711 67 711 71 715 c 0,0,1
143 716 m 0,18,19
 150 722 150 722 158 722 c 0,20,21
 181 722 181 722 181 669 c 0,22,23
 181 642 181 642 174 614 c 0,24,25
 160 560 160 560 142 560 c 0,26,27
 135 560 135 560 127 570 c 0,28,29
 118 581 118 581 121 595 c 0,30,31
 126 627 126 627 129 659 c 0,32,33
 135 709 135 709 143 716 c 0,18,19
EndSplineSet
EndChar

StartChar: quotesingle
Encoding: 39 39 7
AltUni2: 00201a.ffffffff.0 002019.ffffffff.0 002018.ffffffff.0
Width: 173
Flags: W
LayerCount: 2
Fore
SplineSet
61 717 m 0,0,1
 65 722 65 722 79 722 c 0,2,3
 92 722 92 722 100 718 c 0,4,5
 122 706 122 706 122 647 c 0,6,7
 122 628 122 628 117 606 c 0,8,9
 105 557 105 557 82 557 c 0,10,11
 70 557 70 557 56 575 c 0,12,13
 51 581 51 581 51 599 c 0,14,15
 51 600 51 600 53 648 c 0,16,17
 56 712 56 712 61 717 c 0,0,1
EndSplineSet
EndChar

StartChar: comma
Encoding: 44 44 8
Width: 202
Flags: W
LayerCount: 2
Fore
SplineSet
107 158 m 0,0,1
 113 160 113 160 116 160 c 0,2,3
 125 160 125 160 138 149 c 0,4,5
 149 137 149 137 149 119 c 0,6,7
 149 78 149 78 126 38.5 c 128,-1,8
 103 -1 103 -1 81 -1 c 0,9,10
 73 -1 73 -1 67 5 c 0,11,12
 55 18 55 18 55 31 c 0,13,14
 55 42 55 42 62 57 c 0,15,16
 64 61 64 61 69 75.5 c 128,-1,17
 74 90 74 90 78.5 102 c 128,-1,18
 83 114 83 114 88.5 127 c 128,-1,19
 94 140 94 140 99 148.5 c 128,-1,20
 104 157 104 157 107 158 c 0,0,1
EndSplineSet
EndChar

StartChar: period
Encoding: 46 46 9
Width: 181
Flags: W
LayerCount: 2
Fore
SplineSet
48 172 m 0,0,1
 64 188 64 188 94 187 c 128,-1,2
 124 186 124 186 137 170 c 0,3,4
 151 152 151 152 151 127 c 128,-1,5
 151 102 151 102 133 84 c 0,6,7
 113 63 113 63 87.5 65.5 c 128,-1,8
 62 68 62 68 43 87 c 0,9,10
 29 101 29 101 33 131 c 128,-1,11
 37 161 37 161 48 172 c 0,0,1
EndSplineSet
EndChar

StartChar: zero
Encoding: 48 48 10
Width: 478
Flags: W
LayerCount: 2
Fore
SplineSet
283 583 m 0,0,1
 269 596 269 596 253 597 c 2,2,-1
 247 597 l 2,3,4
 208 597 208 597 187 553.5 c 128,-1,5
 166 510 166 510 166 428 c 0,6,7
 166 399 166 399 169 366 c 0,8,9
 172 318 172 318 179 279 c 0,10,11
 197 184 197 184 236 184 c 0,12,13
 255 184 255 184 277 209 c 0,14,15
 314 253 314 253 319 403 c 1,16,-1
 319 432 l 2,17,18
 319 548 319 548 283 583 c 0,0,1
233 708 m 0,19,20
 241 709 241 709 256 709 c 0,21,22
 300 709 300 709 336 687 c 128,-1,23
 372 665 372 665 391 625 c 0,24,25
 425 554 425 554 425 404 c 0,26,27
 425 354 425 354 419 314 c 0,28,29
 405 228 405 228 382 178 c 0,30,31
 363 139 363 139 324.5 117 c 128,-1,32
 286 95 286 95 237 95 c 0,33,34
 234 95 234 95 228.5 95.5 c 128,-1,35
 223 96 223 96 220 96 c 0,36,37
 117 105 117 105 86 176 c 0,38,39
 66 220 66 220 56 298 c 0,40,41
 53 324 53 324 53 368 c 0,42,43
 53 481 53 481 64 525 c 0,44,45
 84 612 84 612 124.5 655.5 c 128,-1,46
 165 699 165 699 233 708 c 0,19,20
EndSplineSet
EndChar

StartChar: one
Encoding: 49 49 11
Width: 303
Flags: W
LayerCount: 2
Fore
SplineSet
160 703 m 0,0,1
 168 706 168 706 182 706 c 0,2,3
 210 706 210 706 222 697 c 0,4,5
 238 684 238 684 242 666 c 128,-1,6
 246 648 246 648 249 571 c 0,7,8
 253 443 253 443 253 319 c 0,9,10
 253 206 253 206 250 177 c 0,11,12
 248 149 248 149 241 136.5 c 128,-1,13
 234 124 234 124 216 116 c 0,14,15
 202 109 202 109 174 109 c 0,16,17
 154 109 154 109 150 110.5 c 128,-1,18
 146 112 146 112 139 121 c 0,19,20
 126 140 126 140 126 188 c 0,21,22
 126 216 126 216 129 269 c 0,23,24
 134 406 134 406 134 446 c 2,25,-1
 134 494 l 2,26,27
 134 521 134 521 131 521 c 0,28,29
 130 521 130 521 128 519 c 0,30,31
 120 514 120 514 110 514 c 0,32,33
 95 514 95 514 80 522.5 c 128,-1,34
 65 531 65 531 61 544 c 0,35,36
 56 559 56 559 56 567 c 0,37,38
 56 581 56 581 72 600 c 0,39,40
 86 618 86 618 106 647 c 0,41,42
 139 695 139 695 160 703 c 0,0,1
EndSplineSet
EndChar

StartChar: two
Encoding: 50 50 12
Width: 475
Flags: W
LayerCount: 2
Fore
SplineSet
236 699 m 0,0,1
 252 701 252 701 259 701 c 0,2,3
 316 701 316 701 352 665 c 0,4,5
 369 649 369 649 379 615 c 128,-1,6
 389 581 389 581 389 545 c 0,7,8
 389 518 389 518 383 497 c 0,9,10
 359 416 359 416 251 298 c 0,11,12
 192 233 192 233 192 225 c 0,13,14
 192 223 192 223 201 223 c 0,15,16
 218 223 218 223 268 230 c 0,17,18
 290 232 290 232 300 232 c 0,19,20
 339 232 339 232 371 221.5 c 128,-1,21
 403 211 403 211 413 194 c 0,22,23
 420 183 420 183 420 169 c 0,24,25
 420 156 420 156 414 144 c 0,26,27
 405 126 405 126 393.5 122 c 128,-1,28
 382 118 382 118 336 118 c 0,29,30
 276 118 276 118 214 113 c 0,31,32
 137 108 137 108 119 108 c 0,33,34
 87 108 87 108 78 117 c 0,35,36
 68 126 68 126 61 151 c 128,-1,37
 54 176 54 176 54 201 c 0,38,39
 54 230 54 230 67 252 c 128,-1,40
 80 274 80 274 123 319 c 0,41,42
 211 411 211 411 249.5 465.5 c 128,-1,43
 288 520 288 520 288 553 c 0,44,45
 288 571 288 571 279 581.5 c 128,-1,46
 270 592 270 592 256 592 c 0,47,48
 243 592 243 592 230 583 c 0,49,50
 223 579 223 579 185.5 544.5 c 128,-1,51
 148 510 148 510 139 505 c 0,52,53
 128 498 128 498 117 498 c 0,54,55
 101 498 101 498 90 513 c 128,-1,56
 79 528 79 528 79 551 c 0,57,58
 79 573 79 573 89 593 c 0,59,60
 104 625 104 625 151 658.5 c 128,-1,61
 198 692 198 692 236 699 c 0,0,1
EndSplineSet
EndChar

StartChar: three
Encoding: 51 51 13
Width: 429
Flags: W
LayerCount: 2
Fore
SplineSet
144 692 m 0,0,1
 162 698 162 698 188 698 c 2,2,-1
 200 698 l 2,3,4
 236 697 236 697 259 686 c 0,5,6
 290 672 290 672 319 635 c 128,-1,7
 348 598 348 598 353 565 c 0,8,9
 353 564 353 564 353.5 561 c 128,-1,10
 354 558 354 558 354 556 c 0,11,12
 354 522 354 522 326 468 c 2,13,-1
 309 436 l 1,14,-1
 326 420 l 2,15,16
 375 374 375 374 375 290 c 0,17,18
 375 223 375 223 342 177.5 c 128,-1,19
 309 132 309 132 248 116 c 0,20,21
 227 110 227 110 192 110 c 0,22,23
 151 110 151 110 117 118 c 0,24,25
 57 133 57 133 57 163 c 0,26,27
 57 167 57 167 59 175 c 0,28,29
 64 189 64 189 87 189 c 0,30,31
 99 189 99 189 117 186 c 0,32,33
 148 180 148 180 169 180 c 0,34,35
 196 180 196 180 215 190 c 0,36,37
 246 205 246 205 265 238.5 c 128,-1,38
 284 272 284 272 284 307 c 0,39,40
 284 347 284 347 260 371 c 0,41,42
 239 392 239 392 208 392 c 0,43,44
 206 392 206 392 201.5 391.5 c 128,-1,45
 197 391 197 391 194 391 c 0,46,47
 186 390 186 390 177 390 c 0,48,49
 170 390 170 390 166 398 c 0,50,51
 161 408 161 408 161 424 c 0,52,53
 161 449 161 449 172.5 459 c 128,-1,54
 184 469 184 469 223 479 c 0,55,56
 269 490 269 490 269 515 c 0,57,58
 269 564 269 564 241 596.5 c 128,-1,59
 213 629 213 629 179 629 c 0,60,61
 142 629 142 629 117 602 c 0,62,63
 108 593 108 593 93.5 584 c 128,-1,64
 79 575 79 575 72 575 c 0,65,66
 64 575 64 575 58.5 584 c 128,-1,67
 53 593 53 593 53 605 c 0,68,69
 53 615 53 615 57 623 c 0,70,71
 81 670 81 670 144 692 c 0,0,1
EndSplineSet
EndChar

StartChar: four
Encoding: 52 52 14
Width: 470
Flags: W
LayerCount: 2
Fore
SplineSet
250 510 m 0,0,1
 246 525 246 525 244 525 c 0,2,3
 240 525 240 525 204 463.5 c 128,-1,4
 168 402 168 402 168 395 c 0,5,6
 168 390 168 390 173.5 388.5 c 128,-1,7
 179 387 179 387 204 386 c 0,8,9
 242 386 242 386 244 388 c 0,10,11
 251 395 251 395 251 489 c 0,12,13
 251 506 251 506 250 510 c 0,0,1
248 691 m 0,14,15
 264 703 264 703 285 703 c 0,16,17
 300 703 300 703 318 695 c 0,18,19
 338 685 338 685 343 664 c 128,-1,20
 348 643 348 643 350 556 c 0,21,22
 351 534 351 534 351.5 504 c 128,-1,23
 352 474 352 474 353 453 c 128,-1,24
 354 432 354 432 354 425 c 2,25,-1
 357 393 l 1,26,-1
 370 389 l 2,27,28
 390 382 390 382 402 367 c 128,-1,29
 414 352 414 352 414 336 c 128,-1,30
 414 320 414 320 402 308 c 0,31,32
 394 300 394 300 375 300 c 2,33,-1
 356 300 l 1,34,-1
 356 282 l 2,35,36
 356 269 356 269 352 205 c 0,37,38
 350 147 350 147 342 133 c 0,39,40
 327 108 327 108 280 103 c 0,41,42
 274 102 274 102 266 102 c 0,43,44
 255 102 255 102 246 111 c 0,45,46
 228 129 228 129 228 189 c 0,47,48
 228 194 228 194 228.5 205.5 c 128,-1,49
 229 217 229 217 229 224 c 2,50,-1
 230 293 l 1,51,-1
 201 291 l 2,52,53
 130 285 130 285 109 285 c 0,54,55
 92 285 92 285 80 290 c 0,56,57
 67 296 67 296 61.5 307 c 128,-1,58
 56 318 56 318 55 343 c 0,59,60
 55 346 55 346 54.5 350.5 c 128,-1,61
 54 355 54 355 54 357 c 0,62,63
 54 373 54 373 66.5 397 c 128,-1,64
 79 421 79 421 129 507 c 0,65,66
 196 622 196 622 215 651.5 c 128,-1,67
 234 681 234 681 248 691 c 0,14,15
EndSplineSet
EndChar

StartChar: five
Encoding: 53 53 15
Width: 455
Flags: W
LayerCount: 2
Fore
SplineSet
187 693 m 0,0,1
 211 695 211 695 260 695 c 0,2,3
 348 695 348 695 363 692 c 0,4,5
 400 686 400 686 400 653 c 0,6,7
 400 623 400 623 382 615 c 0,8,9
 377 612 377 612 338 612 c 0,10,11
 331 612 331 612 313 612.5 c 128,-1,12
 295 613 295 613 283 613 c 0,13,14
 254 614 254 614 219 614 c 0,15,16
 191 614 191 614 188 610 c 128,-1,17
 185 606 185 606 185 560 c 0,18,19
 185 481 185 481 190 471 c 0,20,21
 195 463 195 463 205 463 c 0,22,23
 219 463 219 463 251 453.5 c 128,-1,24
 283 444 283 444 305 433 c 0,25,26
 329 422 329 422 348.5 403 c 128,-1,27
 368 384 368 384 373 367 c 0,28,29
 377 354 377 354 377 337 c 0,30,31
 377 279 377 279 336 216.5 c 128,-1,32
 295 154 295 154 239 127 c 0,33,34
 217 116 217 116 207 114 c 128,-1,35
 197 112 197 112 171 112 c 0,36,37
 121 112 121 112 86 130 c 128,-1,38
 51 148 51 148 51 174 c 0,39,40
 51 209 51 209 84 209 c 0,41,42
 91 209 91 209 111 205 c 0,43,44
 139 199 139 199 151 199 c 0,45,46
 186 199 186 199 229 239.5 c 128,-1,47
 272 280 272 280 272 313 c 0,48,49
 272 328 272 328 258 341 c 0,50,51
 228 370 228 370 155 374 c 0,52,53
 137 375 137 375 126.5 376 c 128,-1,54
 116 377 116 377 104.5 381.5 c 128,-1,55
 93 386 93 386 88 390 c 128,-1,56
 83 394 83 394 77 406 c 128,-1,57
 71 418 71 418 69.5 429.5 c 128,-1,58
 68 441 68 441 65.5 464 c 128,-1,59
 63 487 63 487 62.5 509.5 c 128,-1,60
 62 532 62 532 62 571 c 2,61,-1
 61 670 l 1,62,-1
 74 677 l 2,63,64
 84 682 84 682 127 687.5 c 128,-1,65
 170 693 170 693 187 693 c 0,0,1
EndSplineSet
EndChar

StartChar: six
Encoding: 54 54 16
Width: 392
Flags: W
LayerCount: 2
Fore
SplineSet
248 376 m 0,0,1
 235 389 235 389 223 389 c 0,2,3
 215 389 215 389 196 382 c 0,4,5
 180 376 180 376 177 367 c 0,6,7
 176 363 176 363 176 345 c 0,8,9
 176 276 176 276 185 247 c 0,10,11
 191 227 191 227 204.5 215 c 128,-1,12
 218 203 218 203 234 203 c 0,13,14
 253 203 253 203 258 214.5 c 128,-1,15
 263 226 263 226 265 274 c 0,16,17
 265 281 265 281 265.5 292 c 128,-1,18
 266 303 266 303 266 307 c 0,19,20
 266 358 266 358 248 376 c 0,0,1
192 675 m 0,21,22
 217 684 217 684 241 684 c 0,23,24
 277 684 277 684 304 662 c 0,25,26
 321 647 321 647 321 631 c 0,27,28
 321 622 321 622 317 614 c 0,29,30
 307 593 307 593 260 583 c 0,31,32
 176 565 176 565 176 472 c 2,33,-1
 176 443 l 1,34,-1
 187 450 l 2,35,36
 215 469 215 469 239 469 c 0,37,38
 256 469 256 469 272 460 c 0,39,40
 338 426 338 426 338 305 c 2,41,-1
 338 286 l 1,42,43
 332 146 332 146 251 116 c 0,44,45
 235 110 235 110 213 110 c 0,46,47
 184 110 184 110 161 120 c 0,48,49
 78 159 78 159 56 316 c 0,50,51
 53 338 53 338 53 384 c 0,52,53
 53 474 53 474 61 520 c 0,54,55
 71 577 71 577 105 617 c 128,-1,56
 139 657 139 657 192 675 c 0,21,22
EndSplineSet
EndChar

StartChar: seven
Encoding: 55 55 17
Width: 449
Flags: W
LayerCount: 2
Fore
SplineSet
95 695 m 0,0,1
 112 699 112 699 174 699 c 0,2,3
 320 699 320 699 366 687 c 0,4,5
 395 680 395 680 395 655 c 0,6,7
 395 639 395 639 384 593 c 0,8,9
 360 494 360 494 311.5 321 c 128,-1,10
 263 148 263 148 255 133 c 0,11,12
 242 106 242 106 199 106 c 0,13,14
 167 106 167 106 153.5 115 c 128,-1,15
 140 124 140 124 140 149 c 0,16,17
 140 176 140 176 162 250 c 0,18,19
 169 273 169 273 197 355 c 128,-1,20
 225 437 225 437 243.5 502.5 c 128,-1,21
 262 568 262 568 262 599 c 0,22,23
 262 602 262 602 238 602 c 0,24,25
 203 602 203 602 171 601 c 0,26,27
 143 600 143 600 104 600 c 0,28,29
 73 600 73 600 70 602 c 0,30,31
 54 610 54 610 54 643 c 0,32,33
 54 657 54 657 59 670 c 0,34,35
 67 689 67 689 95 695 c 0,0,1
EndSplineSet
EndChar

StartChar: eight
Encoding: 56 56 18
Width: 406
Flags: W
LayerCount: 2
Fore
SplineSet
214 393 m 0,0,1
 203 400 203 400 192 400 c 0,2,3
 168 400 168 400 152.5 367.5 c 128,-1,4
 137 335 137 335 136 279 c 2,5,-1
 136 274 l 2,6,7
 136 230 136 230 150 207 c 128,-1,8
 164 184 164 184 197 174 c 0,9,10
 212 169 212 169 228 169 c 0,11,12
 273 169 273 169 273 233 c 0,13,14
 273 250 273 250 270 271 c 0,15,16
 256 368 256 368 214 393 c 0,0,1
171 622 m 2,17,-1
 159 610 l 1,18,-1
 159 559 l 2,19,20
 159 473 159 473 170 473 c 2,21,-1
 172 473 l 2,22,23
 176 476 176 476 204 476 c 2,24,-1
 229 477 l 1,25,-1
 239 498 l 2,26,27
 262 546 262 546 262 591 c 0,28,29
 262 611 262 611 256 620 c 0,30,31
 244 639 244 639 215 639 c 0,32,33
 185 639 185 639 171 622 c 2,17,-1
149 705 m 0,34,35
 167 710 167 710 194 710 c 0,36,37
 242 710 242 710 266 700 c 0,38,39
 315 682 315 682 336 650 c 0,40,41
 347 634 347 634 347 618 c 0,42,43
 347 604 347 604 346 593 c 0,44,45
 343 532 343 532 310 460 c 0,46,47
 297 432 297 432 297 430 c 128,-1,48
 297 428 297 428 306 415 c 0,49,50
 336 377 336 377 349 312 c 0,51,52
 354 288 354 288 354 249 c 2,53,-1
 354 223 l 2,54,55
 352 165 352 165 342 146 c 0,56,57
 316 95 316 95 246 95 c 0,58,59
 222 95 222 95 192 103 c 0,60,61
 145 116 145 116 111 142 c 128,-1,62
 77 168 77 168 64 201 c 0,63,64
 53 227 53 227 53 264 c 0,65,66
 53 318 53 318 79 393 c 2,67,-1
 94 436 l 1,68,-1
 83 474 l 2,69,70
 65 536 65 536 65 574 c 0,71,72
 65 583 65 583 67 597 c 0,73,74
 75 637 75 637 97.5 666.5 c 128,-1,75
 120 696 120 696 149 705 c 0,34,35
EndSplineSet
EndChar

StartChar: nine
Encoding: 57 57 19
Width: 397
Flags: W
LayerCount: 2
Fore
SplineSet
181 598 m 0,0,1
 167 606 167 606 156 606 c 0,2,3
 123 606 123 606 123 525 c 0,4,5
 123 521 123 521 123.5 512 c 128,-1,6
 124 503 124 503 124 498 c 0,7,8
 126 464 126 464 129.5 450.5 c 128,-1,9
 133 437 133 437 144 425 c 0,10,11
 151 416 151 416 170 416 c 0,12,13
 187 416 187 416 202 423 c 2,14,-1
 218 429 l 1,15,-1
 216 488 l 2,16,17
 214 546 214 546 204 568 c 0,18,19
 193 591 193 591 181 598 c 0,0,1
140 693 m 0,20,21
 155 699 155 699 180 699 c 0,22,23
 216 699 216 699 236 688 c 0,24,25
 279 666 279 666 307 609 c 0,26,27
 344 536 344 536 344 417 c 0,28,29
 344 412 344 412 343.5 401.5 c 128,-1,30
 343 391 343 391 343 385 c 0,31,32
 339 270 339 270 318 224 c 0,33,34
 296 176 296 176 247.5 145 c 128,-1,35
 199 114 199 114 151 114 c 0,36,37
 125 114 125 114 105 124 c 0,38,39
 69 142 69 142 69 169 c 0,40,41
 69 188 69 188 83.5 198 c 128,-1,42
 98 208 98 208 145 221 c 0,43,44
 211 239 211 239 219 321 c 0,45,46
 221 339 221 339 221 343 c 0,47,48
 221 355 221 355 215 355 c 128,-1,49
 209 355 209 355 195 347 c 0,50,51
 172 335 172 335 152 335 c 0,52,53
 89 335 89 335 61 424 c 0,54,55
 52 455 52 455 52 505 c 0,56,57
 52 580 52 580 78 632 c 0,58,59
 88 653 88 653 105 669.5 c 128,-1,60
 122 686 122 686 140 693 c 0,20,21
EndSplineSet
EndChar

StartChar: colon
Encoding: 58 58 20
Width: 187
Flags: W
LayerCount: 2
Fore
SplineSet
57 588 m 4,0,1
 84 598 l 4,2,3
 114 598 114 598 130 582 c 4,4,5
 140 572 140 572 140 540 c 4,6,7
 140 526 140 526 126 512 c 4,8,9
 110 496 110 496 89 496 c 4,10,11
 76 496 76 496 57 508.5 c 132,-1,12
 38 521 38 521 38 536 c 4,13,14
 38 574 38 574 57 588 c 4,0,1
54 272 m 4,15,16
 67 285 67 285 96 283 c 4,17,18
 124 281 124 281 131.5 261 c 132,-1,19
 139 241 139 241 139 228 c 4,20,21
 139 213 139 213 122.5 199.5 c 132,-1,22
 106 186 106 186 89.5 186.5 c 132,-1,23
 73 187 73 187 57 201 c 132,-1,24
 41 215 41 215 38 234 c 4,25,-1
 54 272 l 4,15,16
EndSplineSet
EndChar

StartChar: semicolon
Encoding: 59 59 21
Width: 200
Flags: W
LayerCount: 2
Fore
SplineSet
53 436 m 0,0,1
 47 472 47 472 80 484 c 0,2,3
 103 492 l 0,4,5
 118 492 118 492 133.25 476 c 0,6,7
 144 465 144 465 146 444 c 0,8,9
 148 422 148 422 131 406 c 0,10,11
 116 392 116 392 99 393 c 0,12,13
 80 395 80 395 62 407 c 0,14,15
 57 410 57 410 53 436 c 0,0,1
104 219 m 0,16,17
 108 221 108 221 114 221 c 0,18,19
 125 221 125 221 135 211 c 0,20,21
 146 199 146 199 146 180 c 0,22,23
 146 139 146 139 123 100 c 128,-1,24
 100 61 100 61 78 61 c 0,25,26
 70 61 70 61 64 67 c 0,27,28
 52 81 52 81 52 93 c 0,29,30
 52 101 52 101 59 119 c 0,31,32
 96 215 96 215 104 219 c 0,16,17
EndSplineSet
EndChar

StartChar: question
Encoding: 63 63 22
Width: 384
Flags: W
LayerCount: 2
Fore
SplineSet
117 706 m 0,0,1
 137 711 137 711 163 711 c 0,2,3
 198 711 198 711 217 705 c 0,4,5
 270 689 270 689 300 637.5 c 128,-1,6
 330 586 330 586 330 510 c 0,7,8
 330 461 330 461 319.5 429.5 c 128,-1,9
 309 398 309 398 283 370 c 0,10,11
 263 349 263 349 233 339 c 2,12,-1
 203 329 l 1,13,-1
 201 285 l 2,14,15
 199 245 199 245 194.5 232 c 128,-1,16
 190 219 190 219 176 218 c 2,17,-1
 173 218 l 2,18,19
 160 218 160 218 148 228 c 128,-1,20
 136 238 136 238 132 251 c 0,21,22
 129 263 129 263 129 329 c 2,23,-1
 129 393 l 1,24,-1
 162 401 l 2,25,26
 201 410 201 410 213 416.5 c 128,-1,27
 225 423 225 423 235 441 c 0,28,29
 243 455 243 455 244.5 464 c 128,-1,30
 246 473 246 473 246 501 c 0,31,32
 246 540 246 540 235 562 c 0,33,34
 211 612 211 612 185 624 c 0,35,36
 173 630 173 630 155 630 c 0,37,38
 134 630 134 630 113 624 c 0,39,40
 93 619 93 619 81 619 c 128,-1,41
 69 619 69 619 62 628 c 128,-1,42
 55 637 55 637 55 649 c 0,43,44
 55 665 55 665 65 676 c 0,45,46
 82 696 82 696 117 706 c 0,0,1
143 141 m 0,47,48
 153 151 153 151 169 151 c 0,49,50
 186 151 186 151 196 139 c 0,51,52
 206 125 206 125 206 118 c 0,53,54
 206 91 206 91 183 82 c 0,55,56
 176 79 176 79 168 79 c 0,57,58
 153 79 153 79 143 90 c 128,-1,59
 133 101 133 101 133 116 c 0,60,61
 133 130 133 130 143 141 c 0,47,48
EndSplineSet
EndChar

StartChar: A
Encoding: 65 65 23
Width: 436
Flags: W
LayerCount: 2
Fore
SplineSet
232 542 m 0,0,1
 227 552 227 552 221 555.5 c 128,-1,2
 215 559 215 559 212 554 c 0,3,4
 209 548 209 548 186.5 462 c 128,-1,5
 164 376 164 376 164 370 c 1,6,-1
 165 370 l 2,7,8
 174 370 174 370 224 378.5 c 128,-1,9
 274 387 274 387 274 389 c 0,10,11
 274 414 274 414 248 501 c 0,12,13
 241 528 241 528 232 542 c 0,0,1
136 642 m 0,14,15
 145 667 145 667 162.5 685.5 c 128,-1,16
 180 704 180 704 202 704 c 0,17,18
 219 704 219 704 234 693 c 0,19,20
 280 662 280 662 315 557 c 0,21,22
 343 478 343 478 363 370 c 128,-1,23
 383 262 383 262 383 193 c 0,24,25
 383 157 383 157 372 134 c 0,26,27
 351 89 351 89 318 88 c 2,28,-1
 315 88 l 2,29,30
 293 88 293 88 285.5 107 c 128,-1,31
 278 126 278 126 276 190 c 0,32,33
 274 256 274 256 268 256 c 0,34,35
 261 256 261 256 213.5 244.5 c 128,-1,36
 166 233 166 233 165 231 c 0,37,38
 162 228 162 228 157 201 c 0,39,40
 147 152 147 152 128 123 c 128,-1,41
 109 94 109 94 88 94 c 0,42,43
 73 94 73 94 61 110 c 0,44,45
 54 118 54 118 54 139 c 0,46,47
 54 166 54 166 76 294 c 0,48,49
 102 446 102 446 113 520 c 0,50,51
 127 614 127 614 136 642 c 0,14,15
EndSplineSet
EndChar

StartChar: B
Encoding: 66 66 24
Width: 493
Flags: W
LayerCount: 2
Fore
SplineSet
322 375 m 0,0,1
 309 384 309 384 271 385 c 0,2,3
 265 385 265 385 257 385.5 c 128,-1,4
 249 386 249 386 247 386 c 0,5,6
 229 386 229 386 194 375 c 2,7,-1
 168 367 l 1,8,-1
 170 326 l 2,9,10
 173 260 173 260 173 251 c 2,11,-1
 173 216 l 1,12,-1
 195 219 l 2,13,14
 272 228 272 228 312.5 252.5 c 128,-1,15
 353 277 353 277 353 313 c 0,16,17
 353 330 353 330 344 350 c 0,18,19
 336 366 336 366 322 375 c 0,0,1
312 563 m 0,20,21
 312 613 312 613 246 613 c 0,22,23
 227 613 227 613 206 610 c 0,24,25
 169 606 169 606 159 603.5 c 128,-1,26
 149 601 149 601 149 596 c 0,27,28
 149 583 149 583 171 477 c 0,29,30
 172 468 172 468 182 468 c 0,31,32
 191 468 191 468 222 479 c 0,33,34
 269 496 269 496 290.5 515.5 c 128,-1,35
 312 535 312 535 312 563 c 0,20,21
242 712 m 0,36,37
 262 714 262 714 281 714 c 0,38,39
 316 714 316 714 331 710 c 0,40,41
 381 698 381 698 398 663 c 0,42,43
 410 638 410 638 410 603 c 0,44,45
 410 572 410 572 402.5 551.5 c 128,-1,46
 395 531 395 531 371 494 c 0,47,48
 354 468 354 468 354 466 c 2,49,-1
 368 459 l 2,50,51
 400 442 400 442 419.5 401 c 128,-1,52
 439 360 439 360 439 309 c 0,53,54
 439 200 439 200 301 153 c 0,55,56
 228 128 228 128 163 128 c 0,57,58
 146 128 146 128 122 132 c 0,59,60
 94 138 94 138 89 147 c 128,-1,61
 84 156 84 156 82 204 c 0,62,63
 77 326 77 326 60 523 c 0,64,65
 54 601 54 601 54 616 c 0,66,67
 54 629 54 629 59 641 c 0,68,69
 66 655 66 655 79 664 c 0,70,71
 96 675 96 675 148.5 690.5 c 128,-1,72
 201 706 201 706 242 712 c 0,36,37
EndSplineSet
EndChar

StartChar: C
Encoding: 67 67 25
Width: 432
Flags: W
LayerCount: 2
Fore
SplineSet
164 688 m 0,0,1
 190 703 190 703 216 703 c 0,2,3
 257 703 257 703 289 674 c 0,4,5
 321 646 321 646 326 608 c 1,6,-1
 326 601 l 2,7,8
 326 570 326 570 301 570 c 2,9,-1
 296 570 l 2,10,11
 281 572 281 572 264 584 c 0,12,13
 241 598 241 598 229 598 c 0,14,15
 219 598 219 598 201 588 c 0,16,17
 145 554 145 554 145 447 c 0,18,19
 145 369 145 369 175 307.5 c 128,-1,20
 205 246 205 246 247 236 c 0,21,22
 250 235 250 235 258 235 c 0,23,24
 294 235 294 235 317 250 c 0,25,26
 326 256 326 256 340 256 c 0,27,28
 357 256 357 256 366 249 c 0,29,30
 377 240 377 240 377 218 c 0,31,32
 377 201 377 201 370 188 c 0,33,34
 341 135 341 135 269 125 c 0,35,36
 251 123 251 123 243 123 c 0,37,38
 182 123 182 123 138 162.5 c 128,-1,39
 94 202 94 202 73 276 c 0,40,41
 54 340 54 340 54 426 c 0,42,43
 54 501 54 501 69 556 c 0,44,45
 95 649 95 649 164 688 c 0,0,1
EndSplineSet
EndChar

StartChar: D
Encoding: 68 68 26
Width: 487
Flags: W
LayerCount: 2
Fore
SplineSet
269 610 m 0,0,1
 247 615 247 615 216 615 c 2,2,-1
 179 615 l 1,3,-1
 179 604 l 1,4,5
 161 257 161 257 161 235 c 0,6,7
 161 233 161 233 164 233 c 0,8,9
 174 233 174 233 202.5 241 c 128,-1,10
 231 249 231 249 247 257 c 0,11,12
 352 308 352 308 352 431 c 0,13,14
 352 434 352 434 351.5 440 c 128,-1,15
 351 446 351 446 351 449 c 0,16,17
 341 592 341 592 269 610 c 0,0,1
165 705 m 0,18,19
 189 710 189 710 222 710 c 0,20,21
 290 710 290 710 342.5 682.5 c 128,-1,22
 395 655 395 655 410 608 c 0,23,24
 427 553 427 553 432 464 c 0,25,26
 432 461 432 461 432.5 454.5 c 128,-1,27
 433 448 433 448 433 445 c 0,28,29
 433 387 433 387 405 306 c 0,30,31
 384 241 384 241 339 196 c 0,32,33
 278 135 278 135 199 124 c 0,34,35
 192 123 192 123 171 123 c 0,36,37
 85 123 85 123 61 133 c 0,38,39
 54 136 54 136 52.5 139 c 128,-1,40
 51 142 51 142 53 151 c 0,41,42
 60 200 60 200 78 580 c 0,43,44
 80 635 80 635 84 652.5 c 128,-1,45
 88 670 88 670 100 681 c 0,46,47
 118 697 118 697 165 705 c 0,18,19
EndSplineSet
EndChar

StartChar: E
Encoding: 69 69 27
Width: 470
Flags: W
LayerCount: 2
Fore
SplineSet
147 693 m 0,0,1
 182 699 182 699 250 699 c 0,2,3
 305 699 305 699 330 694 c 0,4,5
 374 683 374 683 381 669 c 0,6,7
 383 665 383 665 383 661 c 0,8,9
 383 640 383 640 360 624 c 0,10,11
 350 617 350 617 340 614.5 c 128,-1,12
 330 612 330 612 293 610 c 0,13,14
 280 609 280 609 262.5 607.5 c 128,-1,15
 245 606 245 606 225.5 604.5 c 128,-1,16
 206 603 206 603 198 602 c 2,17,-1
 155 597 l 1,18,-1
 156 578 l 2,19,20
 156 562 156 562 160.5 510.5 c 128,-1,21
 165 459 165 459 166 458 c 0,22,23
 180 460 180 460 196 463 c 0,24,25
 216 467 216 467 252 467 c 2,26,-1
 275 467 l 2,27,28
 323 466 323 466 344 456 c 0,29,30
 365 444 365 444 365 432 c 0,31,32
 365 423 365 423 358 412 c 0,33,34
 347 394 347 394 333.5 388.5 c 128,-1,35
 320 383 320 383 282 379 c 0,36,37
 168 368 168 368 162 362 c 1,38,-1
 158 292 l 2,39,40
 157 273 157 273 157 247 c 0,41,42
 157 217 157 217 165.5 211 c 128,-1,43
 174 205 174 205 208 205 c 2,44,-1
 220 205 l 2,45,46
 263 205 263 205 305 211 c 128,-1,47
 347 217 347 217 357 217 c 0,48,49
 371 217 371 217 387.5 209 c 128,-1,50
 404 201 404 201 410 192 c 0,51,52
 415 185 415 185 414.5 181.5 c 128,-1,53
 414 178 414 178 409 168 c 0,54,55
 398 148 398 148 367.5 138 c 128,-1,56
 337 128 337 128 246 116 c 0,57,58
 194 109 194 109 140 109 c 0,59,60
 103 109 103 109 90 113 c 0,61,62
 89 113 89 113 86 114 c 0,63,64
 69 118 69 118 64 129 c 0,65,66
 58 146 58 146 56 276 c 0,67,68
 56 285 56 285 56 290 c 0,69,70
 55 321 55 321 54 373.5 c 128,-1,71
 53 426 53 426 52.5 459.5 c 128,-1,72
 52 493 52 493 51 508 c 128,-1,73
 50 523 50 523 50 550 c 0,74,75
 50 622 50 622 65 651 c 0,76,77
 81 681 81 681 147 693 c 0,0,1
EndSplineSet
EndChar

StartChar: F
Encoding: 70 70 28
Width: 478
Flags: W
LayerCount: 2
Fore
SplineSet
166 571 m 0,0,1
 166 556 166 556 172 519 c 128,-1,2
 178 482 178 482 185 482 c 0,3,4
 191 482 191 482 222 491 c 0,5,6
 247 498 247 498 283 498 c 2,7,-1
 307 498 l 2,8,9
 359 497 359 497 380 487 c 0,10,11
 401 476 401 476 401 464 c 0,12,13
 401 456 401 456 393 443 c 0,14,15
 383 426 383 426 369.5 420 c 128,-1,16
 356 414 356 414 321 410 c 0,17,18
 196 399 196 399 196 389 c 2,19,-1
 202 341 l 2,20,21
 205 313 205 313 210 227 c 0,22,23
 211 212 211 212 211 188 c 0,24,25
 211 129 211 129 192 110 c 0,26,27
 183 101 183 101 171 101 c 0,28,29
 141 101 141 101 122 140 c 0,30,31
 105 174 105 174 92 319 c 0,32,33
 83 405 83 405 82 406 c 0,34,35
 80 411 80 411 67 521 c 128,-1,36
 54 631 54 631 54 648 c 128,-1,37
 54 665 54 665 68 675 c 0,38,39
 89 688 89 688 156 696 c 0,40,41
 177 699 177 699 233 699 c 0,42,43
 362 699 362 699 383 692 c 0,44,45
 401 685 401 685 411 675 c 0,46,47
 424 662 424 662 424 651 c 0,48,49
 424 634 424 634 393 619 c 0,50,51
 378 611 378 611 305 609 c 0,52,53
 204 608 204 608 176 593 c 0,54,55
 166 587 166 587 166 571 c 0,0,1
EndSplineSet
EndChar

StartChar: G
Encoding: 71 71 29
Width: 472
Flags: W
LayerCount: 2
Fore
SplineSet
212 690 m 0,0,1
 224 694 224 694 240 694 c 0,2,3
 290 694 290 694 324 651 c 0,4,5
 350 618 350 618 350 587 c 0,6,7
 350 549 350 549 325 549 c 0,8,9
 309 549 309 549 279 573 c 0,10,11
 262 587 262 587 244 587 c 0,12,13
 232 587 232 587 220 581 c 0,14,15
 159 549 159 549 149 442 c 0,16,17
 147 420 147 420 147 408 c 0,18,19
 147 330 147 330 175 277 c 0,20,21
 201 225 201 225 252 225 c 0,22,23
 271 225 271 225 288 229 c 2,24,-1
 308 233 l 1,25,-1
 306 257 l 2,26,27
 306 263 306 263 304.5 274 c 128,-1,28
 303 285 303 285 303 288 c 0,29,30
 303 294 303 294 298.5 296.5 c 128,-1,31
 294 299 294 299 274 300 c 0,32,33
 183 307 183 307 183 339 c 0,34,35
 183 353 183 353 198 368 c 2,36,-1
 213 383 l 1,37,-1
 306 388 l 1,38,-1
 400 392 l 1,39,-1
 409 384 l 2,40,41
 418 374 418 374 418 361 c 0,42,43
 418 345 418 345 408 331 c 128,-1,44
 398 317 398 317 386 315 c 0,45,46
 378 311 378 311 378 308 c 0,47,48
 378 299 378 299 383 279 c 0,49,50
 388 252 388 252 388 223 c 0,51,52
 388 133 388 133 366 108 c 0,53,54
 360 101 360 101 351 101 c 0,55,56
 333 101 333 101 318 124 c 0,57,58
 314 130 314 130 310.5 130 c 128,-1,59
 307 130 307 130 290 124 c 0,60,61
 268 117 268 117 239 117 c 2,62,-1
 224 117 l 2,63,64
 182 118 182 118 156 131 c 0,65,66
 88 164 88 164 62 261 c 0,67,68
 54 293 54 293 54 367 c 0,69,70
 54 435 54 435 61 469 c 0,71,72
 77 547 77 547 106.5 601.5 c 128,-1,73
 136 656 136 656 173 675 c 0,74,75
 192 685 192 685 212 690 c 0,0,1
EndSplineSet
EndChar

StartChar: H
Encoding: 72 72 30
Width: 468
Flags: W
LayerCount: 2
Fore
SplineSet
345 685 m 0,0,1
 352 691 352 691 362 691 c 0,2,3
 384 691 384 691 397 667 c 0,4,5
 405 653 405 653 411.5 542 c 128,-1,6
 418 431 418 431 418 321 c 2,7,-1
 418 285 l 1,8,-1
 417 188 l 1,9,-1
 406 166 l 2,10,11
 390 133 390 133 371 133 c 2,12,-1
 367 133 l 2,13,14
 353 134 353 134 346.5 151.5 c 128,-1,15
 340 169 340 169 334 222 c 0,16,17
 327 280 327 280 321 317 c 2,18,-1
 316 350 l 1,19,20
 292 350 292 350 244.5 351 c 128,-1,21
 197 352 197 352 173 352 c 1,22,-1
 170 324 l 2,23,24
 155 172 155 172 119 140 c 0,25,26
 107 129 107 129 102 129 c 128,-1,27
 97 129 97 129 89 137 c 0,28,29
 77 149 77 149 74 177.5 c 128,-1,30
 71 206 71 206 70 308 c 0,31,32
 69 482 69 482 56 581 c 0,33,34
 54 597 54 597 54 605 c 0,35,36
 54 636 54 636 63.5 655.5 c 128,-1,37
 73 675 73 675 87 675 c 0,38,39
 96 675 96 675 102 670 c 0,40,41
 119 657 119 657 137.5 604 c 128,-1,42
 156 551 156 551 165 488 c 0,43,44
 169 456 169 456 173 450 c 128,-1,45
 177 444 177 444 240 442 c 2,46,-1
 302 440 l 1,47,-1
 305 490 l 2,48,49
 313 661 313 661 345 685 c 0,0,1
EndSplineSet
EndChar

StartChar: I
Encoding: 73 73 31
Width: 529
Flags: W
LayerCount: 2
Fore
SplineSet
156 696 m 0,0,1
 196 699 196 699 270 699 c 0,2,3
 357 699 357 699 384 695 c 0,4,5
 454 686 454 686 461 668 c 0,6,7
 463 662 463 662 463 659 c 0,8,9
 463 637 463 637 432 620 c 0,10,11
 411 609 411 609 366 608 c 2,12,-1
 322 606 l 1,13,-1
 329 565 l 2,14,15
 337 520 337 520 337 414 c 0,16,17
 337 287 337 287 336 266 c 2,18,-1
 334 227 l 1,19,-1
 374 220 l 2,20,21
 421 213 421 213 448 197.5 c 128,-1,22
 475 182 475 182 475 162 c 0,23,24
 475 153 475 153 469 144 c 0,25,26
 457 126 457 126 417.5 120.5 c 128,-1,27
 378 115 378 115 270 115 c 0,28,29
 159 115 159 115 129 122 c 0,30,31
 54 140 54 140 54 168 c 0,32,33
 54 206 54 206 155 223 c 0,34,35
 170 225 170 225 208 234 c 1,36,-1
 210 398 l 2,37,38
 214 568 214 568 215 580 c 2,39,-1
 217 598 l 1,40,-1
 156 600 l 2,41,42
 95 601 95 601 76 610 c 0,43,44
 55 620 55 620 55 634 c 0,45,46
 55 641 55 641 59 648 c 0,47,48
 82 690 82 690 156 696 c 0,0,1
EndSplineSet
EndChar

StartChar: J
Encoding: 74 74 32
Width: 452
Flags: W
LayerCount: 2
Fore
SplineSet
295 697 m 0,0,1
 305 707 305 707 315 707 c 0,2,3
 332 707 332 707 352 683 c 128,-1,4
 372 659 372 659 382 628 c 0,5,6
 400 568 400 568 400 389 c 2,7,-1
 401 277 l 1,8,-1
 388 241 l 2,9,10
 355 145 355 145 309 119 c 0,11,12
 284 106 284 106 250 106 c 0,13,14
 169 106 169 106 114 161 c 0,15,16
 90 185 90 185 72.5 225.5 c 128,-1,17
 55 266 55 266 55 297 c 0,18,19
 55 320 55 320 69 337.5 c 128,-1,20
 83 355 83 355 101 355 c 0,21,22
 102 355 102 355 104 354.5 c 128,-1,23
 106 354 106 354 107 354 c 0,24,25
 121 352 121 352 128 341.5 c 128,-1,26
 135 331 135 331 148 294 c 0,27,28
 161 255 161 255 171 240 c 0,29,30
 192 213 192 213 224 213 c 0,31,32
 241 213 241 213 250 221 c 0,33,34
 268 235 268 235 278 283 c 0,35,36
 286 318 286 318 286 420 c 0,37,38
 286 519 286 519 278 569 c 0,39,40
 272 607 272 607 272 631 c 0,41,42
 272 675 272 675 295 697 c 0,0,1
EndSplineSet
EndChar

StartChar: K
Encoding: 75 75 33
Width: 522
Flags: W
LayerCount: 2
Fore
SplineSet
59 675 m 0,0,1
 70 697 70 697 95 697 c 0,2,3
 126 697 126 697 155 666 c 0,4,5
 170 649 170 649 185.5 598.5 c 128,-1,6
 201 548 201 548 210 506 c 128,-1,7
 219 464 219 464 220 464 c 0,8,9
 222 464 222 464 227 480 c 0,10,11
 232 497 232 497 258 546.5 c 128,-1,12
 284 596 284 596 300 620 c 0,13,14
 331 664 331 664 351 664 c 2,15,-1
 353 664 l 2,16,17
 373 661 373 661 377 624 c 1,18,-1
 377 616 l 2,19,20
 377 580 377 580 339 484 c 0,21,22
 319 435 319 435 319 426 c 0,23,24
 319 422 319 422 323 420 c 0,25,26
 334 414 334 414 359 386.5 c 128,-1,27
 384 359 384 359 399 336 c 0,28,29
 467 232 467 232 467 175 c 0,30,31
 467 149 467 149 457.5 134.5 c 128,-1,32
 448 120 448 120 433 120 c 0,33,34
 409 120 409 120 390 152 c 0,35,36
 380 168 380 168 353 203 c 0,37,38
 336 226 336 226 286 283 c 128,-1,39
 236 340 236 340 227 347 c 0,40,41
 226 348 226 348 225 348 c 0,42,43
 222 348 222 348 219 293 c 0,44,45
 217 232 217 232 207 203 c 0,46,47
 176 113 176 113 131 113 c 0,48,49
 108 113 108 113 100 141 c 0,50,51
 98 149 98 149 98 156 c 0,52,53
 98 172 98 172 104 216 c 0,54,55
 113 274 113 274 113 344 c 0,56,57
 113 404 113 404 106.5 442.5 c 128,-1,58
 100 481 100 481 79 547 c 0,59,60
 61 602 61 602 57 631 c 0,61,62
 54 649 54 649 54 656 c 128,-1,63
 54 663 54 663 59 675 c 0,0,1
EndSplineSet
EndChar

StartChar: L
Encoding: 76 76 34
Width: 466
Flags: W
LayerCount: 2
Fore
SplineSet
87 690 m 0,0,1
 94 695 94 695 103 695 c 128,-1,2
 112 695 112 695 124 683 c 0,3,4
 139 668 139 668 146 636.5 c 128,-1,5
 153 605 153 605 161 522 c 0,6,7
 162 510 162 510 162 469 c 0,8,9
 162 403 162 403 160 359 c 0,10,11
 157 295 157 295 157 267 c 0,12,13
 157 250 157 250 157.5 241 c 128,-1,14
 158 232 158 232 164.5 227.5 c 128,-1,15
 171 223 171 223 173.5 223 c 128,-1,16
 176 223 176 223 192 221 c 0,17,18
 199 220 199 220 216 220 c 0,19,20
 266 220 266 220 324 229 c 0,21,22
 342 232 342 232 351 232 c 128,-1,23
 360 232 360 232 372 229 c 0,24,25
 411 218 411 218 411 196 c 0,26,27
 411 189 411 189 406 179 c 0,28,29
 401 167 401 167 389 161 c 0,30,31
 364 148 364 148 290 137.5 c 128,-1,32
 216 127 216 127 151 127 c 0,33,34
 88 127 88 127 76 134 c 0,35,36
 66 139 66 139 63.5 144 c 128,-1,37
 61 149 61 149 60 167 c 0,38,39
 57 188 57 188 57 286 c 0,40,41
 57 345 57 345 52 480 c 0,42,43
 50 548 50 548 50 564 c 0,44,45
 50 639 50 639 66 667 c 0,46,47
 76 684 76 684 87 690 c 0,0,1
EndSplineSet
EndChar

StartChar: M
Encoding: 77 77 35
Width: 679
Flags: W
LayerCount: 2
Fore
SplineSet
404 687 m 0,0,1
 416 699 416 699 425 699 c 0,2,3
 436 699 436 699 459 676 c 0,4,5
 484 649 484 649 486 643 c 0,6,7
 490 632 490 632 517 539 c 0,8,9
 545 443 545 443 573 358 c 0,10,11
 624 204 624 204 624 156 c 0,12,13
 624 126 624 126 608 110 c 0,14,15
 600 101 600 101 590 101 c 0,16,17
 564 101 564 101 540 148 c 0,18,19
 507 212 507 212 473 316.5 c 128,-1,20
 439 421 439 421 418 514 c 2,21,-1
 414 531 l 1,22,-1
 401 497 l 2,23,24
 376 429 376 429 351 396 c 0,25,26
 341 383 341 383 329 383 c 0,27,28
 321 383 321 383 312 389 c 0,29,30
 289 405 289 405 249 487 c 2,31,-1
 227 531 l 1,32,-1
 224 516 l 1,33,34
 209 462 209 462 188 364 c 0,35,36
 171 279 171 279 171 275 c 0,37,38
 171 273 171 273 167 254.5 c 128,-1,39
 163 236 163 236 156.5 210.5 c 128,-1,40
 150 185 150 185 145 168 c 0,41,42
 135 138 135 138 118 120 c 128,-1,43
 101 102 101 102 85 102 c 0,44,45
 72 102 72 102 63 114 c 0,46,47
 54 127 54 127 54 161 c 0,48,49
 54 167 54 167 65 273 c 0,50,51
 75 342 75 342 92 418 c 0,52,53
 96 439 96 439 116.5 503.5 c 128,-1,54
 137 568 137 568 148 593 c 0,55,56
 165 630 165 630 189.5 663 c 128,-1,57
 214 696 214 696 225 696 c 0,58,59
 247 696 247 696 304 615 c 2,60,-1
 334 571 l 1,61,-1
 346 597 l 2,62,63
 371 652 371 652 404 687 c 0,0,1
EndSplineSet
EndChar

StartChar: N
Encoding: 78 78 36
Width: 479
Flags: W
LayerCount: 2
Fore
SplineSet
353 657 m 0,0,1
 378 707 378 707 397 707 c 2,2,-1
 399 707 l 2,3,4
 415 705 415 705 420.5 667.5 c 128,-1,5
 426 630 426 630 428 497 c 0,6,7
 429 468 429 468 429 416 c 0,8,9
 429 225 429 225 403 156 c 0,10,11
 391 125 391 125 375 125 c 128,-1,12
 359 125 359 125 332 154 c 0,13,14
 284 203 284 203 187 387 c 2,15,-1
 155 447 l 1,16,-1
 157 410 l 2,17,18
 162 318 162 318 162 278 c 0,19,20
 162 220 162 220 154 191 c 128,-1,21
 146 162 146 162 127 140 c 0,22,23
 108 119 108 119 89 119 c 0,24,25
 83 119 83 119 77 122 c 0,26,27
 50 139 50 139 50 199 c 0,28,29
 50 228 50 228 54 261 c 0,30,31
 61 330 61 330 62 471 c 0,32,33
 64 624 64 624 67 634 c 0,34,35
 76 670 76 670 102 670 c 0,36,37
 121 670 121 670 154 622.5 c 128,-1,38
 187 575 187 575 268 431 c 2,39,-1
 331 319 l 1,40,-1
 334 422 l 2,41,42
 338 555 338 555 341.5 597 c 128,-1,43
 345 639 345 639 353 657 c 0,0,1
EndSplineSet
EndChar

StartChar: O
Encoding: 79 79 37
Width: 505
Flags: W
LayerCount: 2
Fore
SplineSet
302 597 m 0,0,1
 283 610 283 610 257 610 c 0,2,3
 215 610 215 610 190 583 c 0,4,5
 172 563 172 563 160.5 520 c 128,-1,6
 149 477 149 477 149 430 c 0,7,8
 149 390 149 390 158 358 c 0,9,10
 177 291 177 291 209.5 251 c 128,-1,11
 242 211 242 211 282 207 c 1,12,-1
 290 207 l 2,13,14
 351 207 351 207 363 300 c 0,15,16
 366 326 366 326 366 361 c 0,17,18
 366 447 366 447 355 493 c 0,19,20
 335 574 335 574 302 597 c 0,0,1
178 690 m 0,21,22
 192 695 192 695 224 695 c 0,23,24
 258 695 258 695 273 690 c 0,25,26
 388 659 388 659 428 532 c 0,27,28
 451 453 451 453 451 366 c 0,29,30
 451 331 451 331 447 311 c 0,31,32
 437 250 437 250 404.5 198 c 128,-1,33
 372 146 372 146 334 127 c 0,34,35
 312 117 312 117 292 117 c 0,36,37
 219 117 219 117 142 197 c 0,38,39
 78 264 78 264 59 352 c 0,40,41
 54 373 54 373 54 423 c 0,42,43
 54 497 54 497 65 541 c 0,44,45
 95 664 95 664 178 690 c 0,21,22
EndSplineSet
EndChar

StartChar: P
Encoding: 80 80 38
Width: 446
Flags: W
LayerCount: 2
Fore
SplineSet
267 613 m 0,0,1
 239 619 239 619 208 619 c 2,2,-1
 172 619 l 1,3,-1
 170 583 l 2,4,5
 167 526 167 526 167 511 c 2,6,-1
 167 475 l 1,7,-1
 200 477 l 2,8,9
 319 486 319 486 325 548 c 1,10,-1
 325 555 l 2,11,12
 325 600 325 600 267 613 c 0,0,1
123 696 m 0,13,14
 145 704 145 704 186 704 c 128,-1,15
 227 704 227 704 259 696 c 0,16,17
 323 680 323 680 361 649 c 0,18,19
 393 623 393 623 393 553 c 0,20,21
 393 512 393 512 382 488 c 0,22,23
 345 407 345 407 207 396 c 0,24,25
 176 394 176 394 170 388 c 0,26,27
 166 384 166 384 162 351 c 0,28,29
 147 185 147 185 133 153 c 0,30,31
 121 125 121 125 97 125 c 128,-1,32
 73 125 73 125 58 153 c 0,33,34
 52 164 52 164 51 175 c 128,-1,35
 50 186 50 186 50 232 c 0,36,37
 51 314 51 314 64 482.5 c 128,-1,38
 77 651 77 651 84 664 c 0,39,40
 95 686 95 686 123 696 c 0,13,14
EndSplineSet
EndChar

StartChar: Q
Encoding: 81 81 39
Width: 526
Flags: W
LayerCount: 2
Fore
SplineSet
303 596 m 0,0,1
 284 609 284 609 258 609 c 0,2,3
 217 609 217 609 190 582 c 0,4,5
 172 562 172 562 160.5 518.5 c 128,-1,6
 149 475 149 475 149 428 c 0,7,8
 149 388 149 388 158 356 c 0,9,10
 187 251 187 251 246 216 c 0,11,12
 265 205 265 205 289 205 c 0,13,14
 318 205 318 205 318 214 c 0,15,16
 318 218 318 218 313 226 c 0,17,18
 305 237 305 237 305 242 c 128,-1,19
 305 247 305 247 311 257 c 0,20,21
 319 276 319 276 345 276 c 2,22,-1
 350 276 l 1,23,-1
 355 276 l 2,24,25
 360 276 360 276 361.5 280 c 128,-1,26
 363 284 363 284 365 298 c 0,27,28
 367 314 367 314 367 343 c 0,29,30
 367 350 367 350 366.5 365.5 c 128,-1,31
 366 381 366 381 366 389 c 0,32,33
 365 457 365 457 356 492 c 0,34,35
 335 574 335 574 303 596 c 0,0,1
179 690 m 0,36,37
 193 695 193 695 224 695 c 0,38,39
 257 695 257 695 273 690 c 0,40,41
 346 671 346 671 386.5 616.5 c 128,-1,42
 427 562 427 562 445 460 c 0,43,44
 452 418 452 418 452 373 c 0,45,46
 452 301 452 301 432 248 c 2,47,-1
 422 222 l 1,48,-1
 436 203 l 2,49,50
 449 186 449 186 460.5 162 c 128,-1,51
 472 138 472 138 472 127 c 0,52,53
 472 112 472 112 465 106.5 c 128,-1,54
 458 101 458 101 441 101 c 0,55,56
 427 101 427 101 421.5 103.5 c 128,-1,57
 416 106 416 106 406 116 c 0,58,59
 402 120 402 120 398 125 c 128,-1,60
 394 130 394 130 390 135.5 c 128,-1,61
 386 141 386 141 384 143 c 2,62,-1
 375 153 l 1,63,-1
 361 141 l 2,64,65
 331 114 331 114 293 114 c 0,66,67
 249 114 249 114 196 148 c 0,68,69
 173 162 173 162 143.5 193 c 128,-1,70
 114 224 114 224 99 249 c 0,71,72
 55 323 55 323 55 419 c 2,73,-1
 55 445 l 2,74,75
 58 541 58 541 86 600 c 0,76,77
 119 671 119 671 179 690 c 0,36,37
EndSplineSet
EndChar

StartChar: R
Encoding: 82 82 40
Width: 454
Flags: W
LayerCount: 2
Fore
SplineSet
266 602 m 0,0,1
 238 607 238 607 193 607 c 0,2,3
 177 607 177 607 176 606 c 0,4,5
 176 592 176 592 173 534 c 2,6,-1
 170 463 l 1,7,-1
 193 463 l 2,8,9
 229 463 229 463 263 473.5 c 128,-1,10
 297 484 297 484 315 501 c 0,11,12
 332 516 332 516 332 542 c 0,13,14
 332 560 332 560 323 573 c 0,15,16
 309 594 309 594 266 602 c 0,0,1
131 688 m 0,17,18
 156 695 156 695 175 695 c 0,19,20
 178 695 178 695 186.5 694.5 c 128,-1,21
 195 694 195 694 200 694 c 0,22,23
 274 691 274 691 335 660 c 0,24,25
 374 639 374 639 387.5 614 c 128,-1,26
 401 589 401 589 401 538 c 0,27,28
 401 501 401 501 392 477 c 0,29,30
 363 405 363 405 249 384 c 2,31,-1
 206 376 l 1,32,-1
 228 353 l 2,33,34
 340 235 340 235 357 152 c 0,35,36
 360 138 360 138 360 133 c 0,37,38
 360 126 360 126 356 119 c 0,39,40
 350 107 350 107 333 107 c 0,41,42
 306 107 306 107 283 132 c 0,43,44
 281 134 281 134 228 206 c 0,45,46
 167 292 167 292 162 292 c 0,47,48
 161 292 161 292 157 262 c 0,49,50
 149 166 149 166 137 134 c 128,-1,51
 125 102 125 102 98 102 c 0,52,53
 85 102 85 102 72.5 114.5 c 128,-1,54
 60 127 60 127 55 143 c 0,55,56
 51 161 51 161 51 201 c 0,57,58
 51 326 51 326 76 588 c 0,59,60
 81 645 81 645 90 661 c 128,-1,61
 99 677 99 677 131 688 c 0,17,18
EndSplineSet
EndChar

StartChar: S
Encoding: 83 83 41
Width: 509
Flags: W
LayerCount: 2
Fore
SplineSet
202 690 m 0,0,1
 217 694 217 694 248 694 c 2,2,-1
 269 694 l 2,3,4
 316 693 316 693 350 681 c 0,5,6
 409 660 409 660 434 636 c 0,7,8
 442 628 442 628 442 615 c 0,9,10
 442 582 442 582 417 567 c 0,11,12
 406 560 406 560 387 560 c 0,13,14
 361 560 361 560 325 571 c 0,15,16
 273 586 273 586 251 586 c 0,17,18
 240 586 240 586 229 583 c 0,19,20
 206 576 206 576 192 555.5 c 128,-1,21
 178 535 178 535 178 510 c 0,22,23
 178 477 178 477 201 458 c 128,-1,24
 224 439 224 439 304 430 c 0,25,26
 355 424 355 424 375.5 417.5 c 128,-1,27
 396 411 396 411 412 395 c 0,28,29
 456 351 456 351 456 273 c 2,30,-1
 456 259 l 1,31,32
 452 195 452 195 417 159.5 c 128,-1,33
 382 124 382 124 301 103 c 0,34,35
 264 95 264 95 255 95 c 0,36,37
 244 95 244 95 220 98 c 0,38,39
 162 104 162 104 117.5 124 c 128,-1,40
 73 144 73 144 62 169 c 0,41,42
 54 188 54 188 54 202 c 0,43,44
 54 221 54 221 65 233.5 c 128,-1,45
 76 246 76 246 95 246 c 0,46,47
 106 246 106 246 168 224 c 0,48,49
 228 203 228 203 262 200 c 0,50,51
 265 200 265 200 270 199.5 c 128,-1,52
 275 199 275 199 277 199 c 0,53,54
 294 199 294 199 306.5 206 c 128,-1,55
 319 213 319 213 342 234 c 0,56,57
 372 262 372 262 372 284 c 0,58,59
 372 329 372 329 234 357 c 0,60,61
 188 366 188 366 164 377 c 0,62,63
 128 393 128 393 98.5 429.5 c 128,-1,64
 69 466 69 466 69 494 c 0,65,66
 69 528 69 528 91 585 c 0,67,68
 122 667 122 667 202 690 c 0,0,1
EndSplineSet
EndChar

StartChar: T
Encoding: 84 84 42
Width: 573
Flags: W
LayerCount: 2
Fore
SplineSet
232 714 m 0,0,1
 292 718 292 718 298 718 c 2,2,-1
 303 718 l 2,3,4
 327 718 327 718 383.5 714 c 128,-1,5
 440 710 440 710 456 707 c 0,6,7
 518 695 518 695 518 667 c 0,8,9
 518 648 518 648 484 629 c 0,10,11
 471 622 471 622 430.5 609.5 c 128,-1,12
 390 597 390 597 368 593 c 2,13,-1
 353 590 l 1,14,-1
 356 562 l 2,15,16
 359 514 359 514 359 364 c 0,17,18
 359 227 359 227 356 196 c 128,-1,19
 353 165 353 165 338 144 c 128,-1,20
 323 123 323 123 302 123 c 0,21,22
 286 123 286 123 277 136 c 0,23,24
 230 196 230 196 230 494 c 2,25,-1
 230 597 l 1,26,-1
 191 602 l 2,27,28
 136 609 136 609 96 624.5 c 128,-1,29
 56 640 56 640 56 655 c 0,30,31
 56 666 56 666 60 671.5 c 128,-1,32
 64 677 64 677 77 684 c 0,33,34
 127 710 127 710 232 714 c 0,0,1
EndSplineSet
EndChar

StartChar: U
Encoding: 85 85 43
Width: 517
Flags: W
LayerCount: 2
Fore
SplineSet
363 690 m 0,0,1
 376 703 376 703 391 703 c 0,2,3
 409 703 409 703 426.5 683.5 c 128,-1,4
 444 664 444 664 455 630 c 0,5,6
 463 606 463 606 465 509 c 0,7,8
 465 501 465 501 465.5 484.5 c 128,-1,9
 466 468 466 468 466 461 c 0,10,11
 466 347 466 347 453 277 c 0,12,13
 446 245 446 245 424.5 202.5 c 128,-1,14
 403 160 403 160 383 138 c 0,15,16
 362 115 362 115 342.5 106.5 c 128,-1,17
 323 98 323 98 292 98 c 0,18,19
 204 98 204 98 140 162 c 0,20,21
 96 206 96 206 81 279 c 0,22,23
 74 316 74 316 64 430.5 c 128,-1,24
 54 545 54 545 54 591 c 0,25,26
 54 632 54 632 55 643 c 128,-1,27
 56 654 56 654 63 666 c 0,28,29
 80 700 80 700 107 700 c 0,30,31
 135 700 135 700 150 667 c 0,32,33
 166 635 166 635 170 517 c 0,34,35
 178 286 178 286 196 248 c 0,36,37
 217 207 217 207 258 207 c 0,38,39
 281 207 281 207 296 222 c 128,-1,40
 311 237 311 237 321 272 c 0,41,42
 343 350 343 350 343 504 c 0,43,44
 343 553 343 553 341 574 c 128,-1,45
 339 595 339 595 339 620 c 0,46,47
 339 641 339 641 344 655 c 0,48,49
 349 674 349 674 363 690 c 0,0,1
EndSplineSet
EndChar

StartChar: V
Encoding: 86 86 44
Width: 474
Flags: W
LayerCount: 2
Fore
SplineSet
54 638 m 0,0,1
 54 667 54 667 63 683 c 128,-1,2
 72 699 72 699 85 699 c 0,3,4
 115 699 115 699 140 643 c 0,5,6
 205 500 205 500 239 309 c 0,7,8
 244 269 244 269 248 269 c 0,9,10
 253 269 253 269 288 441 c 0,11,12
 317 580 317 580 328.5 618 c 128,-1,13
 340 656 340 656 360 676 c 0,14,15
 378 695 378 695 391 695 c 0,16,17
 400 695 400 695 409 686 c 0,18,19
 422 673 422 673 422 640 c 0,20,21
 422 610 422 610 413 540 c 0,22,23
 399 428 399 428 363.5 304.5 c 128,-1,24
 328 181 328 181 282 120 c 0,25,26
 260 92 260 92 249 92 c 0,27,28
 240 92 240 92 223 107 c 0,29,30
 199 129 199 129 188.5 154 c 128,-1,31
 178 179 178 179 147 294 c 0,32,33
 136 335 136 335 102 445 c 0,34,35
 54 599 54 599 54 638 c 0,0,1
EndSplineSet
EndChar

StartChar: W
Encoding: 87 87 45
Width: 666
Flags: W
LayerCount: 2
Fore
SplineSet
72 706 m 0,0,1
 77 710 77 710 85 710 c 0,2,3
 103 710 103 710 119 691 c 0,4,5
 124 685 124 685 137.5 660 c 128,-1,6
 151 635 151 635 153 626 c 0,7,8
 228 435 228 435 252 303 c 0,9,10
 257 279 257 279 259 279 c 0,11,12
 263 281 263 281 273 310 c 128,-1,13
 283 339 283 339 300.5 375 c 128,-1,14
 318 411 318 411 325 418 c 0,15,16
 333 424 333 424 345 423 c 0,17,18
 370 420 370 420 414 329 c 0,19,20
 437 281 437 281 443 281 c 0,21,22
 447 281 447 281 486 474 c 0,23,24
 511 597 511 597 525 638.5 c 128,-1,25
 539 680 539 680 560 699 c 0,26,27
 574 711 574 711 585 711 c 128,-1,28
 596 711 596 711 606 698 c 0,29,30
 614 687 614 687 614 646 c 0,31,32
 614 494 614 494 540 267 c 0,33,34
 521 207 521 207 491.5 158 c 128,-1,35
 462 109 462 109 445 107 c 2,36,-1
 443 107 l 2,37,38
 421 107 421 107 368 187 c 0,39,40
 339 230 339 230 337 230 c 128,-1,41
 335 230 335 230 328 212 c 0,42,43
 309 165 309 165 275 122 c 0,44,45
 259 102 259 102 250 102 c 0,46,47
 242 102 242 102 224.5 117 c 128,-1,48
 207 132 207 132 197 147 c 0,49,50
 189 160 189 160 155 281 c 0,51,52
 133 359 133 359 102 457 c 0,53,54
 54 611 54 611 54 649 c 0,55,56
 54 692 54 692 72 706 c 0,0,1
EndSplineSet
EndChar

StartChar: X
Encoding: 88 88 46
Width: 504
Flags: W
LayerCount: 2
Fore
SplineSet
68 713 m 0,0,1
 77 722 77 722 84 722 c 0,2,3
 87 722 87 722 99 718 c 0,4,5
 135 705 135 705 160 636 c 0,6,7
 162 630 162 630 168.5 614.5 c 128,-1,8
 175 599 175 599 184.5 576.5 c 128,-1,9
 194 554 194 554 200 538 c 2,10,-1
 230 466 l 1,11,-1
 244 500 l 2,12,13
 258 532 258 532 284.5 580 c 128,-1,14
 311 628 311 628 327 649 c 0,15,16
 343 671 343 671 361.5 689 c 128,-1,17
 380 707 380 707 389 709 c 0,18,19
 391 710 391 710 395 710 c 0,20,21
 419 710 419 710 419 675 c 0,22,23
 419 664 419 664 416 652 c 0,24,25
 396 582 396 582 302 437 c 0,26,27
 299 432 299 432 299 430 c 0,28,29
 299 426 299 426 315 401 c 0,30,31
 319 394 319 394 327 383.5 c 128,-1,32
 335 373 335 373 345 359.5 c 128,-1,33
 355 346 355 346 360 340 c 0,34,35
 401 287 401 287 425.5 236.5 c 128,-1,36
 450 186 450 186 450 153 c 0,37,38
 450 132 450 132 440 122 c 0,39,40
 432 114 432 114 420 114 c 0,41,42
 398 114 398 114 383 132 c 0,43,44
 376 138 376 138 354 176 c 0,45,46
 337 204 337 204 296 264.5 c 128,-1,47
 255 325 255 325 242 341 c 0,48,49
 234 353 234 353 231 350 c 0,50,51
 225 343 225 343 200 287 c 128,-1,52
 175 231 175 231 168 209 c 0,53,54
 152 159 152 159 132 129 c 128,-1,55
 112 99 112 99 95 99 c 0,56,57
 84 99 84 99 77 111 c 0,58,59
 69 124 69 124 69 139 c 0,60,61
 69 163 69 163 91 223 c 0,62,63
 138 351 138 351 149 393 c 2,64,-1
 154 414 l 1,65,-1
 120 482 l 2,66,67
 71 580 71 580 58 650 c 0,68,69
 56 660 56 660 56 676 c 0,70,71
 56 701 56 701 68 713 c 0,0,1
EndSplineSet
EndChar

StartChar: Y
Encoding: 89 89 47
Width: 421
Flags: W
LayerCount: 2
Fore
SplineSet
321 740 m 0,0,1
 328 745 328 745 338 745 c 0,2,3
 367 745 367 745 367 682 c 0,4,5
 367 657 367 657 363 633 c 0,6,7
 359 601 359 601 349 542 c 128,-1,8
 339 483 339 483 335 455 c 0,9,10
 333 429 333 429 307.5 341.5 c 128,-1,11
 282 254 282 254 261 202 c 0,12,13
 216 86 216 86 191 86 c 0,14,15
 181 86 181 86 172 104 c 0,16,17
 165 119 165 119 165 159 c 0,18,19
 165 197 165 197 187 282 c 2,20,-1
 208 366 l 1,21,-1
 134 514 l 2,22,23
 59 665 59 665 57 678 c 0,24,25
 56 681 56 681 56 688 c 0,26,27
 56 708 56 708 66.5 723 c 128,-1,28
 77 738 77 738 90 738 c 0,29,30
 100 738 100 738 114 729 c 128,-1,31
 128 720 128 720 137 709 c 0,32,33
 187 645 187 645 222 573 c 2,34,-1
 243 531 l 1,35,-1
 247 546 l 2,36,37
 252 568 252 568 252 573 c 0,38,39
 252 584 252 584 263.5 627.5 c 128,-1,40
 275 671 275 671 283 689 c 0,41,42
 300 729 300 729 321 740 c 0,0,1
EndSplineSet
EndChar

StartChar: Z
Encoding: 90 90 48
Width: 498
Flags: W
LayerCount: 2
Fore
SplineSet
178 736 m 0,0,1
 198 740 198 740 247 740 c 0,2,3
 319 740 319 740 346 732 c 0,4,5
 392 717 392 717 392 676 c 0,6,7
 392 661 392 661 388 645 c 0,8,9
 349 473 349 473 257 269 c 2,10,-1
 234 217 l 1,11,12
 262 216 262 216 297 216 c 0,13,14
 395 216 395 216 426 198 c 0,15,16
 443 188 443 188 443 174 c 128,-1,17
 443 160 443 160 431 147 c 0,18,19
 417 132 417 132 404.5 127 c 128,-1,20
 392 122 392 122 360 120 c 0,21,22
 316 117 316 117 162 100 c 0,23,24
 160 100 160 100 155.5 99.5 c 128,-1,25
 151 99 151 99 149 99 c 0,26,27
 117 99 117 99 101 118 c 0,28,29
 91 130 91 130 91 141 c 0,30,31
 91 161 91 161 139 261 c 0,32,33
 190 368 190 368 232 493 c 0,34,35
 260 576 260 576 273 607 c 0,36,37
 285 636 285 636 285 639 c 0,38,39
 285 641 285 641 274 641 c 0,40,41
 246 641 246 641 193 633 c 0,42,43
 148 626 148 626 114 626 c 0,44,45
 81 626 81 626 73 633 c 0,46,47
 56 647 56 647 56 667 c 0,48,49
 56 692 56 692 80 706 c 0,50,51
 109 723 109 723 178 736 c 0,0,1
EndSplineSet
EndChar

StartChar: a
Encoding: 97 97 49
Width: 440
Flags: W
LayerCount: 2
Fore
SplineSet
235 565 m 0,0,1
 232 572 232 572 227.5 575.5 c 128,-1,2
 223 579 223 579 219 578.5 c 128,-1,3
 215 578 215 578 214 574 c 0,4,5
 207 555 207 555 187 478 c 128,-1,6
 167 401 167 401 167 394 c 1,7,-1
 169 394 l 2,8,9
 180 394 180 394 228 401 c 128,-1,10
 276 408 276 408 276 411 c 0,11,12
 276 419 276 419 266.5 461.5 c 128,-1,13
 257 504 257 504 251 523 c 0,14,15
 245 544 245 544 235 565 c 0,0,1
185 722 m 0,16,17
 201 730 201 730 207 730 c 0,18,19
 214 730 214 730 230.5 720 c 128,-1,20
 247 710 247 710 259 698 c 0,21,22
 269 688 269 688 289 648 c 128,-1,23
 309 608 309 608 322 571 c 0,24,25
 348 492 348 492 367.5 386 c 128,-1,26
 387 280 387 280 387 212 c 0,27,28
 387 177 387 177 375 153 c 0,29,30
 354 110 354 110 319 110 c 0,31,32
 306 110 306 110 296 119 c 128,-1,33
 286 128 286 128 284 142 c 0,34,35
 283 145 283 145 279 217 c 2,36,-1
 276 279 l 1,37,-1
 224 267 l 2,38,39
 168 254 168 254 166 252 c 0,40,41
 162 248 162 248 162 241 c 0,42,43
 162 217 162 217 140 164 c 0,44,45
 118 116 118 116 89 116 c 0,46,47
 76 116 76 116 66 127 c 0,48,49
 54 142 54 142 54 165 c 0,50,51
 54 180 54 180 56 189 c 0,52,53
 112 517 112 517 119 566 c 0,54,55
 130 648 130 648 138 666 c 0,56,57
 153 706 153 706 185 722 c 0,16,17
EndSplineSet
EndChar

StartChar: b
Encoding: 98 98 50
Width: 493
Flags: W
LayerCount: 2
Fore
SplineSet
311 366 m 0,0,1
 296 373 296 373 266 373 c 0,2,3
 232 373 232 373 196 362 c 2,4,-1
 169 354 l 1,5,-1
 169 314 l 2,6,7
 169 266 169 266 172 238 c 2,8,-1
 174 202 l 1,9,-1
 196 205 l 2,10,11
 262 213 262 213 303 233 c 0,12,13
 323 242 323 242 337 257.5 c 128,-1,14
 351 273 351 273 353 288 c 0,15,16
 354 292 354 292 354 299 c 0,17,18
 354 347 354 347 311 366 c 0,0,1
290 593 m 0,19,20
 277 600 277 600 241 600 c 0,21,22
 201 600 201 600 160 591 c 2,23,-1
 147 589 l 1,24,-1
 159 523 l 2,25,26
 171 457 171 457 178 456 c 2,27,-1
 180 456 l 2,28,29
 208 456 208 456 258 482 c 0,30,31
 281 494 281 494 295 509 c 0,32,33
 310 525 310 525 312 546 c 2,34,-1
 312 555 l 2,35,36
 312 581 312 581 290 593 c 0,19,20
225 697 m 0,37,38
 257 702 257 702 280 702 c 0,39,40
 334 702 334 702 371 683 c 0,41,42
 389 675 389 675 400 648.5 c 128,-1,43
 411 622 411 622 411 593 c 128,-1,44
 411 564 411 564 404 542.5 c 128,-1,45
 397 521 397 521 377 490 c 0,46,47
 355 459 355 459 355 455 c 0,48,49
 355 452 355 452 369 445 c 0,50,51
 400 429 400 429 420.5 386.5 c 128,-1,52
 441 344 441 344 441 297 c 0,53,54
 441 294 441 294 440.5 288.5 c 128,-1,55
 440 283 440 283 440 280 c 0,56,57
 431 172 431 172 266 128 c 0,58,59
 220 116 220 116 169 116 c 0,60,61
 117 116 117 116 102 124 c 2,62,-1
 86 131 l 1,63,-1
 83 176 l 2,64,65
 72 358 72 358 60 500 c 0,66,67
 54 566 54 566 54 605 c 2,68,-1
 54 613 l 2,69,70
 57 642 57 642 95 660 c 0,71,72
 140 681 140 681 225 697 c 0,37,38
EndSplineSet
EndChar

StartChar: c
Encoding: 99 99 51
Width: 433
Flags: W
LayerCount: 2
Fore
SplineSet
129 662 m 0,0,1
 176 699 176 699 214 699 c 0,2,3
 234 699 234 699 256 690 c 0,4,5
 278 680 278 680 298 659 c 128,-1,6
 318 638 318 638 323 619 c 0,7,8
 327 607 327 607 327 593 c 0,9,10
 327 575 327 575 319 567 c 0,11,12
 314 564 314 564 307 564 c 0,13,14
 286 564 286 564 263 579 c 0,15,16
 243 591 243 591 225 591 c 0,17,18
 190 591 190 591 167 550.5 c 128,-1,19
 144 510 144 510 144 447 c 0,20,21
 144 436 144 436 146 410 c 0,22,23
 157 312 157 312 205 259 c 0,24,25
 232 231 232 231 260 231 c 0,26,27
 278 231 278 231 307 240 c 0,28,29
 339 250 339 250 349 250 c 0,30,31
 364 250 364 250 373 234 c 0,32,33
 378 225 378 225 378 210 c 0,34,35
 378 179 378 179 358 157 c 0,36,37
 343 139 343 139 310 128.5 c 128,-1,38
 277 118 277 118 243 118 c 0,39,40
 223 118 223 118 203 123 c 0,41,42
 63 159 63 159 54 401 c 0,43,44
 54 405 54 405 53.5 413.5 c 128,-1,45
 53 422 53 422 53 426 c 0,46,47
 53 506 53 506 73.5 570 c 128,-1,48
 94 634 94 634 129 662 c 0,0,1
EndSplineSet
EndChar

StartChar: d
Encoding: 100 100 52
Width: 487
Flags: W
LayerCount: 2
Fore
SplineSet
291 593 m 0,0,1
 278 601 278 601 269 602.5 c 128,-1,2
 260 604 260 604 226 606 c 2,3,-1
 181 607 l 1,4,-1
 178 581 l 2,5,6
 174 546 174 546 167.5 402 c 128,-1,7
 161 258 161 258 161 228 c 0,8,9
 161 223 161 223 164 223 c 0,10,11
 174 223 174 223 202.5 231 c 128,-1,12
 231 239 231 239 248 247 c 0,13,14
 325 284 325 284 345 362 c 0,15,16
 350 382 350 382 350 415 c 2,17,-1
 350 438 l 1,18,19
 346 560 346 560 291 593 c 0,0,1
165 698 m 0,20,21
 185 702 185 702 219 702 c 0,22,23
 275 702 275 702 305 692 c 0,24,25
 354 675 354 675 385 643 c 0,26,27
 402 624 402 624 410.5 599.5 c 128,-1,28
 419 575 419 575 426 522 c 0,29,30
 432 474 432 474 432 440 c 0,31,32
 432 379 432 379 408 304 c 0,33,34
 394 263 394 263 380.5 239 c 128,-1,35
 367 215 367 215 339 187 c 0,36,37
 276 122 276 122 189 112 c 0,38,39
 187 112 187 112 182 111.5 c 128,-1,40
 177 111 177 111 173 111 c 0,41,42
 91 111 91 111 62 122 c 0,43,44
 52 126 52 126 52 135 c 0,45,46
 52 143 52 143 53 150 c 0,47,48
 60 225 60 225 69 412 c 0,49,50
 79 641 79 641 88 660 c 0,51,52
 101 685 101 685 165 698 c 0,20,21
EndSplineSet
EndChar

StartChar: e
Encoding: 101 101 53
Width: 468
Flags: W
LayerCount: 2
Fore
SplineSet
152 597 m 1,0,1
 152 590 152 590 157 538 c 128,-1,2
 162 486 162 486 162 479 c 0,3,4
 162 465 162 465 163.5 462 c 128,-1,5
 165 459 165 459 169 460 c 0,6,7
 206 472 206 472 270 472 c 0,8,9
 302 472 302 472 324 467 c 0,10,11
 364 458 364 458 364 437 c 0,12,13
 364 424 364 424 345 405 c 0,14,15
 331 391 331 391 325 388 c 128,-1,16
 319 385 319 385 296 384 c 0,17,18
 270 382 270 382 216 374.5 c 128,-1,19
 162 367 162 367 160 365 c 0,20,21
 159 364 159 364 157 291 c 2,22,-1
 157 258 l 2,23,24
 157 218 157 218 161 214 c 0,25,26
 168 207 168 207 223 207 c 0,27,28
 262 207 262 207 300 212 c 0,29,30
 338 218 338 218 354 218 c 128,-1,31
 370 218 370 218 390 209 c 0,32,33
 413 198 413 198 413 183 c 0,34,35
 413 170 413 170 397 153 c 0,36,37
 384 138 384 138 309 125.5 c 128,-1,38
 234 113 234 113 156 112 c 0,39,40
 87 112 87 112 73 120 c 2,41,-1
 59 128 l 1,42,-1
 57 233 l 2,43,44
 50 528 50 528 50 582 c 0,45,46
 50 616 50 616 55 634 c 0,47,48
 64 664 64 664 88.5 677.5 c 128,-1,49
 113 691 113 691 170 699 c 0,50,51
 198 703 198 703 237 703 c 0,52,53
 319 703 319 703 357 687 c 0,54,55
 381 676 381 676 381 662 c 128,-1,56
 381 648 381 648 360 628 c 0,57,58
 347 616 347 616 307 613 c 0,59,60
 159 600 159 600 152 597 c 1,0,1
EndSplineSet
EndChar

StartChar: f
Encoding: 102 102 54
Width: 479
Flags: W
LayerCount: 2
Fore
SplineSet
165 699 m 0,0,1
 207 702 207 702 256 702 c 0,2,3
 372 702 372 702 394 690 c 0,4,5
 403 686 403 686 414 673 c 128,-1,6
 425 660 425 660 425 655 c 0,7,8
 425 648 425 648 415 638 c 128,-1,9
 405 628 405 628 393 621 c 0,10,11
 377 612 377 612 293 610 c 0,12,13
 207 606 207 606 196 603 c 0,14,15
 165 596 165 596 165 584 c 0,16,17
 165 560 165 560 179 493 c 2,18,-1
 181 483 l 1,19,-1
 203 490 l 2,20,21
 243 504 243 504 296 504 c 0,22,23
 338 504 338 504 366 495 c 0,24,25
 399 486 399 486 399 468 c 0,26,27
 399 455 399 455 380 436 c 0,28,29
 366 422 366 422 359.5 419 c 128,-1,30
 353 416 353 416 330 415 c 0,31,32
 300 412 300 412 249 405 c 128,-1,33
 198 398 198 398 198 395 c 0,34,35
 198 386 198 386 203 354 c 0,36,37
 209 315 209 315 209 230 c 0,38,39
 209 169 209 169 208 155.5 c 128,-1,40
 207 142 207 142 200 128 c 0,41,42
 189 107 189 107 180 102 c 0,43,44
 169 96 169 96 153 105 c 0,45,46
 123 121 123 121 111.5 162.5 c 128,-1,47
 100 204 100 204 88 341 c 0,48,49
 79 430 79 430 68 521 c 0,50,51
 54 636 54 636 54 654 c 0,52,53
 54 665 54 665 59 670 c 0,54,55
 81 692 81 692 165 699 c 0,0,1
EndSplineSet
EndChar

StartChar: g
Encoding: 103 103 55
Width: 469
Flags: W
LayerCount: 2
Fore
SplineSet
188 679 m 0,0,1
 209 689 209 689 235 689 c 0,2,3
 289 689 289 689 318 652 c 0,4,5
 347 616 347 616 347 583 c 0,6,7
 347 561 347 561 337 551 c 128,-1,8
 327 541 327 541 324 541 c 0,9,10
 313 541 313 541 278 567 c 0,11,12
 258 582 258 582 239 582 c 0,13,14
 213 582 213 582 189 555 c 0,15,16
 178 542 178 542 168 521 c 128,-1,17
 158 500 158 500 156 486 c 0,18,19
 152 458 152 458 150 438 c 0,20,21
 148 416 148 416 148 404 c 0,22,23
 148 350 148 350 164.5 302 c 128,-1,24
 181 254 181 254 207 234 c 0,25,26
 221 223 221 223 254 223 c 0,27,28
 289 223 289 223 298 226 c 0,29,30
 307 233 307 233 308 237 c 0,31,32
 308 246 308 246 302 279 c 2,33,-1
 300 293 l 1,34,-1
 270 295 l 2,35,36
 184 301 184 301 184 335 c 0,37,38
 184 348 184 348 198 363 c 2,39,-1
 211 377 l 1,40,-1
 251 380 l 2,41,42
 262 381 262 381 294 382.5 c 128,-1,43
 326 384 326 384 338 385 c 0,44,45
 351 386 351 386 374 386 c 0,46,47
 392 386 392 386 394 385 c 0,48,49
 403 383 403 383 409.5 373 c 128,-1,50
 416 363 416 363 416 352 c 0,51,52
 416 351 416 351 415.5 349 c 128,-1,53
 415 347 415 347 415 346 c 0,54,55
 413 336 413 336 400.5 323 c 128,-1,56
 388 310 388 310 380 310 c 0,57,58
 375 310 375 310 375 306 c 0,59,60
 375 298 375 298 380 275 c 0,61,62
 385 250 385 250 385 224 c 0,63,64
 385 203 385 203 384 190 c 0,65,66
 382 117 382 117 363 100 c 0,67,68
 356 95 356 95 351 95 c 0,69,70
 337 95 337 95 323 114 c 2,71,-1
 314 127 l 1,72,73
 275 114 275 114 261 112 c 0,74,75
 243 110 243 110 234 110 c 0,76,77
 160 110 160 110 114 159 c 0,78,79
 54 222 54 222 54 350 c 0,80,81
 54 354 54 354 54.5 364 c 128,-1,82
 55 374 55 374 55 379 c 0,83,84
 58 465 58 465 82 542 c 0,85,86
 100 601 100 601 126 633 c 0,87,88
 150 663 150 663 188 679 c 0,0,1
EndSplineSet
EndChar

StartChar: h
Encoding: 104 104 56
Width: 465
Flags: W
LayerCount: 2
Fore
SplineSet
333 196 m 0,0,1
 333 200 333 200 323.5 271 c 128,-1,2
 314 342 314 342 314 345 c 128,-1,3
 314 348 314 348 243 348 c 2,4,-1
 171 348 l 1,5,-1
 169 334 l 2,6,7
 163 283 163 283 159 259 c 0,8,9
 144 148 144 148 108 128 c 0,10,11
 102 125 102 125 97 125 c 0,12,13
 86 125 86 125 76 146 c 0,14,15
 68 162 68 162 66 310 c 0,16,17
 62 472 62 472 58 514 c 0,18,19
 53 574 53 574 53 600 c 0,20,21
 53 659 53 659 76 669 c 0,22,23
 85 674 85 674 97 666 c 0,24,25
 134 638 134 638 159 493 c 0,26,27
 166 448 166 448 171 443 c 0,28,29
 173 441 173 441 219 437.5 c 128,-1,30
 265 434 265 434 288 434 c 0,31,32
 291 434 291 434 296 435 c 2,33,-1
 298 435 l 2,34,35
 300 436 300 436 304 500 c 0,36,37
 310 646 310 646 337 675 c 0,38,39
 346 684 346 684 359 684 c 0,40,41
 374 684 374 684 385 672 c 0,42,43
 394 662 394 662 396 653.5 c 128,-1,44
 398 645 398 645 402 609 c 0,45,46
 413 510 413 510 415 317 c 2,47,-1
 415 245 l 2,48,49
 415 188 415 188 407 170 c 0,50,51
 400 154 400 154 386.5 139 c 128,-1,52
 373 124 373 124 365 124 c 0,53,54
 353 124 353 124 343 146.5 c 128,-1,55
 333 169 333 169 333 196 c 0,0,1
EndSplineSet
EndChar

StartChar: i
Encoding: 105 105 57
Width: 530
Flags: W
LayerCount: 2
Fore
SplineSet
173 692 m 0,0,1
 194 693 194 693 256 693 c 0,2,3
 386 693 386 693 414 688 c 0,4,5
 435 684 435 684 447 677 c 0,6,7
 461 671 461 671 462 656 c 2,8,-1
 462 651 l 2,9,10
 462 640 462 640 449 628 c 0,11,12
 423 603 423 603 360 603 c 0,13,14
 324 603 324 603 324 600 c 0,15,16
 324 594 324 594 329 564 c 0,17,18
 341 492 341 492 341 391 c 0,19,20
 341 367 341 367 339 317 c 0,21,22
 337 245 337 245 337 234 c 2,23,-1
 337 225 l 2,24,25
 338 222 338 222 373 217 c 0,26,27
 420 210 420 210 448 194.5 c 128,-1,28
 476 179 476 179 476 160 c 0,29,30
 476 149 476 149 465 136 c 0,31,32
 440 109 440 109 298 109 c 0,33,34
 291 109 291 109 274 109.5 c 128,-1,35
 257 110 257 110 248 110 c 0,36,37
 149 112 149 112 121 120 c 0,38,39
 54 138 54 138 54 163 c 0,40,41
 54 170 54 170 60 178 c 0,42,43
 83 208 83 208 175 223 c 2,44,-1
 210 229 l 1,45,-1
 212 412 l 1,46,-1
 214 595 l 1,47,-1
 154 596 l 2,48,49
 106 597 106 597 87 602 c 128,-1,50
 68 607 68 607 59 620 c 0,51,52
 53 629 53 629 61 645 c 0,53,54
 73 669 73 669 97 679 c 128,-1,55
 121 689 121 689 173 692 c 0,0,1
EndSplineSet
EndChar

StartChar: j
Encoding: 106 106 58
Width: 456
Flags: W
LayerCount: 2
Fore
SplineSet
272 639 m 1,0,1
 282 697 282 697 316 697 c 0,2,3
 335 697 335 697 354 675 c 128,-1,4
 373 653 373 653 384 615 c 0,5,6
 391 587 391 587 397.5 507.5 c 128,-1,7
 404 428 404 428 404 362 c 0,8,9
 404 336 404 336 402 308 c 0,10,11
 395 235 395 235 362 169 c 0,12,13
 324 98 324 98 253 98 c 0,14,15
 228 98 228 98 207 103 c 0,16,17
 149 115 149 115 108 161.5 c 128,-1,18
 67 208 67 208 56 275 c 0,19,20
 55 279 55 279 55 287 c 0,21,22
 55 311 55 311 69.5 329 c 128,-1,23
 84 347 84 347 103 347 c 0,24,25
 110 347 110 347 116 344 c 0,26,27
 126 340 126 340 132.5 328 c 128,-1,28
 139 316 139 316 153 276 c 0,29,30
 178 205 178 205 222 205 c 0,31,32
 244 205 244 205 256.5 218.5 c 128,-1,33
 269 232 269 232 277 264 c 0,34,35
 284 290 284 290 285 395 c 0,36,37
 286 422 286 422 286 460 c 0,38,39
 286 511 286 511 278 563 c 0,40,41
 272 605 272 605 272 633 c 2,42,-1
 272 639 l 1,0,1
EndSplineSet
EndChar

StartChar: k
Encoding: 107 107 59
Width: 522
Flags: W
LayerCount: 2
Fore
SplineSet
67 690 m 0,0,1
 77 700 77 700 93 700 c 0,2,3
 128 700 128 700 155 668 c 0,4,5
 184 633 184 633 208 513 c 0,6,7
 217 471 217 471 220 471 c 0,8,9
 222 471 222 471 240 514 c 0,10,11
 262 567 262 567 289 609.5 c 128,-1,12
 316 652 316 652 335 665 c 0,13,14
 344 671 344 671 350 671 c 0,15,16
 362 671 362 671 370 656 c 128,-1,17
 378 641 378 641 378 623 c 0,18,19
 378 591 378 591 337 486 c 2,20,-1
 315 432 l 1,21,-1
 326 424 l 2,22,23
 351 406 351 406 384 361.5 c 128,-1,24
 417 317 417 317 440 269 c 0,25,26
 467 213 467 213 467 179 c 0,27,28
 467 128 467 128 429 128 c 0,29,30
 417 128 417 128 408 136 c 128,-1,31
 399 144 399 144 381 171 c 0,32,33
 364 197 364 197 352.5 211 c 128,-1,34
 341 225 341 225 321 246.5 c 128,-1,35
 301 268 301 268 280 292 c 0,36,37
 227 352 227 352 223 352 c 0,38,39
 220 352 220 352 220 332 c 2,40,-1
 220 318 l 2,41,42
 220 225 220 225 190 166 c 0,43,44
 162 114 162 114 132 114 c 0,45,46
 122 114 122 114 116 119 c 0,47,48
 98 132 98 132 98 161 c 0,49,50
 98 180 98 180 104 219 c 0,51,52
 113 286 113 286 113 348 c 0,53,54
 113 407 113 407 107 444 c 128,-1,55
 101 481 101 481 79 549 c 0,56,57
 54 629 54 629 54 660 c 0,58,59
 54 667 54 667 55 670 c 0,60,61
 59 682 59 682 67 690 c 0,0,1
EndSplineSet
EndChar

StartChar: l
Encoding: 108 108 60
Width: 465
Flags: W
LayerCount: 2
Fore
SplineSet
58 667 m 0,0,1
 77 703 77 703 101 703 c 0,2,3
 112 703 112 703 122 692 c 0,4,5
 141 671 141 671 151 597 c 0,6,7
 159 530 159 530 159 470 c 0,8,9
 159 426 159 426 156 363 c 0,10,11
 156 346 156 346 154.5 311 c 128,-1,12
 153 276 153 276 153 265 c 0,13,14
 153 250 153 250 154 248 c 0,15,16
 158 236 158 236 165 232 c 128,-1,17
 172 228 172 228 209 228 c 0,18,19
 265 228 265 228 307 235 c 0,20,21
 341 239 341 239 350 239 c 0,22,23
 381 239 381 239 401 222 c 0,24,25
 410 213 410 213 410 206 c 0,26,27
 410 198 410 198 403 187 c 0,28,29
 389 162 389 162 309 149 c 0,30,31
 205 132 205 132 141 132 c 0,32,33
 70 132 70 132 60 151 c 0,34,35
 57 157 57 157 53.5 299.5 c 128,-1,36
 50 442 50 442 50 553 c 0,37,38
 50 625 50 625 51 640.5 c 128,-1,39
 52 656 52 656 58 667 c 0,0,1
EndSplineSet
EndChar

StartChar: m
Encoding: 109 109 61
Width: 682
Flags: W
LayerCount: 2
Fore
SplineSet
408 687 m 0,0,1
 420 699 420 699 429 699 c 0,2,3
 440 699 440 699 463 676 c 0,4,5
 486 651 486 651 489 643 c 0,6,7
 493 632 493 632 520 539 c 0,8,9
 548 443 548 443 576 358 c 0,10,11
 628 201 628 201 628 156 c 0,12,13
 628 138 628 138 622 125 c 0,14,15
 612 101 612 101 594 101 c 0,16,17
 568 101 568 101 544 148 c 0,18,19
 511 212 511 212 477 316.5 c 128,-1,20
 443 421 443 421 422 514 c 2,21,-1
 418 531 l 1,22,-1
 404 497 l 2,23,24
 378 426 378 426 355 396 c 0,25,26
 345 383 345 383 333 383 c 0,27,28
 325 383 325 383 316 389 c 0,29,30
 293 405 293 405 253 487 c 2,31,-1
 231 531 l 1,32,-1
 227 516 l 2,33,34
 217 480 217 480 188 346 c 0,35,36
 161 218 161 218 145 168 c 0,37,38
 135 137 135 137 118.5 119 c 128,-1,39
 102 101 102 101 86 101 c 0,40,41
 56 101 56 101 53 150 c 0,42,43
 53 152 53 152 52.5 157 c 128,-1,44
 52 162 52 162 52 165 c 0,45,46
 52 182 52 182 67 288 c 0,47,48
 74 345 74 345 102 445 c 128,-1,49
 130 545 130 545 152 594 c 0,50,51
 168 630 168 630 193 663 c 128,-1,52
 218 696 218 696 229 696 c 0,53,54
 251 696 251 696 308 615 c 2,55,-1
 338 571 l 1,56,-1
 350 597 l 2,57,58
 375 652 375 652 408 687 c 0,0,1
EndSplineSet
EndChar

StartChar: n
Encoding: 110 110 62
Width: 476
Flags: W
LayerCount: 2
Fore
SplineSet
379 699 m 0,0,1
 389 707 389 707 395 707 c 0,2,3
 413 707 413 707 417.5 662 c 128,-1,4
 422 617 422 617 425 493 c 0,5,6
 425 481 425 481 425.5 457.5 c 128,-1,7
 426 434 426 434 426 423 c 0,8,9
 426 281 426 281 413 207 c 0,10,11
 409 181 409 181 398.5 156.5 c 128,-1,12
 388 132 388 132 380 127 c 0,13,14
 377 125 377 125 371 125 c 0,15,16
 319 125 319 125 186 381 c 1,17,-1
 153 447 l 1,18,-1
 155 383 l 2,19,20
 157 318 157 318 160 313 c 0,21,22
 164 305 164 305 164 279 c 0,23,24
 164 261 164 261 160 221 c 0,25,26
 152 153 152 153 117 128 c 0,27,28
 103 117 103 117 89 117 c 0,29,30
 70 117 70 117 60 141 c 0,31,32
 50 162 50 162 50 198 c 0,33,34
 50 226 50 226 54 259 c 0,35,36
 61 326 61 326 61 441 c 0,37,38
 61 504 61 504 60 539 c 0,39,40
 59 560 59 560 59 589 c 0,41,42
 59 621 59 621 65 636 c 0,43,44
 78 668 78 668 98 668 c 0,45,46
 112 668 112 668 125 654 c 0,47,48
 157 619 157 619 262 434 c 0,49,50
 322 327 322 327 328 327 c 0,51,52
 329 327 329 327 329 328 c 0,53,54
 329 330 329 330 330 351.5 c 128,-1,55
 331 373 331 373 332 410.5 c 128,-1,56
 333 448 333 448 334 483 c 2,57,-1
 338 628 l 1,58,-1
 353 660 l 2,59,60
 368 692 368 692 379 699 c 0,0,1
EndSplineSet
EndChar

StartChar: o
Encoding: 111 111 63
Width: 505
Flags: W
LayerCount: 2
Fore
SplineSet
302 593 m 0,0,1
 283 606 283 606 257 606 c 0,2,3
 215 606 215 606 190 579 c 0,4,5
 172 559 172 559 160.5 516 c 128,-1,6
 149 473 149 473 149 426 c 0,7,8
 149 386 149 386 158 354 c 0,9,10
 177 287 177 287 209.5 247 c 128,-1,11
 242 207 242 207 282 203 c 1,12,-1
 290 203 l 2,13,14
 351 203 351 203 363 296 c 0,15,16
 366 321 366 321 366 357 c 0,17,18
 366 444 366 444 355 490 c 0,19,20
 335 570 335 570 302 593 c 0,0,1
178 686 m 0,21,22
 192 691 192 691 224 691 c 0,23,24
 258 691 258 691 273 686 c 0,25,26
 391 654 391 654 430 520 c 0,27,28
 451 442 451 442 451 363 c 0,29,30
 451 328 451 328 447 307 c 0,31,32
 437 246 437 246 404.5 194 c 128,-1,33
 372 142 372 142 334 123 c 0,34,35
 312 113 312 113 292 113 c 0,36,37
 219 113 219 113 142 193 c 0,38,39
 78 260 78 260 59 348 c 0,40,41
 54 369 54 369 54 419 c 0,42,43
 54 493 54 493 65 537 c 0,44,45
 95 660 95 660 178 686 c 0,21,22
EndSplineSet
EndChar

StartChar: p
Encoding: 112 112 64
Width: 448
Flags: W
LayerCount: 2
Fore
SplineSet
269 605 m 0,0,1
 241 611 241 611 209 611 c 2,2,-1
 174 611 l 1,3,-1
 171 575 l 2,4,5
 169 537 169 537 169 503 c 2,6,-1
 169 467 l 1,7,-1
 201 469 l 2,8,9
 259 473 259 473 291.5 492 c 128,-1,10
 324 511 324 511 327 541 c 2,11,-1
 327 548 l 2,12,13
 327 592 327 592 269 605 c 0,0,1
158 695 m 0,14,15
 178 697 178 697 188 697 c 0,16,17
 254 697 254 697 319 667 c 0,18,19
 365 645 365 645 380 621 c 128,-1,20
 395 597 395 597 395 545 c 0,21,22
 395 504 395 504 384 480 c 0,23,24
 347 399 347 399 208 388 c 0,25,26
 175 386 175 386 170 379 c 0,27,28
 168 375 168 375 164 344 c 0,29,30
 149 178 149 178 135 146 c 0,31,32
 123 117 123 117 98 117 c 0,33,34
 75 117 75 117 61 143 c 0,35,36
 51 162 51 162 51 216 c 0,37,38
 51 286 51 286 67 485 c 0,39,40
 77 607 77 607 80 629.5 c 128,-1,41
 83 652 83 652 90 662 c 0,42,43
 109 690 109 690 158 695 c 0,14,15
EndSplineSet
EndChar

StartChar: q
Encoding: 113 113 65
Width: 524
Flags: W
LayerCount: 2
Fore
SplineSet
302 593 m 0,0,1
 283 606 283 606 257 606 c 0,2,3
 215 606 215 606 190 579 c 0,4,5
 171 559 171 559 159.5 515.5 c 128,-1,6
 148 472 148 472 148 424 c 0,7,8
 148 386 148 386 157 354 c 0,9,10
 176 286 176 286 212 244 c 128,-1,11
 248 202 248 202 287 202 c 2,12,-1
 293 202 l 2,13,14
 317 205 317 205 317 213 c 0,15,16
 317 216 317 216 312 226 c 0,17,18
 306 235 306 235 306 243 c 0,19,20
 306 256 306 256 317.5 265 c 128,-1,21
 329 274 329 274 344 274 c 2,22,-1
 347 274 l 1,23,-1
 360 273 l 1,24,-1
 363 296 l 2,25,26
 365 316 365 316 365 357 c 2,27,-1
 365 387 l 2,28,29
 364 456 364 456 355 490 c 0,30,31
 335 570 335 570 302 593 c 0,0,1
178 686 m 0,32,33
 192 691 192 691 224 691 c 0,34,35
 258 691 258 691 273 686 c 0,36,37
 346 667 346 667 386 613 c 128,-1,38
 426 559 426 559 444 457 c 0,39,40
 451 416 451 416 451 371 c 0,41,42
 451 299 451 299 431 246 c 2,43,-1
 421 220 l 1,44,-1
 434 202 l 2,45,46
 470 155 470 155 470 124 c 0,47,48
 470 111 470 111 463 106 c 128,-1,49
 456 101 456 101 437 101 c 0,50,51
 419 101 419 101 405 116 c 0,52,53
 393 128 393 128 383 142 c 2,54,-1
 375 153 l 1,55,-1
 360 140 l 2,56,57
 328 113 328 113 292 113 c 0,58,59
 250 113 250 113 195 147 c 0,60,61
 172 161 172 161 143 191.5 c 128,-1,62
 114 222 114 222 99 247 c 0,63,64
 54 319 54 319 54 417 c 2,65,-1
 54 442 l 2,66,67
 56 536 56 536 87 601.5 c 128,-1,68
 118 667 118 667 178 686 c 0,32,33
EndSplineSet
EndChar

StartChar: r
Encoding: 114 114 66
Width: 453
Flags: W
LayerCount: 2
Fore
SplineSet
265 603 m 0,0,1
 235 608 235 608 194 608 c 0,2,3
 178 608 178 608 177 607 c 128,-1,4
 176 606 176 606 172 535 c 2,5,-1
 170 464 l 1,6,-1
 194 464 l 2,7,8
 245 464 245 464 283 482 c 128,-1,9
 321 500 321 500 329 527 c 0,10,11
 331 533 331 533 331 544 c 0,12,13
 331 591 331 591 265 603 c 0,0,1
131 688 m 0,14,15
 156 695 156 695 175 695 c 0,16,17
 178 695 178 695 186.5 694.5 c 128,-1,18
 195 694 195 694 200 694 c 0,19,20
 273 691 273 691 334 660 c 0,21,22
 373 640 373 640 386.5 615 c 128,-1,23
 400 590 400 590 400 539 c 0,24,25
 400 502 400 502 391 478 c 0,26,27
 362 407 362 407 249 386 c 2,28,-1
 205 378 l 1,29,-1
 228 354 l 2,30,31
 252 328 252 328 267 310 c 0,32,33
 358 200 358 200 358 137 c 0,34,35
 358 109 358 109 334 109 c 0,36,37
 326 109 326 109 311 114 c 0,38,39
 295 120 295 120 281 136 c 128,-1,40
 267 152 267 152 227 208 c 0,41,42
 165 294 165 294 162 294 c 0,43,44
 161 294 161 294 157 264 c 0,45,46
 149 168 149 168 137 136.5 c 128,-1,47
 125 105 125 105 98 105 c 0,48,49
 85 105 85 105 72.5 117.5 c 128,-1,50
 60 130 60 130 55 146 c 0,51,52
 51 166 51 166 51 205 c 0,53,54
 51 229 51 229 55 315 c 0,55,56
 70 565 70 565 80 632 c 0,57,58
 84 656 84 656 94.5 668 c 128,-1,59
 105 680 105 680 131 688 c 0,14,15
EndSplineSet
EndChar

StartChar: s
Encoding: 115 115 67
Width: 509
Flags: W
LayerCount: 2
Fore
SplineSet
196 692 m 0,0,1
 222 700 222 700 258 700 c 128,-1,2
 294 700 294 700 326 692 c 0,3,4
 387 676 387 676 426 645 c 0,5,6
 440 634 440 634 440 618 c 0,7,8
 440 608 440 608 434 593 c 0,9,10
 422 565 422 565 386 565 c 0,11,12
 363 565 363 565 324 576 c 0,13,14
 271 591 271 591 250 591 c 0,15,16
 238 591 238 591 228 588 c 0,17,18
 205 581 205 581 191 560 c 128,-1,19
 177 539 177 539 177 514 c 0,20,21
 177 475 177 475 208 457 c 0,22,23
 230 445 230 445 303 436 c 0,24,25
 354 430 354 430 375 423 c 128,-1,26
 396 416 396 416 411 400 c 0,27,28
 455 355 455 355 455 276 c 0,29,30
 455 198 455 198 412 161 c 0,31,32
 374 129 374 129 300 110 c 0,33,34
 268 102 268 102 252 102 c 0,35,36
 248 102 248 102 220 104 c 0,37,38
 162 110 162 110 117 130.5 c 128,-1,39
 72 151 72 151 61 176 c 0,40,41
 54 191 54 191 54 208 c 0,42,43
 54 227 54 227 65 239.5 c 128,-1,44
 76 252 76 252 95 252 c 0,45,46
 106 252 106 252 168 230 c 0,47,48
 228 209 228 209 262 207 c 2,49,-1
 295 204 l 1,50,-1
 320 223 l 2,51,52
 370 262 370 262 370 291 c 0,53,54
 370 303 370 303 365 309 c 0,55,56
 340 342 340 342 228 364 c 0,57,58
 184 372 184 372 160 384 c 0,59,60
 124 402 124 402 96.5 437 c 128,-1,61
 69 472 69 472 69 500 c 0,62,63
 69 517 69 517 77.5 551 c 128,-1,64
 86 585 86 585 96 605 c 0,65,66
 127 670 127 670 196 692 c 0,0,1
EndSplineSet
EndChar

StartChar: t
Encoding: 116 116 68
Width: 576
Flags: W
LayerCount: 2
Fore
SplineSet
214 711 m 0,0,1
 254 714 254 714 303 714 c 128,-1,2
 352 714 352 714 394 711 c 0,3,4
 521 701 521 701 521 668 c 0,5,6
 521 662 521 662 518 655 c 0,7,8
 503 618 503 618 393 595 c 2,9,-1
 359 589 l 1,10,-1
 361 412 l 1,11,-1
 361 342 l 2,12,13
 361 243 361 243 358 207 c 128,-1,14
 355 171 355 171 345 154 c 0,15,16
 327 122 327 122 303 122 c 2,17,-1
 299 122 l 1,18,19
 283 126 283 126 269 151.5 c 128,-1,20
 255 177 255 177 251 211 c 0,21,22
 251 214 251 214 248 235 c 128,-1,23
 245 256 245 256 243 266 c 0,24,25
 231 340 231 340 231 491 c 2,26,-1
 231 524 l 1,27,-1
 233 595 l 1,28,-1
 196 599 l 2,29,30
 136 606 136 606 96 622 c 128,-1,31
 56 638 56 638 56 655 c 0,32,33
 56 675 56 675 99 690 c 128,-1,34
 142 705 142 705 214 711 c 0,0,1
EndSplineSet
EndChar

StartChar: u
Encoding: 117 117 69
Width: 516
Flags: W
LayerCount: 2
Fore
SplineSet
365 700 m 0,0,1
 378 711 378 711 389 711 c 0,2,3
 407 711 407 711 426 690.5 c 128,-1,4
 445 670 445 670 454 640 c 0,5,6
 464 607 464 607 464 484 c 0,7,8
 464 360 464 360 454 300 c 0,9,10
 443 243 443 243 411.5 189 c 128,-1,11
 380 135 380 135 347 119 c 0,12,13
 322 108 322 108 293 108 c 0,14,15
 258 108 258 108 220 123 c 0,16,17
 92 173 92 173 79 329 c 0,18,19
 75 362 75 362 73 366 c 0,20,21
 69 375 69 375 61.5 470 c 128,-1,22
 54 565 54 565 54 603 c 0,23,24
 54 644 54 644 57.5 661 c 128,-1,25
 61 678 61 678 74 691 c 0,26,27
 89 706 89 706 107 706 c 0,28,29
 135 706 135 706 150 677 c 0,30,31
 164 649 164 649 170 520 c 0,32,33
 176 366 176 366 184 311.5 c 128,-1,34
 192 257 192 257 210 237 c 0,35,36
 230 216 230 216 258 216 c 0,37,38
 276 216 276 216 290 227 c 0,39,40
 342 271 342 271 342 517 c 0,41,42
 342 545 342 545 340 611 c 2,43,-1
 340 629 l 2,44,45
 340 678 340 678 365 700 c 0,0,1
EndSplineSet
EndChar

StartChar: v
Encoding: 118 118 70
Width: 471
Flags: W
LayerCount: 2
Fore
SplineSet
54 646 m 0,0,1
 54 670 54 670 62.5 688.5 c 128,-1,2
 71 707 71 707 86 707 c 0,3,4
 97 707 97 707 109 696 c 0,5,6
 131 676 131 676 166 586 c 0,7,8
 205 486 205 486 230 354 c 0,9,10
 244 279 244 279 247 279 c 0,11,12
 252 279 252 279 293 477 c 0,13,14
 316 586 316 586 328 625 c 128,-1,15
 340 664 340 664 356 682 c 0,16,17
 374 701 374 701 388 701 c 0,18,19
 403 701 403 701 411 691 c 0,20,21
 418 681 418 681 418 641 c 0,22,23
 418 565 418 565 396 455 c 128,-1,24
 374 345 374 345 338 242 c 0,25,26
 319 188 319 188 291.5 144.5 c 128,-1,27
 264 101 264 101 249 101 c 0,28,29
 240 101 240 101 219 120 c 128,-1,30
 198 139 198 139 191 153 c 0,31,32
 187 163 187 163 155 275 c 0,33,34
 122 390 122 390 102 453 c 0,35,36
 54 602 54 602 54 646 c 0,0,1
EndSplineSet
EndChar

StartChar: w
Encoding: 119 119 71
Width: 665
Flags: W
LayerCount: 2
Fore
SplineSet
72 700 m 0,0,1
 80 704 80 704 85 704 c 0,2,3
 95 704 95 704 110 691 c 0,4,5
 120 683 120 683 133.5 659.5 c 128,-1,6
 147 636 147 636 152 619 c 0,7,8
 163 591 163 591 168 580 c 0,9,10
 189 531 189 531 215 443.5 c 128,-1,11
 241 356 241 356 251 297 c 0,12,13
 256 273 256 273 258 273 c 0,14,15
 261 275 261 275 272 305 c 128,-1,16
 283 335 283 335 299.5 370.5 c 128,-1,17
 316 406 316 406 323 412 c 0,18,19
 331 419 331 419 344 417 c 0,20,21
 358 415 358 415 373.5 394.5 c 128,-1,22
 389 374 389 374 413 324 c 0,23,24
 437 275 437 275 441 275 c 128,-1,25
 445 275 445 275 484 468 c 0,26,27
 509 592 509 592 522.5 632 c 128,-1,28
 536 672 536 672 557 691 c 0,29,30
 570 703 570 703 583 703 c 0,31,32
 598 703 598 703 608 685 c 0,33,34
 613 675 613 675 613 649 c 0,35,36
 613 612 613 612 604 542 c 0,37,38
 593 461 593 461 566 356 c 128,-1,39
 539 251 539 251 514 197 c 0,40,41
 505 177 505 177 485 146.5 c 128,-1,42
 465 116 465 116 455 107 c 0,43,44
 448 102 448 102 443 102 c 0,45,46
 419 102 419 102 367 181 c 0,47,48
 340 225 340 225 336 225 c 0,49,50
 334 225 334 225 326 206 c 0,51,52
 307 159 307 159 274 117 c 0,53,54
 259 97 259 97 248 97 c 0,55,56
 238 97 238 97 215 120 c 0,57,58
 196 139 196 139 187 162 c 128,-1,59
 178 185 178 185 152 281 c 0,60,61
 122 387 122 387 113 414 c 0,62,63
 54 601 54 601 54 648 c 0,64,65
 54 663 54 663 59 678 c 0,66,67
 66 696 66 696 72 700 c 0,0,1
EndSplineSet
EndChar

StartChar: x
Encoding: 120 120 72
Width: 503
Flags: W
LayerCount: 2
Fore
SplineSet
66 705 m 0,0,1
 74 715 74 715 85 715 c 0,2,3
 94 715 94 715 108 707 c 0,4,5
 137 691 137 691 154 644 c 0,6,7
 166 609 166 609 195 541 c 2,8,-1
 229 461 l 1,9,-1
 242 492 l 2,10,11
 255 523 255 523 283 573 c 128,-1,12
 311 623 311 623 330 648 c 0,13,14
 368 699 368 699 393 699 c 0,15,16
 407 699 407 699 414 683 c 0,17,18
 420 672 420 672 420 665 c 0,19,20
 420 660 420 660 417 649 c 0,21,22
 404 600 404 600 330 478 c 0,23,24
 297 425 297 425 297 422 c 0,25,26
 297 415 297 415 368 322 c 0,27,28
 400 280 400 280 424 228 c 128,-1,29
 448 176 448 176 448 148 c 0,30,31
 448 110 448 110 418 110 c 0,32,33
 386 110 386 110 365 152 c 0,34,35
 357 167 357 167 309.5 238.5 c 128,-1,36
 262 310 262 310 245 332 c 2,37,-1
 232 349 l 1,38,-1
 206 298 l 2,39,40
 179 242 179 242 171 213 c 0,41,42
 157 167 157 167 134 128.5 c 128,-1,43
 111 90 111 90 98 90 c 0,44,45
 69 90 69 90 69 132 c 0,46,47
 69 159 69 159 82 194 c 0,48,49
 145 373 145 373 147 382 c 2,50,-1
 154 409 l 1,51,-1
 122 473 l 2,52,53
 71 573 71 573 59 636 c 0,54,55
 55 655 55 655 55 670 c 0,56,57
 55 691 55 691 66 705 c 0,0,1
EndSplineSet
EndChar

StartChar: y
Encoding: 121 121 73
Width: 425
Flags: W
LayerCount: 2
Fore
SplineSet
330 728 m 0,0,1
 338 731 338 731 344 731 c 0,2,3
 371 731 371 731 371 672 c 0,4,5
 371 651 371 651 366 613 c 0,6,7
 338 414 338 414 282 247 c 0,8,9
 225 73 225 73 192 73 c 0,10,11
 189 73 189 73 187 74 c 0,12,13
 165 87 165 87 165 145 c 0,14,15
 165 184 165 184 187 267 c 2,16,-1
 209 352 l 1,17,-1
 136 500 l 2,18,19
 60 653 60 653 58 664 c 0,20,21
 56 674 56 674 56 680 c 0,22,23
 56 699 56 699 66.5 712.5 c 128,-1,24
 77 726 77 726 93 726 c 0,25,26
 103 726 103 726 118 715 c 128,-1,27
 133 704 133 704 167 655.5 c 128,-1,28
 201 607 201 607 222 564 c 0,29,30
 242 525 242 525 246 525 c 2,31,-1
 248 534 l 2,32,33
 251 544 251 544 255 562 c 128,-1,34
 259 580 259 580 263 594 c 0,35,36
 280 660 280 660 294.5 689.5 c 128,-1,37
 309 719 309 719 330 728 c 0,0,1
EndSplineSet
EndChar

StartChar: z
Encoding: 122 122 74
Width: 500
Flags: W
LayerCount: 2
Fore
SplineSet
118 707 m 0,0,1
 188 729 188 729 250 729 c 2,2,-1
 254 729 l 2,3,4
 315 729 315 729 351 717 c 0,5,6
 390 705 390 705 390 663 c 0,7,8
 390 644 390 644 387.5 629.5 c 128,-1,9
 385 615 385 615 378.5 595 c 128,-1,10
 372 575 372 575 369 562 c 0,11,12
 334 431 334 431 242 222 c 1,13,-1
 232 201 l 1,14,-1
 304 201 l 2,15,16
 406 201 406 201 435 179 c 0,17,18
 444 171 444 171 444 160 c 0,19,20
 444 140 444 140 419 120 c 0,21,22
 404 108 404 108 355 105 c 0,23,24
 283 100 283 100 241 95 c 0,25,26
 169 87 169 87 146 87 c 0,27,28
 126 87 126 87 120 89 c 128,-1,29
 114 91 114 91 105 100 c 0,30,31
 91 114 91 114 91 128 c 0,32,33
 91 150 91 150 140 252 c 0,34,35
 186 348 186 348 233 486 c 0,36,37
 259 565 259 565 276 605 c 0,38,39
 285 627 285 627 285 628 c 0,40,41
 283 629 283 629 281 629 c 0,42,43
 270 629 270 629 195.5 619.5 c 128,-1,44
 121 610 121 610 105 610 c 0,45,46
 83 610 83 610 70 623 c 0,47,48
 56 637 56 637 56 652 c 0,49,50
 56 666 56 666 69 682 c 0,51,52
 82 697 82 697 118 707 c 0,0,1
EndSplineSet
EndChar

StartChar: hyphen
Encoding: 45 45 76
Width: 544
Flags: W
LayerCount: 2
Fore
SplineSet
129 390 m 0,0,1
 88.2314453125 393.638671875 88.2314453125 393.638671875 71.140625 421.33203125 c 0,2,3
 52.201171875 452.021484375 52.201171875 452.021484375 91.58203125 473.07421875 c 0,4,5
 119.176757812 487.827148438 119.176757812 487.827148438 171.440429688 491.911132812 c 0,6,7
 234.630859375 492.690429688 234.630859375 492.690429688 390.536132812 489.440429688 c 0,8,9
 491.67578125 487.331054688 491.67578125 487.331054688 496.240234375 440.848632812 c 0,10,11
 498.803710938 414.747070312 498.803710938 414.747070312 475.2109375 397.291992188 c 0,12,13
 468.581054688 392.38671875 468.581054688 392.38671875 462.727539062 391.677734375 c 0,14,15
 437.266601562 388.590820312 437.266601562 388.590820312 316.133789062 385.796875 c 0,16,17
 204.87890625 383.234375 204.87890625 383.234375 129 390 c 0,0,1
129 390 m 1,18,-1
 128.95703125 389.520507812 l 1,19,-1
 129 390 l 1,18,-1
171.440429688 491.911132812 m 1,20,-1
 171.432617188 492.39453125 l 1,21,-1
 171.440429688 491.911132812 l 1,20,-1
316.133789062 385.796875 m 1,22,-1
 316.133789062 385.796875 l 1,22,-1
129.04296875 390.474609375 m 1,23,-1
 128.95703125 389.520507812 l 1,24,25
 103.116210938 391.833007812 103.116210938 391.833007812 84.283203125 406.416992188 c 128,-1,26
 65.4951171875 420.963867188 65.4951171875 420.963867188 65.228515625 438.666015625 c 0,27,28
 64.931640625 458.284179688 64.931640625 458.284179688 88.8544921875 472.106445312 c 0,29,30
 116.522460938 488.100585938 116.522460938 488.100585938 171.40234375 492.390625 c 1,31,-1
 171.478515625 491.436523438 l 1,32,33
 116.814453125 487.161132812 116.814453125 487.161132812 89.333984375 471.279296875 c 0,34,35
 65.8984375 457.732421875 65.8984375 457.732421875 66.1865234375 438.681640625 c 0,36,37
 66.4462890625 421.442382812 66.4462890625 421.442382812 84.8701171875 407.17578125 c 128,-1,38
 103.486328125 392.760742188 103.486328125 392.760742188 129.04296875 390.474609375 c 1,23,-1
171.440429688 491.911132812 m 1,39,-1
 171.448242188 491.432617188 l 1,40,-1
 171.490234375 491.436523438 l 2,41,42
 171.689453125 491.436523438 171.689453125 491.436523438 172.1875 491.444335938 c 0,43,44
 172.344726562 491.4453125 172.344726562 491.4453125 173.108398438 491.451171875 c 128,-1,45
 173.87109375 491.458007812 173.87109375 491.458007812 174.452148438 491.462890625 c 0,46,47
 177.974609375 491.490234375 177.974609375 491.490234375 183.708007812 491.504882812 c 0,48,49
 200.209960938 491.55078125 200.209960938 491.55078125 222.405273438 491.420898438 c 0,50,51
 292.767578125 490.999023438 292.767578125 490.999023438 390.528320312 488.9609375 c 1,52,-1
 390.547851562 489.918945312 l 1,53,54
 292.783203125 491.95703125 292.783203125 491.95703125 222.413085938 492.37890625 c 0,55,56
 200.209960938 492.508789062 200.209960938 492.508789062 183.704101562 492.462890625 c 0,57,58
 177.69140625 492.4453125 177.69140625 492.4453125 174.444335938 492.420898438 c 0,59,60
 173.864257812 492.416015625 173.864257812 492.416015625 173.106445312 492.409179688 c 128,-1,61
 172.34765625 492.40234375 172.34765625 492.40234375 172.1796875 492.401367188 c 0,62,-1
 171.620117188 492.39453125 l 1,63,-1
 171.444335938 492.390625 l 1,64,-1
 171.432617188 492.390625 l 1,65,-1
 171.440429688 491.911132812 l 1,39,-1
462.669921875 392.15234375 m 1,66,-1
 462.78515625 391.202148438 l 1,67,68
 437.309570312 388.114257812 437.309570312 388.114257812 316.145507812 385.317382812 c 1,69,-1
 316.122070312 386.275390625 l 1,70,71
 437.237304688 389.069335938 437.237304688 389.069335938 462.669921875 392.15234375 c 1,66,-1
316.122070312 386.275390625 m 1,72,-1
 316.145507812 385.317382812 l 1,73,74
 204.879882812 382.754882812 204.879882812 382.754882812 128.95703125 389.520507812 c 1,75,-1
 129.041992188 390.474609375 l 1,76,77
 204.905273438 383.713867188 204.905273438 383.713867188 316.122070312 386.275390625 c 1,72,-1
390.528320312 488.9609375 m 1,78,-1
 390.547851562 489.918945312 l 1,79,80
 444.754882812 488.786132812 444.754882812 488.786132812 472.091796875 473.711914062 c 0,81,82
 494.823242188 461.176757812 494.823242188 461.176757812 496.735351562 440.719726562 c 0,83,84
 498.3125 423.8203125 498.3125 423.8203125 486.225585938 407.711914062 c 0,85,86
 474.932617188 392.67578125 474.932617188 392.67578125 462.78515625 391.202148438 c 1,87,-1
 462.669921875 392.15234375 l 1,88,89
 474.413085938 393.576171875 474.413085938 393.576171875 485.458984375 408.287109375 c 0,90,91
 497.326171875 424.096679688 497.326171875 424.096679688 495.78125 440.631835938 c 0,92,93
 493.918945312 460.58203125 493.918945312 460.58203125 471.627929688 472.873046875 c 0,94,95
 444.484375 487.837890625 444.484375 487.837890625 390.528320312 488.9609375 c 1,78,-1
EndSplineSet
EndChar

StartChar: plus
Encoding: 43 43 77
Width: 553
Flags: W
LayerCount: 2
Fore
SplineSet
274.58203125 632.403320312 m 0,0,1
 296.588867188 645.78515625 296.588867188 645.78515625 319.543945312 630.224609375 c 0,2,3
 334.709960938 619.950195312 334.709960938 619.950195312 337.986328125 604.260742188 c 128,-1,4
 341.26171875 588.5703125 341.26171875 588.5703125 338.807617188 537.965820312 c 2,5,-1
 336 480 l 1,6,-1
 356.96484375 479.931640625 l 2,7,8
 457.701171875 479.608398438 457.701171875 479.608398438 485.96875 449.344726562 c 0,9,10
 495.951171875 438.66015625 495.951171875 438.66015625 494.64453125 422.704101562 c 128,-1,11
 493.337890625 406.747070312 493.337890625 406.747070312 481.420898438 393.778320312 c 1,12,13
 467.59765625 387.334960938 467.59765625 387.334960938 458.336914062 384.4296875 c 128,-1,14
 448.889648438 381.46484375 448.889648438 381.46484375 434.727539062 379.77734375 c 128,-1,15
 420.565429688 378.088867188 420.565429688 378.088867188 411.127929688 377.883789062 c 2,16,-1
 401.689453125 377.678710938 l 2,17,18
 334.728515625 375.469726562 334.728515625 375.469726562 332.251953125 373 c 128,-1,19
 329.78515625 370.532226562 329.78515625 370.532226562 324.114257812 325.486328125 c 0,20,21
 318.499023438 280.861328125 318.499023438 280.861328125 312.587890625 261.0390625 c 128,-1,22
 306.676757812 241.217773438 306.676757812 241.217773438 295.620117188 229.938476562 c 0,23,24
 273.272460938 207.143554688 273.272460938 207.143554688 252.322265625 217.419921875 c 128,-1,25
 231.37109375 227.696289062 231.37109375 227.696289062 223.543945312 265.291015625 c 0,26,27
 219.276367188 285.80859375 219.276367188 285.80859375 220.466796875 329.291015625 c 2,28,-1
 221.650390625 372.78515625 l 1,29,-1
 177.815429688 375.306640625 l 2,30,31
 135.239257812 377.751953125 135.239257812 377.751953125 113.587890625 383.801757812 c 128,-1,32
 91.9375 389.850585938 91.9375 389.850585938 79.7900390625 402.693359375 c 0,33,34
 61.8720703125 421.641601562 61.8720703125 421.641601562 70.0419921875 438.775390625 c 128,-1,35
 78.212890625 455.909179688 78.212890625 455.909179688 111.16015625 468.475585938 c 0,36,37
 133.99609375 477.177734375 133.99609375 477.177734375 182.3671875 479.087890625 c 2,38,-1
 230.7578125 480.9921875 l 1,39,-1
 233.018554688 502.352539062 l 2,40,41
 239.420898438 562.846679688 239.420898438 562.846679688 248.975585938 592.744140625 c 128,-1,42
 258.530273438 622.641601562 258.530273438 622.641601562 274.58203125 632.403320312 c 0,0,1
EndSplineSet
EndChar

StartChar: slash
Encoding: 47 47 78
Width: 474
Flags: W
LayerCount: 2
Fore
SplineSet
266.989257812 651.85546875 m 0,0,1
 294.099609375 702.58984375 294.099609375 702.58984375 329.530273438 718.358398438 c 0,2,3
 363.8046875 733.612304688 363.8046875 733.612304688 368.684570312 695.166015625 c 0,4,5
 374.068359375 652.763671875 374.068359375 652.763671875 336.790039062 559.078125 c 1,6,7
 298.009765625 472.934570312 298.009765625 472.934570312 197.448242188 262.188476562 c 0,8,9
 134.83984375 130.984375 134.83984375 130.984375 88.6630859375 134.806640625 c 0,10,11
 64.740234375 136.787109375 64.740234375 136.787109375 58.4716796875 169.70703125 c 0,12,13
 55.44921875 185.580078125 55.44921875 185.580078125 59.8896484375 197.758789062 c 0,14,15
 72.8876953125 233.407226562 72.8876953125 233.407226562 146 399 c 0,16,17
 213.13671875 551.05078125 213.13671875 551.05078125 266.989257812 651.85546875 c 0,0,1
266.989257812 651.85546875 m 1,18,-1
 266.567382812 652.081054688 l 1,19,-1
 266.989257812 651.85546875 l 1,18,-1
336.790039062 559.078125 m 1,20,-1
 337.2265625 558.880859375 l 1,21,-1
 336.790039062 559.078125 l 1,20,-1
146 399 m 1,22,-1
 145.563476562 399.19140625 l 1,23,-1
 146 399 l 1,22,-1
267.4140625 651.629882812 m 1,24,-1
 266.567382812 652.081054688 l 1,25,26
 284.849609375 686.293945312 284.849609375 686.293945312 310.348632812 706.811523438 c 0,27,28
 322.315429688 716.44140625 322.315429688 716.44140625 333.145507812 720.329101562 c 0,29,30
 344.416992188 724.376953125 344.416992188 724.376953125 352.736328125 721.5546875 c 0,31,32
 371.5390625 715.173828125 371.5390625 715.173828125 369.647460938 677.921875 c 0,33,34
 367.459960938 634.861328125 367.459960938 634.861328125 337.234375 558.900390625 c 1,35,-1
 336.344726562 559.254882812 l 1,36,37
 366.516601562 635.081054688 366.516601562 635.081054688 368.690429688 677.969726562 c 0,38,39
 370.54296875 714.500976562 370.54296875 714.500976562 352.42578125 720.647460938 c 0,40,41
 344.427734375 723.362304688 344.427734375 723.362304688 333.467773438 719.427734375 c 0,42,43
 322.790039062 715.59375 322.790039062 715.59375 310.946289062 706.065429688 c 0,44,45
 285.6015625 685.670898438 285.6015625 685.670898438 267.4140625 651.629882812 c 1,24,-1
336.790039062 559.078125 m 1,46,-1
 337.2265625 558.879882812 l 1,47,-1
 337.21875 558.865234375 l 1,48,-1
 337.111328125 558.627929688 l 2,49,50
 337.052734375 558.493164062 337.052734375 558.493164062 336.770507812 557.866210938 c 128,-1,51
 336.431640625 557.125 336.431640625 557.125 335.372070312 554.783203125 c 0,52,53
 332.737304688 548.986328125 332.737304688 548.986328125 329.625 542.18359375 c 0,54,55
 318.787109375 518.534179688 318.787109375 518.534179688 305.337890625 489.6171875 c 0,56,57
 260.8125 393.8671875 260.8125 393.8671875 197.877929688 261.981445312 c 1,58,-1
 197.015625 262.390625 l 1,59,60
 259.958007812 394.303710938 259.958007812 394.303710938 304.471679688 490.01953125 c 0,61,62
 318.170898438 519.481445312 318.170898438 519.481445312 328.750976562 542.58203125 c 0,63,64
 332.208007812 550.124023438 332.208007812 550.124023438 334.498046875 555.1796875 c 0,65,66
 335.373046875 557.096679688 335.373046875 557.096679688 335.896484375 558.260742188 c 0,67,68
 336.071289062 558.6484375 336.071289062 558.6484375 336.2421875 559.022460938 c 0,69,-1
 336.344726562 559.258789062 l 1,70,-1
 336.790039062 559.078125 l 1,46,-1
60.33984375 197.59375 m 1,71,-1
 59.439453125 197.923828125 l 1,72,73
 72.4365234375 233.5703125 72.4365234375 233.5703125 145.563476562 399.19140625 c 1,74,-1
 146.4375 398.8046875 l 1,75,76
 73.3212890625 233.198242188 73.3212890625 233.198242188 60.33984375 197.59375 c 1,71,-1
146.4375 398.8046875 m 1,77,-1
 145.563476562 399.19140625 l 1,78,79
 212.69140625 551.232421875 212.69140625 551.232421875 266.567382812 652.081054688 c 1,80,-1
 267.4140625 651.629882812 l 1,81,82
 213.559570312 550.823242188 213.559570312 550.823242188 146.4375 398.8046875 c 1,77,-1
197.015625 262.390625 m 1,83,-1
 197.877929688 261.981445312 l 1,84,85
 162.962890625 188.805664062 162.962890625 188.805664062 131.670898438 156.896484375 c 0,86,87
 105.67578125 130.3984375 105.67578125 130.3984375 85.140625 134.846679688 c 0,88,89
 68.091796875 138.54296875 68.091796875 138.54296875 60.4150390625 160.567382812 c 0,90,91
 53.2822265625 181.032226562 53.2822265625 181.032226562 59.439453125 197.923828125 c 1,92,-1
 60.33984375 197.59375 l 1,93,94
 54.298828125 181.024414062 54.298828125 181.024414062 61.3203125 160.881835938 c 0,95,96
 68.8193359375 139.366210938 68.8193359375 139.366210938 85.34375 135.782226562 c 0,97,98
 105.364257812 131.442382812 105.364257812 131.442382812 130.989257812 157.571289062 c 0,99,100
 162.166015625 189.360351562 162.166015625 189.360351562 197.015625 262.390625 c 1,83,-1
EndSplineSet
EndChar

StartChar: equal
Encoding: 61 61 79
Width: 526
Flags: W
LayerCount: 2
Fore
SplineSet
117.223632812 403.380859375 m 0,0,1
 77.8828125 407.465820312 77.8828125 407.465820312 63.10546875 434.661132812 c 0,2,3
 46.6845703125 464.87890625 46.6845703125 464.87890625 88.4970703125 483.38671875 c 0,4,5
 113.96875 494.661132812 113.96875 494.661132812 158 497.46484375 c 0,6,7
 216.69921875 497.344726562 216.69921875 497.344726562 361.451171875 492.240234375 c 0,8,9
 457.19921875 488.864257812 457.19921875 488.864257812 459.05859375 444.27734375 c 0,10,11
 460.07421875 419.909179688 460.07421875 419.909179688 438.013671875 404.939453125 c 0,12,13
 432.235351562 401.018554688 432.235351562 401.018554688 427.1875 400.48046875 c 0,14,15
 403.54296875 397.95703125 403.54296875 397.95703125 290.963867188 396.978515625 c 0,16,17
 187.611328125 396.0859375 187.611328125 396.0859375 117.223632812 403.380859375 c 0,0,1
117.223632812 403.380859375 m 1,18,-1
 117.223632812 403.380859375 l 1,18,-1
158 497.46484375 m 1,19,-1
 158.000976562 497.911132812 l 1,20,-1
 158 497.46484375 l 1,19,-1
290.963867188 396.978515625 m 1,21,-1
 290.966796875 396.534179688 l 1,22,-1
 290.963867188 396.978515625 l 1,21,-1
117.26953125 403.826171875 m 1,23,-1
 117.177734375 402.939453125 l 1,24,25
 93.21484375 405.427734375 93.21484375 405.427734375 75.9130859375 419.227539062 c 128,-1,26
 58.6591796875 432.989257812 58.6591796875 432.989257812 58.6474609375 449.43359375 c 0,27,28
 58.634765625 467.655273438 58.634765625 467.655273438 81.0361328125 480.174804688 c 0,29,30
 106.954101562 494.66015625 106.954101562 494.66015625 157.971679688 497.909179688 c 1,31,-1
 158.028320312 497.021484375 l 1,32,33
 107.2109375 493.784179688 107.2109375 493.784179688 81.470703125 479.3984375 c 0,34,35
 59.5244140625 467.134765625 59.5244140625 467.134765625 59.537109375 449.434570312 c 0,36,37
 59.548828125 433.41796875 59.548828125 433.41796875 76.4677734375 419.92578125 c 128,-1,38
 93.568359375 406.284179688 93.568359375 406.284179688 117.26953125 403.826171875 c 1,23,-1
158 497.46484375 m 1,39,-1
 158.001953125 497.91015625 l 1,40,-1
 158.01171875 497.91015625 l 1,41,-1
 158.173828125 497.91015625 l 2,42,43
 158.346679688 497.909179688 158.346679688 497.909179688 158.693359375 497.907226562 c 0,44,45
 159.858398438 497.90234375 159.858398438 497.90234375 160.796875 497.895507812 c 0,46,47
 164.672851562 497.8671875 164.672851562 497.8671875 169.399414062 497.8125 c 0,48,49
 184.831054688 497.633789062 184.831054688 497.633789062 205.34375 497.21484375 c 0,50,51
 270.860351562 495.879882812 270.860351562 495.879882812 361.46484375 492.684570312 c 1,52,-1
 361.43359375 491.795898438 l 1,53,54
 270.748046875 494.993164062 270.748046875 494.993164062 205.326171875 496.326171875 c 0,55,56
 184.791992188 496.744140625 184.791992188 496.744140625 169.388671875 496.922851562 c 0,57,58
 164.922851562 496.975585938 164.922851562 496.975585938 160.790039062 497.005859375 c 0,59,60
 159.375 497.014648438 159.375 497.014648438 158.689453125 497.017578125 c 2,61,-1
 158.170898438 497.01953125 l 1,62,-1
 158.009765625 497.020507812 l 1,63,-1
 158 497.46484375 l 1,39,-1
427.141601562 400.921875 m 1,64,-1
 427.233398438 400.036132812 l 1,65,66
 403.563476562 397.51171875 403.563476562 397.51171875 290.966796875 396.534179688 c 1,67,-1
 290.959960938 397.423828125 l 1,68,69
 403.514648438 398.400390625 403.514648438 398.400390625 427.141601562 400.921875 c 1,64,-1
290.959960938 397.423828125 m 1,70,-1
 290.966796875 396.534179688 l 1,71,72
 187.581054688 395.641601562 187.581054688 395.641601562 117.177734375 402.939453125 c 1,73,-1
 117.26953125 403.826171875 l 1,74,75
 187.62109375 396.53125 187.62109375 396.53125 290.959960938 397.423828125 c 1,70,-1
361.43359375 491.795898438 m 1,76,-1
 361.46484375 492.684570312 l 1,77,78
 411.791015625 490.91015625 411.791015625 490.91015625 436.981445312 476.54296875 c 0,79,80
 457.923828125 464.598632812 457.923828125 464.598632812 459.42578125 445.57421875 c 0,81,82
 460.666015625 429.848632812 460.666015625 429.848632812 449.223632812 415.060546875 c 0,83,84
 438.538085938 401.243164062 438.538085938 401.243164062 427.233398438 400.036132812 c 1,85,-1
 427.141601562 400.921875 l 1,86,87
 438.065429688 402.086914062 438.065429688 402.086914062 448.522460938 415.60546875 c 0,88,89
 459.752929688 430.118164062 459.752929688 430.118164062 458.540039062 445.50390625 c 0,90,91
 457.071289062 464.060546875 457.071289062 464.060546875 436.540039062 475.770507812 c 0,92,93
 411.537109375 490.029296875 411.537109375 490.029296875 361.43359375 491.795898438 c 1,76,-1
117.223632812 253.915039062 m 0,94,95
 77.8818359375 258 77.8818359375 258 63.1044921875 285.1953125 c 0,96,97
 46.685546875 315.413085938 46.685546875 315.413085938 88.498046875 333.920898438 c 0,98,99
 113.969726562 345.1953125 113.969726562 345.1953125 158 348 c 0,100,101
 216.69921875 347.875976562 216.69921875 347.875976562 361.451171875 342.776367188 c 0,102,103
 457.201171875 339.400390625 457.201171875 339.400390625 459.05859375 294.809570312 c 0,104,105
 460.073242188 270.442382812 460.073242188 270.442382812 438.013671875 255.473632812 c 0,106,107
 432.235351562 251.552734375 432.235351562 251.552734375 427.1875 251.014648438 c 0,108,109
 403.551757812 248.491210938 403.551757812 248.491210938 290.963867188 247.512695312 c 0,110,111
 187.611328125 246.620117188 187.611328125 246.620117188 117.223632812 253.915039062 c 0,94,95
117.223632812 253.915039062 m 1,112,-1
 117.177734375 253.473632812 l 1,113,-1
 117.223632812 253.915039062 l 1,112,-1
158 348 m 1,114,-1
 158 348 l 1,114,-1
290.963867188 247.512695312 m 1,115,-1
 290.963867188 247.512695312 l 1,115,-1
117.26953125 254.359375 m 1,116,-1
 117.177734375 253.473632812 l 1,117,118
 93.21484375 255.959960938 93.21484375 255.959960938 75.9130859375 269.76171875 c 128,-1,119
 58.6591796875 283.522460938 58.6591796875 283.522460938 58.6474609375 299.967773438 c 0,120,121
 58.634765625 318.190429688 58.634765625 318.190429688 81.0361328125 330.708007812 c 0,122,123
 106.959960938 345.196289062 106.959960938 345.196289062 157.971679688 348.44140625 c 1,124,-1
 158.028320312 347.555664062 l 1,125,126
 107.208007812 344.315429688 107.208007812 344.315429688 81.470703125 329.932617188 c 0,127,128
 59.5244140625 317.666992188 59.5244140625 317.666992188 59.537109375 299.967773438 c 0,129,130
 59.548828125 283.953125 59.548828125 283.953125 76.4677734375 270.458984375 c 128,-1,131
 93.568359375 256.817382812 93.568359375 256.817382812 117.26953125 254.359375 c 1,116,-1
158 348 m 1,132,-1
 158.00390625 348.4453125 l 1,133,-1
 158.043945312 348.4453125 l 1,134,-1
 158.693359375 348.44140625 l 2,135,136
 159.165039062 348.4375 159.165039062 348.4375 160.796875 348.430664062 c 0,137,138
 164.981445312 348.3984375 164.981445312 348.3984375 169.399414062 348.345703125 c 0,139,140
 184.858398438 348.166015625 184.858398438 348.166015625 205.34375 347.747070312 c 0,141,142
 270.762695312 346.41796875 270.762695312 346.41796875 361.46484375 343.216796875 c 1,143,-1
 361.43359375 342.331054688 l 1,144,145
 270.583984375 345.53125 270.583984375 345.53125 205.326171875 346.857421875 c 0,146,147
 184.848632812 347.276367188 184.848632812 347.276367188 169.388671875 347.456054688 c 0,148,149
 164.970703125 347.508789062 164.970703125 347.508789062 160.790039062 347.541015625 c 0,150,151
 159.158203125 347.547851562 159.158203125 347.547851562 158.689453125 347.551757812 c 2,152,-1
 158.170898438 347.555664062 l 1,153,-1
 158.009765625 347.555664062 l 1,154,-1
 158 347.555664062 l 1,155,-1
 158 348 l 1,132,-1
427.141601562 251.456054688 m 1,156,-1
 427.233398438 250.569335938 l 1,157,158
 403.569335938 248.045898438 403.569335938 248.045898438 290.966796875 247.067382812 c 1,159,-1
 290.959960938 247.95703125 l 1,160,161
 403.518554688 248.934570312 403.518554688 248.934570312 427.141601562 251.456054688 c 1,156,-1
290.959960938 247.95703125 m 1,162,-1
 290.966796875 247.067382812 l 1,163,164
 187.58984375 246.174804688 187.58984375 246.174804688 117.177734375 253.473632812 c 1,165,-1
 117.26953125 254.359375 l 1,166,167
 187.630859375 247.064453125 187.630859375 247.064453125 290.959960938 247.95703125 c 1,162,-1
361.43359375 342.331054688 m 1,168,-1
 361.46484375 343.216796875 l 1,169,170
 411.782226562 341.446289062 411.782226562 341.446289062 436.981445312 327.078125 c 0,171,172
 457.924804688 315.131835938 457.924804688 315.131835938 459.42578125 296.106445312 c 0,173,174
 460.666015625 280.383789062 460.666015625 280.383789062 449.223632812 265.594726562 c 0,175,176
 438.538085938 251.77734375 438.538085938 251.77734375 427.233398438 250.569335938 c 1,177,-1
 427.141601562 251.456054688 l 1,178,179
 438.063476562 252.619140625 438.063476562 252.619140625 448.522460938 266.138671875 c 0,180,181
 459.752929688 280.651367188 459.752929688 280.651367188 458.540039062 296.036132812 c 0,182,183
 457.071289062 314.59375 457.071289062 314.59375 436.540039062 326.302734375 c 0,184,185
 411.541015625 340.564453125 411.541015625 340.564453125 361.43359375 342.331054688 c 1,168,-1
EndSplineSet
EndChar

StartChar: underscore
Encoding: 95 95 80
Width: 460
Flags: W
LayerCount: 2
Fore
SplineSet
97.7724609375 106.138671875 m 0,0,1
 58.4306640625 110.223632812 58.4306640625 110.223632812 43.6533203125 137.418945312 c 0,2,3
 27.234375 167.63671875 27.234375 167.63671875 69.046875 186.14453125 c 0,4,5
 94.5185546875 197.418945312 94.5185546875 197.418945312 138.548828125 200.223632812 c 0,6,7
 197.248046875 200.099609375 197.248046875 200.099609375 342 195 c 0,8,9
 437.75 191.624023438 437.75 191.624023438 439.607421875 147.033203125 c 0,10,11
 440.622070312 122.666015625 440.622070312 122.666015625 418.5625 107.697265625 c 0,12,13
 412.784179688 103.776367188 412.784179688 103.776367188 407.736328125 103.23828125 c 0,14,15
 384.100585938 100.71484375 384.100585938 100.71484375 271.512695312 99.736328125 c 0,16,17
 168.16015625 98.84375 168.16015625 98.84375 97.7724609375 106.138671875 c 0,0,1
97.7724609375 106.138671875 m 1,18,-1
 97.7724609375 106.138671875 l 1,18,-1
138.548828125 200.223632812 m 1,19,-1
 138.548828125 200.223632812 l 1,19,-1
271.512695312 99.736328125 m 1,20,-1
 271.515625 99.291015625 l 1,21,-1
 271.512695312 99.736328125 l 1,20,-1
97.818359375 106.583007812 m 1,22,-1
 97.7265625 105.697265625 l 1,23,24
 73.763671875 108.18359375 73.763671875 108.18359375 56.4619140625 121.985351562 c 128,-1,25
 39.2080078125 135.74609375 39.2080078125 135.74609375 39.1962890625 152.19140625 c 0,26,27
 39.18359375 170.4140625 39.18359375 170.4140625 61.5849609375 182.931640625 c 0,28,29
 87.5087890625 197.419921875 87.5087890625 197.419921875 138.520507812 200.665039062 c 1,30,31
 87.7568359375 196.5390625 87.7568359375 196.5390625 62.01953125 182.15625 c 0,32,33
 40.0732421875 169.890625 40.0732421875 169.890625 40.0859375 152.19140625 c 0,34,35
 40.09765625 136.176757812 40.09765625 136.176757812 57.0166015625 122.682617188 c 128,-1,36
 74.1171875 109.041015625 74.1171875 109.041015625 97.818359375 106.583007812 c 1,22,-1
138.548828125 200.223632812 m 1,37,-1
 138.552734375 200.668945312 l 1,38,-1
 138.592773438 200.668945312 l 1,39,-1
 139.2421875 200.665039062 l 2,40,41
 139.713867188 200.661132812 139.713867188 200.661132812 141.345703125 200.654296875 c 0,42,43
 145.530273438 200.622070312 145.530273438 200.622070312 149.948242188 200.569335938 c 0,44,45
 165.407226562 200.389648438 165.407226562 200.389648438 185.892578125 199.970703125 c 0,46,47
 251.311523438 198.641601562 251.311523438 198.641601562 342.013671875 195.440429688 c 1,48,-1
 341.982421875 194.5546875 l 1,49,50
 251.1328125 197.754882812 251.1328125 197.754882812 185.875 199.081054688 c 0,51,52
 165.397460938 199.5 165.397460938 199.5 149.9375 199.6796875 c 0,53,54
 145.51953125 199.732421875 145.51953125 199.732421875 141.338867188 199.764648438 c 0,55,56
 139.70703125 199.771484375 139.70703125 199.771484375 139.23828125 199.775390625 c 2,57,-1
 138.719726562 199.779296875 l 1,58,-1
 138.55859375 199.779296875 l 1,59,-1
 138.548828125 200.223632812 l 1,37,-1
407.690429688 103.6796875 m 1,60,-1
 407.782226562 102.79296875 l 1,61,62
 384.118164062 100.26953125 384.118164062 100.26953125 271.515625 99.291015625 c 1,63,-1
 271.508789062 100.180664062 l 1,64,65
 384.067382812 101.158203125 384.067382812 101.158203125 407.690429688 103.6796875 c 1,60,-1
271.508789062 100.180664062 m 1,66,-1
 271.515625 99.291015625 l 1,67,68
 168.138671875 98.3984375 168.138671875 98.3984375 97.7265625 105.697265625 c 1,69,-1
 97.818359375 106.583007812 l 1,70,71
 168.1796875 99.2880859375 168.1796875 99.2880859375 271.508789062 100.180664062 c 1,66,-1
341.982421875 194.5546875 m 1,72,-1
 342.013671875 195.440429688 l 1,73,74
 392.331054688 193.669921875 392.331054688 193.669921875 417.530273438 179.301757812 c 0,75,76
 438.473632812 167.35546875 438.473632812 167.35546875 439.974609375 148.330078125 c 0,77,78
 441.21484375 132.607421875 441.21484375 132.607421875 429.772460938 117.818359375 c 0,79,80
 419.086914062 104.000976562 419.086914062 104.000976562 407.782226562 102.79296875 c 1,81,-1
 407.690429688 103.6796875 l 1,82,83
 418.612304688 104.842773438 418.612304688 104.842773438 429.071289062 118.362304688 c 0,84,85
 440.301757812 132.875 440.301757812 132.875 439.088867188 148.259765625 c 0,86,87
 437.620117188 166.817382812 437.620117188 166.817382812 417.088867188 178.526367188 c 0,88,89
 392.08984375 192.788085938 392.08984375 192.788085938 341.982421875 194.5546875 c 1,72,-1
EndSplineSet
EndChar

StartChar: greater
Encoding: 62 62 81
Width: 420
Flags: W
LayerCount: 2
Fore
SplineSet
82.658203125 587.9609375 m 0,0,1
 105.799804688 593.331054688 105.799804688 593.331054688 136.359375 582.180664062 c 128,-1,2
 166.91796875 571.029296875 166.91796875 571.029296875 243.969726562 529.099609375 c 0,3,4
 281.75390625 508.536132812 281.75390625 508.536132812 302.970703125 495.729492188 c 128,-1,5
 324.1875 482.922851562 324.1875 482.922851562 339.672851562 471.552734375 c 128,-1,6
 355.158203125 460.182617188 355.158203125 460.182617188 359.813476562 450.6015625 c 128,-1,7
 364.46875 441.01953125 364.46875 441.01953125 364.514648438 431.708984375 c 128,-1,8
 364.560546875 422.3984375 364.560546875 422.3984375 359.513671875 408.907226562 c 0,9,10
 352.147460938 389.217773438 352.147460938 389.217773438 327.524414062 368.538085938 c 128,-1,11
 302.901367188 347.858398438 302.901367188 347.858398438 224.521484375 295.533203125 c 0,12,13
 147.752929688 244.287109375 147.752929688 244.287109375 131.909179688 236.168945312 c 128,-1,14
 116.064453125 228.05078125 116.064453125 228.05078125 101.030273438 232.259765625 c 0,15,16
 87.3154296875 236.09765625 87.3154296875 236.09765625 75.7607421875 247.923828125 c 128,-1,17
 64.2060546875 259.750976562 64.2060546875 259.750976562 64.2060546875 269.950195312 c 0,18,19
 64.2060546875 289.608398438 64.2060546875 289.608398438 85.48828125 311.1875 c 128,-1,20
 106.770507812 332.766601562 106.770507812 332.766601562 172.151367188 379.3984375 c 0,21,22
 231.467773438 421.704101562 231.467773438 421.704101562 231.467773438 422.875 c 128,-1,23
 231.467773438 424.047851562 231.467773438 424.047851562 178.870117188 450.686523438 c 0,24,25
 70.2041015625 505.73046875 70.2041015625 505.73046875 57 533 c 0,26,27
 47.6943359375 552.22265625 47.6943359375 552.22265625 54.92578125 567.713867188 c 128,-1,28
 62.1572265625 583.205078125 62.1572265625 583.205078125 82.658203125 587.9609375 c 0,0,1
EndSplineSet
EndChar

StartChar: less
Encoding: 60 60 82
Width: 490
Flags: W
LayerCount: 2
Fore
SplineSet
359 588 m 0,0,1
 379.500976562 583.244140625 379.500976562 583.244140625 386.732421875 567.752929688 c 128,-1,2
 393.963867188 552.26171875 393.963867188 552.26171875 384.658203125 533.0390625 c 0,3,4
 371.456054688 505.76953125 371.456054688 505.76953125 262.790039062 450.725585938 c 0,5,6
 210.192382812 424.086914062 210.192382812 424.086914062 210.192382812 422.9140625 c 128,-1,7
 210.192382812 421.741210938 210.192382812 421.741210938 269.508789062 379.4375 c 0,8,9
 334.888671875 332.805664062 334.888671875 332.805664062 356.169921875 311.2265625 c 128,-1,10
 377.452148438 289.647460938 377.452148438 289.647460938 377.452148438 269.989257812 c 0,11,12
 377.452148438 259.790039062 377.452148438 259.790039062 365.897460938 247.963867188 c 128,-1,13
 354.34375 236.13671875 354.34375 236.13671875 340.629882812 232.298828125 c 0,14,15
 325.595703125 228.08984375 325.595703125 228.08984375 309.750976562 236.208007812 c 128,-1,16
 293.907226562 244.326171875 293.907226562 244.326171875 217.138671875 295.572265625 c 0,17,18
 138.756835938 347.8984375 138.756835938 347.8984375 114.133789062 368.578125 c 128,-1,19
 89.509765625 389.256835938 89.509765625 389.256835938 82.1435546875 408.946289062 c 0,20,21
 77.0966796875 422.436523438 77.0966796875 422.436523438 77.142578125 431.748046875 c 128,-1,22
 77.189453125 441.05859375 77.189453125 441.05859375 81.8447265625 450.640625 c 128,-1,23
 86.5 460.221679688 86.5 460.221679688 101.986328125 471.591796875 c 128,-1,24
 117.47265625 482.961914062 117.47265625 482.961914062 138.689453125 495.768554688 c 128,-1,25
 159.905273438 508.575195312 159.905273438 508.575195312 197.690429688 529.138671875 c 0,26,27
 274.7421875 571.069335938 274.7421875 571.069335938 305.30078125 582.219726562 c 128,-1,28
 335.859375 593.370117188 335.859375 593.370117188 359 588 c 0,0,1
EndSplineSet
EndChar

StartChar: numbersign
Encoding: 35 35 83
Width: 577
Flags: W
LayerCount: 2
Fore
SplineSet
222.71875 628.594726562 m 0,0,1
 241.221679688 636.079101562 241.221679688 636.079101562 252.1953125 624.036132812 c 0,2,3
 262.212890625 613.037109375 262.212890625 613.037109375 265.666992188 601.166992188 c 128,-1,4
 269.12109375 589.296875 269.12109375 589.296875 270.359375 561.616210938 c 2,5,-1
 272 525 l 1,6,-1
 298.881835938 526.028320312 l 1,7,-1
 325.768554688 527.060546875 l 1,8,-1
 329.875 543.075195312 l 2,9,10
 340.204101562 583.348632812 340.204101562 583.348632812 363.4296875 600.185546875 c 128,-1,11
 386.654296875 617.022460938 386.654296875 617.022460938 403.790039062 596.658203125 c 0,12,13
 410.302734375 588.916992188 410.302734375 588.916992188 415.411132812 568.513671875 c 128,-1,14
 420.51953125 548.109375 420.51953125 548.109375 420.51953125 529.833007812 c 0,15,16
 420.51953125 522.533203125 420.51953125 522.533203125 422.694335938 520.336914062 c 128,-1,17
 424.868164062 518.140625 424.868164062 518.140625 433.740234375 516.477539062 c 0,18,19
 459.6875 511.607421875 459.6875 511.607421875 475.255859375 493.107421875 c 0,20,21
 483.399414062 483.428710938 483.399414062 483.428710938 484.083007812 475.734375 c 128,-1,22
 484.766601562 468.040039062 484.766601562 468.040039062 478.6328125 455.114257812 c 0,23,24
 466.350585938 429.23046875 466.350585938 429.23046875 429.141601562 429.2109375 c 2,25,-1
 407.515625 429.196289062 l 1,26,-1
 403.341796875 406.544921875 l 2,27,28
 398.706054688 381.391601562 398.706054688 381.391601562 400.845703125 377.274414062 c 128,-1,29
 402.986328125 373.15625 402.986328125 373.15625 422.6328125 369.427734375 c 0,30,31
 459.430664062 362.448242188 459.430664062 362.448242188 475.255859375 343.641601562 c 0,32,33
 483.3828125 333.984375 483.3828125 333.984375 484.083984375 326.297851562 c 128,-1,34
 484.78515625 318.610351562 484.78515625 318.610351562 478.708007812 305.801757812 c 0,35,36
 471.631835938 290.892578125 471.631835938 290.892578125 460.298828125 286.063476562 c 128,-1,37
 448.96484375 281.235351562 448.96484375 281.235351562 417.51171875 279.73046875 c 2,38,-1
 380.331054688 277.951171875 l 1,39,-1
 371.981445312 240.583984375 l 2,40,41
 355.99609375 169.01953125 355.99609375 169.01953125 331.134765625 151.321289062 c 0,42,43
 316.607421875 140.975585938 316.607421875 140.975585938 299.432617188 147.7421875 c 128,-1,44
 282.258789062 154.508789062 282.258789062 154.508789062 274.301757812 173.711914062 c 0,45,46
 269.86328125 184.426757812 269.86328125 184.426757812 274.220703125 222.295898438 c 128,-1,47
 278.572265625 260.13671875 278.572265625 260.13671875 280.576171875 268.321289062 c 0,48,49
 282.057617188 274.35546875 282.057617188 274.35546875 278.728515625 275.284179688 c 128,-1,50
 275.3984375 276.212890625 275.3984375 276.212890625 255.049804688 275.438476562 c 2,51,-1
 227.51953125 274.391601562 l 1,52,-1
 221.041992188 248.84765625 l 2,53,54
 200.8984375 169.41015625 200.8984375 169.41015625 162.383789062 169.41015625 c 0,55,56
 149.11328125 169.41015625 149.11328125 169.41015625 137.58984375 181.630859375 c 128,-1,57
 126.060546875 193.858398438 126.060546875 193.858398438 124.412109375 202.501953125 c 0,58,59
 120.966796875 220.520507812 120.966796875 220.520507812 130.294921875 273.25 c 0,60,61
 131.407226562 279.533203125 131.407226562 279.533203125 129.747070312 281.565429688 c 128,-1,62
 128.086914062 283.59765625 128.086914062 283.59765625 120.557617188 285.1640625 c 0,63,64
 106.143554688 288.166992188 106.143554688 288.166992188 91.7734375 297.833007812 c 128,-1,65
 77.404296875 307.498046875 77.404296875 307.498046875 72.7041015625 317.352539062 c 0,66,67
 68.6494140625 325.856445312 68.6494140625 325.856445312 68.68359375 329.623046875 c 128,-1,68
 68.7177734375 333.390625 68.7177734375 333.390625 72.931640625 342.224609375 c 0,69,70
 77.9443359375 352.73828125 77.9443359375 352.73828125 94.4130859375 361.75390625 c 128,-1,71
 110.8828125 370.76953125 110.8828125 370.76953125 130.888671875 373.951171875 c 2,72,-1
 145.529296875 376.278320312 l 1,73,-1
 149.572265625 400.754882812 l 2,74,75
 153.615234375 425.21484375 153.615234375 425.21484375 153.615234375 428.499023438 c 128,-1,76
 153.615234375 431.767578125 153.615234375 431.767578125 132.262695312 433.701171875 c 0,77,78
 112.083984375 435.532226562 112.083984375 435.532226562 95.4404296875 444.786132812 c 128,-1,79
 78.796875 454.040039062 78.796875 454.040039062 72.7041015625 466.818359375 c 0,80,81
 68.6494140625 475.322265625 68.6494140625 475.322265625 68.68359375 479.088867188 c 128,-1,82
 68.7177734375 482.856445312 68.7177734375 482.856445312 72.931640625 491.690429688 c 0,83,84
 84.7646484375 516.508789062 84.7646484375 516.508789062 145.002929688 525.5625 c 2,85,-1
 173.76171875 529.88671875 l 1,86,-1
 178.202148438 551.60546875 l 2,87,88
 183.926757812 579.612304688 183.926757812 579.612304688 196.491210938 601.338867188 c 128,-1,89
 209.0546875 623.06640625 209.0546875 623.06640625 222.71875 628.594726562 c 0,0,1
301.387695312 405.505859375 m 2,90,-1
 303.900390625 425.637695312 l 1,91,-1
 279.259765625 425.637695312 l 1,92,-1
 254.615234375 425.637695312 l 1,93,-1
 250.846679688 403.395507812 l 2,94,95
 247.081054688 381.155273438 247.081054688 381.155273438 247.881835938 380.178710938 c 128,-1,96
 248.693359375 379.200195312 248.693359375 379.200195312 271.768554688 377.046875 c 0,97,98
 291.513671875 375.203125 291.513671875 375.203125 294.971679688 378.526367188 c 128,-1,99
 298.4296875 381.849609375 298.4296875 381.849609375 301.387695312 405.505859375 c 2,90,-1
EndSplineSet
EndChar

StartChar: backslash
Encoding: 92 92 84
Width: 373
Flags: W
LayerCount: 2
Fore
SplineSet
156.900390625 620.241210938 m 4,0,1
 202.081054688 529.029296875 202.081054688 529.029296875 257.412109375 390.91015625 c 4,2,3
 317.670898438 240.501953125 317.670898438 240.501953125 328.16015625 207.98828125 c 4,4,5
 335.94921875 183.841796875 335.94921875 183.841796875 319.213867188 161.106445312 c 4,6,7
 295.52734375 128.928710938 295.52734375 128.928710938 257.704101562 171.984375 c 4,8,9
 232.36328125 200.831054688 232.36328125 200.831054688 205.572265625 262.141601562 c 6,10,-1
 90.0244140625 531.516601562 l 5,11,12
 45.0751953125 657.674804688 45.0751953125 657.674804688 78.228515625 679.166015625 c 4,13,14
 99.48828125 692.947265625 99.48828125 692.947265625 132.5625 656.399414062 c 4,15,16
 146.754882812 640.715820312 146.754882812 640.715820312 156.900390625 620.241210938 c 4,0,1
156.900390625 620.241210938 m 5,17,-1
 157.284179688 620.462890625 l 5,18,-1
 156.900390625 620.241210938 l 5,17,-1
90.0244140625 531.516601562 m 5,19,-1
 89.6259765625 531.32421875 l 5,20,-1
 90.0244140625 531.516601562 l 5,19,-1
257.412109375 390.91015625 m 5,21,-1
 257.814453125 391.102539062 l 5,22,-1
 257.412109375 390.91015625 l 5,21,-1
156.515625 620.01953125 m 5,23,24
 141.255859375 650.810546875 141.255859375 650.810546875 118.99609375 668.676757812 c 4,25,26
 108.599609375 677.022460938 108.599609375 677.022460938 99.0390625 680.145507812 c 4,27,28
 89.2265625 683.349609375 89.2265625 683.349609375 81.8486328125 680.512695312 c 4,29,30
 65.142578125 674.0859375 65.142578125 674.0859375 65.4658203125 640.328125 c 4,31,32
 65.845703125 600.692382812 65.845703125 600.692382812 90.4306640625 531.689453125 c 5,33,-1
 89.6181640625 531.34375 l 5,34,35
 64.9814453125 600.493164062 64.9814453125 600.493164062 64.599609375 640.288085938 c 4,36,37
 64.2705078125 674.712890625 64.2705078125 674.712890625 81.576171875 681.369140625 c 4,38,39
 89.232421875 684.3125 89.232421875 684.3125 99.3203125 681.017578125 c 4,40,41
 109.014648438 677.8515625 109.014648438 677.8515625 119.537109375 669.409179688 c 4,42,43
 141.946289062 651.422851562 141.946289062 651.422851562 157.284179688 620.462890625 c 5,44,-1
 156.515625 620.01953125 l 5,23,24
90.0244140625 531.516601562 m 6,45,46
 90.423828125 531.708007812 90.423828125 531.708007812 90.4248046875 531.706054688 c 4,47,-1
 90.4462890625 531.65234375 l 6,48,49
 90.5439453125 531.415039062 90.5439453125 531.415039062 90.6376953125 531.186523438 c 4,50,51
 90.9833984375 530.34375 90.9833984375 530.34375 91.955078125 527.9921875 c 4,52,53
 93.9482421875 523.16796875 93.9482421875 523.16796875 96.7080078125 516.555664062 c 4,54,55
 105.256835938 496.073242188 105.256835938 496.073242188 116.814453125 468.849609375 c 4,56,57
 153.599609375 382.19140625 153.599609375 382.19140625 205.967773438 262.344726562 c 5,58,-1
 205.181640625 261.938476562 l 5,59,60
 152.931640625 381.509765625 152.931640625 381.509765625 116.021484375 468.455078125 c 4,61,62
 104.653320312 495.231445312 104.653320312 495.231445312 95.9130859375 516.165039062 c 4,63,64
 93.34375 522.322265625 93.34375 522.322265625 91.1591796875 527.603515625 c 4,65,66
 90.6533203125 528.828125 90.6533203125 528.828125 90.0048828125 530.403320312 c 4,67,68
 89.6728515625 531.209960938 89.6728515625 531.209960938 89.6494140625 531.267578125 c 4,69,-1
 89.626953125 531.321289062 l 5,70,-1
 90.0244140625 531.516601562 l 6,45,46
327.747070312 207.828125 m 5,71,72
 317.266601562 240.317382812 317.266601562 240.317382812 257.013671875 390.721679688 c 5,73,-1
 257.814453125 391.102539062 l 5,74,75
 318.098632812 240.61328125 318.098632812 240.61328125 328.569335938 208.1484375 c 5,76,-1
 327.747070312 207.828125 l 5,71,72
257.013671875 390.721679688 m 5,77,78
 201.701171875 528.80078125 201.701171875 528.80078125 156.515625 620.01953125 c 5,79,-1
 157.284179688 620.462890625 l 5,80,81
 202.458007812 529.274414062 202.458007812 529.274414062 257.814453125 391.102539062 c 5,82,-1
 257.013671875 390.721679688 l 5,77,78
205.967773438 262.344726562 m 5,83,84
 234.916992188 196.094726562 234.916992188 196.094726562 262.049804688 167.920898438 c 4,85,86
 284.354492188 144.758789062 284.354492188 144.758789062 302.708007812 149.583007812 c 4,87,88
 317.866210938 153.563476562 317.866210938 153.563476562 325.491210938 173.806640625 c 4,89,90
 332.615234375 192.737304688 332.615234375 192.737304688 327.747070312 207.828125 c 5,91,-1
 328.569335938 208.1484375 l 5,92,93
 333.5390625 192.7421875 333.5390625 192.7421875 326.294921875 173.494140625 c 4,94,95
 318.499023438 152.798828125 318.499023438 152.798828125 302.889648438 148.697265625 c 4,96,97
 284.064453125 143.75390625 284.064453125 143.75390625 261.430664062 167.262695312 c 4,98,99
 234.1875 195.55078125 234.1875 195.55078125 205.181640625 261.938476562 c 5,100,-1
 205.967773438 262.344726562 l 5,83,84
EndSplineSet
EndChar

StartChar: parenright
Encoding: 41 41 85
Width: 289
Flags: W
LayerCount: 2
Fore
SplineSet
127.907226562 555.94921875 m 1,0,1
 92.8125 646.177734375 92.8125 646.177734375 129.171875 662.224609375 c 0,2,3
 154.40625 673.361328125 154.40625 673.361328125 186.551757812 643.133789062 c 0,4,5
 209.05859375 621.970703125 209.05859375 621.970703125 215.469726562 593.619140625 c 0,6,7
 217.671875 583.87890625 217.671875 583.87890625 227.82421875 548.029296875 c 128,-1,8
 237.975585938 512.1796875 237.975585938 512.1796875 240.19921875 492.772460938 c 128,-1,9
 242.423828125 473.365234375 242.423828125 473.365234375 243.446289062 434.744140625 c 128,-1,10
 244.469726562 396.123046875 244.469726562 396.123046875 233.693359375 349.302734375 c 128,-1,11
 222.916992188 302.483398438 222.916992188 302.483398438 201.790039062 243.344726562 c 0,12,13
 154.690429688 111.51171875 154.690429688 111.51171875 107.056640625 115.729492188 c 0,14,15
 81.630859375 117.98046875 81.630859375 117.98046875 69.74609375 152.580078125 c 0,16,17
 65.861328125 163.888671875 65.861328125 163.888671875 66.2451171875 173.127929688 c 0,18,19
 66.7666015625 185.674804688 66.7666015625 185.674804688 76.111328125 201.517578125 c 128,-1,20
 85.4560546875 217.360351562 85.4560546875 217.360351562 96.9052734375 232.676757812 c 128,-1,21
 108.35546875 247.994140625 108.35546875 247.994140625 119.970703125 278.7265625 c 128,-1,22
 131.5859375 309.459960938 131.5859375 309.459960938 135.822265625 347.640625 c 0,23,24
 141.08203125 405.397460938 141.08203125 405.397460938 139.323242188 451.6875 c 128,-1,25
 137.564453125 497.978515625 137.564453125 497.978515625 132.735351562 526.963867188 c 2,26,-1
 127.907226562 555.94921875 l 1,0,1
127.907226562 555.94921875 m 1,27,-1
 128.331054688 556.059570312 l 1,28,-1
 127.907226562 555.94921875 l 1,27,-1
135.822265625 347.640625 m 1,29,-1
 135.387695312 347.71484375 l 1,30,-1
 135.822265625 347.640625 l 1,29,-1
128.31640625 556.095703125 m 1,31,32
 106.012695312 611.051757812 106.012695312 611.051757812 112.573242188 640.235351562 c 0,33,34
 115.415039062 652.876953125 115.415039062 652.876953125 123.40234375 659.263671875 c 0,35,36
 130.803710938 665.1796875 130.803710938 665.1796875 141.672851562 665.072265625 c 0,37,38
 163.372070312 664.857421875 163.372070312 664.857421875 185.665039062 644.54296875 c 0,39,40
 209.26171875 623.044921875 209.26171875 623.044921875 215.896484375 593.698242188 c 1,41,-1
 215.04296875 593.541015625 l 1,42,43
 208.474609375 622.58984375 208.474609375 622.58984375 185.106445312 643.8828125 c 0,44,45
 163.071289062 663.958984375 163.071289062 663.958984375 141.71484375 664.170898438 c 0,46,47
 131.139648438 664.275390625 131.139648438 664.275390625 123.96484375 658.540039062 c 0,48,49
 116.201171875 652.330078125 116.201171875 652.330078125 113.426757812 639.986328125 c 0,50,51
 106.928710938 611.079101562 106.928710938 611.079101562 128.31640625 556.095703125 c 1,31,32
215.04296875 593.541015625 m 1,52,-1
 215.896484375 593.698242188 l 1,53,54
 218.5625 581.907226562 218.5625 581.907226562 224.521484375 560.5625 c 128,-1,55
 230.48046875 539.217773438 230.48046875 539.217773438 231.875 533.877929688 c 0,56,57
 241.500976562 497.018554688 241.500976562 497.018554688 243.64453125 465.651367188 c 0,58,59
 249.750976562 376.272460938 249.750976562 376.272460938 202.203125 243.170898438 c 1,60,-1
 201.376953125 243.51953125 l 1,61,62
 248.858398438 376.435546875 248.858398438 376.435546875 242.768554688 465.638671875 c 0,63,64
 240.629882812 496.909179688 240.629882812 496.909179688 231.028320312 533.690429688 c 0,65,66
 229.63671875 539.021484375 229.63671875 539.021484375 223.672851562 560.383789062 c 128,-1,67
 217.708984375 581.745117188 217.708984375 581.745117188 215.04296875 593.541015625 c 1,52,-1
66.68359375 173.084960938 m 1,68,-1
 65.8076171875 173.174804688 l 1,69,70
 66.33203125 185.833007812 66.33203125 185.833007812 75.67578125 201.473632812 c 0,71,72
 78.6884765625 206.515625 78.6884765625 206.515625 85.32421875 216.28515625 c 0,73,74
 93.0556640625 227.66015625 93.0556640625 227.66015625 96.5947265625 233.231445312 c 0,75,76
 128.2109375 283.044921875 128.2109375 283.044921875 135.387695312 347.71484375 c 1,77,-1
 136.259765625 347.565429688 l 1,78,79
 129.060546875 282.693359375 129.060546875 282.693359375 97.3349609375 232.711914062 c 0,80,81
 93.8046875 227.151367188 93.8046875 227.151367188 86.0498046875 215.740234375 c 0,82,83
 79.435546875 206 79.435546875 206 76.4306640625 200.971679688 c 0,84,85
 67.2001953125 185.518554688 67.2001953125 185.518554688 66.68359375 173.084960938 c 1,68,-1
136.259765625 347.565429688 m 1,86,-1
 135.387695312 347.71484375 l 1,87,88
 143.189453125 418.026367188 143.189453125 418.026367188 136.114257812 493.999023438 c 0,89,90
 133.90625 517.6953125 133.90625 517.6953125 130.469726562 539.184570312 c 0,91,92
 129.388671875 545.946289062 129.388671875 545.946289062 128.331054688 551.5546875 c 0,93,94
 128.016601562 553.225585938 128.016601562 553.225585938 127.705078125 554.778320312 c 0,95,96
 127.622070312 555.200195312 127.622070312 555.200195312 127.537109375 555.600585938 c 2,97,-1
 127.495117188 555.807617188 l 1,98,-1
 127.48046875 555.872070312 l 1,99,-1
 127.907226562 555.94921875 l 1,100,-1
 128.337890625 556.016601562 l 2,101,102
 128.345703125 555.985351562 128.345703125 555.985351562 128.352539062 555.950195312 c 0,103,104
 128.455078125 555.4609375 128.455078125 555.4609375 128.565429688 554.913085938 c 0,105,106
 128.849609375 553.497070312 128.849609375 553.497070312 129.192382812 551.677734375 c 0,107,108
 130.282226562 545.869140625 130.282226562 545.869140625 131.334960938 539.282226562 c 0,109,110
 134.778320312 517.765625 134.778320312 517.765625 136.985351562 494.03515625 c 0,111,112
 144.073242188 418.005859375 144.073242188 418.005859375 136.259765625 347.565429688 c 1,86,-1
201.376953125 243.51953125 m 1,113,-1
 202.203125 243.170898438 l 1,114,115
 176.5390625 171.33203125 176.5390625 171.33203125 149.551757812 139.274414062 c 0,116,117
 127.046875 112.541015625 127.046875 112.541015625 105.665039062 115.434570312 c 0,118,119
 88.1923828125 117.798828125 88.1923828125 117.798828125 75.9716796875 138.142578125 c 0,120,121
 65.1025390625 156.25390625 65.1025390625 156.25390625 65.8076171875 173.174804688 c 1,122,-1
 66.68359375 173.084960938 l 1,123,124
 65.9912109375 156.4453125 65.9912109375 156.4453125 76.7119140625 138.583984375 c 0,125,126
 88.6953125 118.631835938 88.6953125 118.631835938 105.729492188 116.327148438 c 0,127,128
 126.662109375 113.5 126.662109375 113.5 148.872070312 139.8828125 c 0,129,130
 175.762695312 171.82421875 175.762695312 171.82421875 201.376953125 243.51953125 c 1,113,-1
EndSplineSet
EndChar

StartChar: dollar
Encoding: 36 36 86
Width: 418
Flags: W
LayerCount: 2
Fore
SplineSet
214.63671875 730.107421875 m 0,0,1
 225.387695312 734.467773438 225.387695312 734.467773438 242.576171875 728.338867188 c 0,2,3
 261.459960938 721.604492188 261.459960938 721.604492188 265.690429688 713.608398438 c 128,-1,4
 269.921875 705.611328125 269.921875 705.611328125 269.921875 676.655273438 c 2,5,-1
 269.921875 642.267578125 l 1,6,-1
 290.383789062 635.940429688 l 2,7,8
 308.471679688 630.348632812 308.471679688 630.348632812 330.89453125 618.3671875 c 128,-1,9
 353.317382812 606.38671875 353.317382812 606.38671875 360.451171875 598.501953125 c 0,10,11
 366.606445312 591.702148438 366.606445312 591.702148438 366.588867188 576.993164062 c 128,-1,12
 366.571289062 562.28515625 366.571289062 562.28515625 360.39453125 552.858398438 c 0,13,14
 355.512695312 545.409179688 355.512695312 545.409179688 343.4921875 539.807617188 c 128,-1,15
 331.471679688 534.20703125 331.471679688 534.20703125 320.366210938 534.20703125 c 0,16,17
 310.080078125 534.20703125 310.080078125 534.20703125 271.59375 545.2421875 c 128,-1,18
 233.09375 556.275390625 233.09375 556.275390625 207.017578125 554.958007812 c 0,19,20
 188.825195312 554.0390625 188.825195312 554.0390625 183.004882812 551.965820312 c 128,-1,21
 177.184570312 549.892578125 177.184570312 549.892578125 168.547851562 541.252929688 c 0,22,23
 155.608398438 528.31640625 155.608398438 528.31640625 151.525390625 508.8046875 c 128,-1,24
 147.44140625 489.29296875 147.44140625 489.29296875 154.052734375 471.986328125 c 0,25,26
 161.883789062 451.477539062 161.883789062 451.477539062 183.341796875 442.303710938 c 128,-1,27
 204.799804688 433.130859375 204.799804688 433.130859375 258.284179688 427.427734375 c 0,28,29
 299.435546875 423.040039062 299.435546875 423.040039062 315.610351562 416.983398438 c 128,-1,30
 331.784179688 410.926757812 331.784179688 410.926757812 347.006835938 394.20703125 c 0,31,32
 363.78515625 375.7734375 363.78515625 375.7734375 370.677734375 356.934570312 c 128,-1,33
 377.5703125 338.094726562 377.5703125 338.094726562 379.305664062 305.92578125 c 0,34,35
 381.956054688 256.780273438 381.956054688 256.780273438 365.942382812 226.791015625 c 128,-1,36
 349.928710938 196.80078125 349.928710938 196.80078125 311.461914062 178.875976562 c 0,37,38
 289.474609375 168.629882812 289.474609375 168.629882812 283.671875 166.637695312 c 128,-1,39
 277.848632812 164.637695312 277.848632812 164.637695312 273.515625 133.227539062 c 0,40,41
 265.499023438 75.1640625 265.499023438 75.1640625 248.615234375 69.8076171875 c 0,42,43
 234.0078125 65.171875 234.0078125 65.171875 216.051757812 74.634765625 c 128,-1,44
 198.094726562 84.0966796875 198.094726562 84.0966796875 189.327148438 101.049804688 c 0,45,46
 183.724609375 111.890625 183.724609375 111.890625 186 132 c 2,47,-1
 188.27734375 152.114257812 l 1,48,-1
 161.928710938 156.213867188 l 2,49,50
 128.225585938 161.453125 128.225585938 161.453125 98.0927734375 175.525390625 c 128,-1,51
 67.9599609375 189.598632812 67.9599609375 189.598632812 58.0439453125 204.729492188 c 0,52,53
 40.853515625 230.967773438 40.853515625 230.967773438 50.73046875 254.608398438 c 0,54,55
 58.6572265625 273.575195312 58.6572265625 273.575195312 76.375 273.958984375 c 128,-1,56
 94.0927734375 274.34375 94.0927734375 274.34375 145.537109375 256.666015625 c 0,57,58
 228.219726562 228.25 228.219726562 228.25 250.868164062 239.9609375 c 0,59,60
 278.924804688 254.469726562 278.924804688 254.469726562 297.380859375 278.189453125 c 128,-1,61
 315.8359375 301.908203125 315.8359375 301.908203125 309.643554688 315.498046875 c 0,62,63
 294.225585938 349.341796875 294.225585938 349.341796875 189.401367188 368.87890625 c 0,64,65
 135.62890625 378.90625 135.62890625 378.90625 103.157226562 408.103515625 c 0,66,67
 73.14453125 435.086914062 73.14453125 435.086914062 65.2900390625 458.749023438 c 128,-1,68
 57.4345703125 482.411132812 57.4345703125 482.411132812 66.4140625 518.787109375 c 0,69,70
 91.9169921875 622.0859375 91.9169921875 622.0859375 170.362304688 642.12109375 c 2,71,-1
 189.850585938 647.096679688 l 1,72,-1
 193.868164062 681.40234375 l 2,73,74
 196.921875 707.500976562 196.921875 707.500976562 200.8984375 716.826171875 c 128,-1,75
 204.875 726.151367188 204.875 726.151367188 214.63671875 730.107421875 c 0,0,1
EndSplineSet
EndChar

StartChar: at
Encoding: 64 64 87
Width: 568
Flags: W
LayerCount: 2
Fore
SplineSet
298.629882812 606.185546875 m 0,0,1
 354.913085938 611.38671875 354.913085938 611.38671875 393.162109375 599.514648438 c 128,-1,2
 431.411132812 587.642578125 431.411132812 587.642578125 463.19921875 555.106445312 c 0,3,4
 503.59765625 513.756835938 503.59765625 513.756835938 510.16796875 457.201171875 c 128,-1,5
 516.73828125 400.646484375 516.73828125 400.646484375 488.270507812 339.309570312 c 0,6,7
 468.767578125 297.291015625 468.767578125 297.291015625 437.703125 284.225585938 c 128,-1,8
 406.639648438 271.161132812 406.639648438 271.161132812 372.35546875 290.55859375 c 0,9,10
 353.139648438 301.431640625 353.139648438 301.431640625 344.361328125 301.561523438 c 128,-1,11
 335.583007812 301.69140625 335.583007812 301.69140625 323.465820312 291.28515625 c 0,12,13
 271.637695312 246.778320312 271.637695312 246.778320312 230.017578125 259.053710938 c 0,14,15
 182.184570312 273.16796875 182.184570312 273.16796875 186.015625 329.37109375 c 128,-1,16
 189.846679688 385.57421875 189.846679688 385.57421875 242.288085938 439.099609375 c 0,17,18
 267.967773438 465.306640625 267.967773438 465.306640625 289.056640625 471.583984375 c 0,19,20
 314.430664062 479.138671875 314.430664062 479.138671875 329.819335938 476.448242188 c 128,-1,21
 345.208007812 473.7578125 345.208007812 473.7578125 360.576171875 459.078125 c 0,22,23
 371.1640625 448.969726562 371.1640625 448.969726562 384.383789062 421.07421875 c 128,-1,24
 397.603515625 393.178710938 397.603515625 393.178710938 400.27734375 375.305664062 c 0,25,26
 402.59375 359.802734375 402.59375 359.802734375 406.092773438 355.932617188 c 128,-1,27
 409.591796875 352.0625 409.591796875 352.0625 419.12109375 354.458984375 c 128,-1,28
 428.764648438 356.885742188 428.764648438 356.885742188 436.899414062 381.653320312 c 128,-1,29
 445.03515625 406.421875 445.03515625 406.421875 444.915039062 432.989257812 c 0,30,31
 444.702148438 479.052734375 444.702148438 479.052734375 414.580078125 510.387695312 c 0,32,33
 385.540039062 540.603515625 385.540039062 540.603515625 339.775390625 543.344726562 c 0,34,35
 263.68359375 547.905273438 263.68359375 547.905273438 199.84375 497.243164062 c 128,-1,36
 136.004882812 446.581054688 136.004882812 446.581054688 119.584960938 368.6015625 c 0,37,38
 106.223632812 305.149414062 106.223632812 305.149414062 124.859375 269.095703125 c 0,39,40
 133.0625 253.231445312 133.0625 253.231445312 148.776367188 238.541015625 c 128,-1,41
 164.491210938 223.850585938 164.491210938 223.850585938 181.135742188 216.487304688 c 0,42,43
 199.477539062 208.37109375 199.477539062 208.37109375 233.6796875 204.352539062 c 128,-1,44
 267.872070312 200.333984375 267.872070312 200.333984375 280.327148438 194.875 c 0,45,46
 299.197265625 186.6015625 299.197265625 186.6015625 302.77734375 171.018554688 c 128,-1,47
 306.357421875 155.435546875 306.357421875 155.435546875 292.384765625 142.384765625 c 0,48,49
 279.373046875 130.232421875 279.373046875 130.232421875 234.715820312 136.421875 c 128,-1,50
 190.05859375 142.611328125 190.05859375 142.611328125 150.123046875 162.103515625 c 0,51,52
 75.4296875 198.559570312 75.4296875 198.559570312 55.2314453125 273.163085938 c 128,-1,53
 35.0341796875 347.766601562 35.0341796875 347.766601562 75.4609375 437.87890625 c 0,54,55
 108.47265625 511.466796875 108.47265625 511.466796875 166.764648438 555.428710938 c 128,-1,56
 225.057617188 599.389648438 225.057617188 599.389648438 298.629882812 606.185546875 c 0,0,1
324.255859375 399.911132812 m 0,57,58
 314.809570312 417.606445312 314.809570312 417.606445312 288.504882812 395.875 c 0,59,60
 256.212890625 369.18359375 256.212890625 369.18359375 258.846679688 346.245117188 c 0,61,62
 261.689453125 321.426757812 261.689453125 321.426757812 296.818359375 349.266601562 c 0,63,64
 314.133789062 362.991210938 314.133789062 362.991210938 321.646484375 376.858398438 c 128,-1,65
 329.159179688 390.724609375 329.159179688 390.724609375 324.255859375 399.911132812 c 0,57,58
EndSplineSet
EndChar

StartChar: percent
Encoding: 37 37 88
Width: 577
Flags: W
LayerCount: 2
Fore
SplineSet
337.434570312 572.491210938 m 0,0,1
 360.520507812 619.083984375 360.520507812 619.083984375 392.451171875 631.84765625 c 0,2,3
 423.942382812 644.435546875 423.942382812 644.435546875 428.65234375 605.483398438 c 0,4,5
 433.473632812 565.62109375 433.473632812 565.62109375 404.309570312 483.766601562 c 0,6,7
 372.284179688 405.541992188 372.284179688 405.541992188 288.76171875 214.391601562 c 0,8,9
 237.43359375 96.9267578125 237.43359375 96.9267578125 195.603515625 100.678710938 c 0,10,11
 172.713867188 102.732421875 172.713867188 102.732421875 165.794921875 134.936523438 c 0,12,13
 162.684570312 149.415039062 162.684570312 149.415039062 166.17578125 160.23828125 c 0,14,15
 176.663085938 192.748046875 176.663085938 192.748046875 236.921875 343.16015625 c 0,16,17
 292.25390625 481.280273438 292.25390625 481.280273438 337.434570312 572.491210938 c 0,0,1
337.434570312 572.491210938 m 1,18,-1
 337.049804688 572.712890625 l 1,19,-1
 337.434570312 572.491210938 l 1,18,-1
404.309570312 483.766601562 m 1,20,-1
 404.708007812 483.57421875 l 1,21,-1
 404.309570312 483.766601562 l 1,20,-1
236.921875 343.16015625 m 1,22,-1
 236.921875 343.16015625 l 1,22,-1
337.818359375 572.26953125 m 1,23,-1
 337.049804688 572.712890625 l 1,24,25
 352.38671875 603.671875 352.38671875 603.671875 374.797851562 621.659179688 c 0,26,27
 385.318359375 630.1015625 385.318359375 630.1015625 395.014648438 633.267578125 c 0,28,29
 405.102539062 636.563476562 405.102539062 636.563476562 412.7578125 633.619140625 c 0,30,31
 430.064453125 626.961914062 430.064453125 626.961914062 429.733398438 592.538085938 c 0,32,33
 429.358398438 552.754882812 429.358398438 552.754882812 404.715820312 483.59375 c 1,34,-1
 403.904296875 483.939453125 l 1,35,36
 428.4921875 552.94921875 428.4921875 552.94921875 428.868164062 592.578125 c 0,37,38
 429.189453125 626.337890625 429.189453125 626.337890625 412.484375 632.762695312 c 0,39,40
 405.107421875 635.600585938 405.107421875 635.600585938 395.295898438 632.395507812 c 0,41,42
 385.736328125 629.2734375 385.736328125 629.2734375 375.337890625 620.926757812 c 0,43,44
 353.077148438 603.05859375 353.077148438 603.05859375 337.818359375 572.26953125 c 1,23,-1
404.309570312 483.766601562 m 1,45,-1
 404.708007812 483.57421875 l 1,46,-1
 404.701171875 483.560546875 l 1,47,-1
 404.616210938 483.344726562 l 2,48,49
 404.247070312 482.450195312 404.247070312 482.450195312 403.859375 481.509765625 c 128,-1,50
 403.471679688 480.5703125 403.471679688 480.5703125 403.174804688 479.853515625 c 0,51,52
 400.611328125 473.662109375 400.611328125 473.662109375 398.419921875 468.415039062 c 0,53,54
 389.799804688 447.758789062 389.799804688 447.758789062 378.313476562 420.705078125 c 0,55,56
 341.4453125 333.858398438 341.4453125 333.858398438 289.153320312 214.188476562 c 1,57,-1
 288.3671875 214.594726562 l 1,58,59
 340.810546875 334.6171875 340.810546875 334.6171875 377.51953125 421.099609375 c 0,60,61
 388.947265625 448.013671875 388.947265625 448.013671875 397.626953125 468.805664062 c 0,62,63
 400.779296875 476.365234375 400.779296875 476.365234375 402.377929688 480.2421875 c 0,64,65
 402.661132812 480.924804688 402.661132812 480.924804688 403.04296875 481.850585938 c 128,-1,66
 403.424804688 482.775390625 403.424804688 482.775390625 403.534179688 483.0390625 c 128,-1,67
 403.602539062 483.209960938 403.602539062 483.209960938 403.818359375 483.73046875 c 0,68,-1
 403.904296875 483.9453125 l 1,69,-1
 403.911132812 483.958984375 l 1,70,-1
 404.309570312 483.766601562 l 1,45,-1
166.5859375 160.078125 m 1,71,-1
 165.764648438 160.3984375 l 1,72,73
 176.244140625 192.884765625 176.244140625 192.884765625 236.51953125 343.352539062 c 1,74,-1
 237.3203125 342.971679688 l 1,75,76
 177.06640625 192.565429688 177.06640625 192.565429688 166.5859375 160.078125 c 1,71,-1
237.3203125 342.971679688 m 1,77,-1
 236.51953125 343.352539062 l 1,78,79
 291.87109375 481.513671875 291.87109375 481.513671875 337.049804688 572.712890625 c 1,80,-1
 337.818359375 572.26953125 l 1,81,82
 292.639648438 481.064453125 292.639648438 481.064453125 237.3203125 342.971679688 c 1,77,-1
288.3671875 214.594726562 m 1,83,-1
 289.153320312 214.188476562 l 1,84,85
 260.147460938 147.80078125 260.147460938 147.80078125 232.904296875 119.512695312 c 0,86,87
 210.270507812 96.00390625 210.270507812 96.00390625 191.4453125 100.947265625 c 0,88,89
 175.83203125 105.049804688 175.83203125 105.049804688 168.041015625 125.744140625 c 0,90,91
 160.795898438 144.990234375 160.795898438 144.990234375 165.764648438 160.3984375 c 1,92,-1
 166.5859375 160.078125 l 1,93,94
 161.717773438 144.985351562 161.717773438 144.985351562 168.844726562 126.056640625 c 0,95,96
 176.465820312 105.814453125 176.465820312 105.814453125 191.626953125 101.833007812 c 0,97,98
 209.979492188 97.0087890625 209.979492188 97.0087890625 232.28515625 120.170898438 c 0,99,100
 259.416992188 148.344726562 259.416992188 148.344726562 288.3671875 214.594726562 c 1,83,-1
377.72265625 204.826171875 m 0,101,102
 378 234 378 234 395.962890625 255.153320312 c 0,103,104
 414 276 414 276 440 276 c 128,-1,105
 466 276 466 276 484 255 c 128,-1,106
 502 234 502 234 502.27734375 204.826171875 c 0,107,108
 502 175 502 175 484.037109375 154.498046875 c 128,-1,109
 466 134 466 134 440 133.651367188 c 0,110,111
 414 134 414 134 395.962890625 154.498046875 c 128,-1,112
 378 175 378 175 377.72265625 204.826171875 c 0,101,102
82.3486328125 523.331054688 m 0,113,114
 82 552 82 552 100.068359375 572.401367188 c 128,-1,115
 118 593 118 593 142.84765625 592.7265625 c 0,116,117
 168 593 168 593 185.625976562 572.401367188 c 0,118,119
 203 552 203 552 203.345703125 523.331054688 c 0,120,121
 203 495 203 495 185.625976562 474.26171875 c 0,122,123
 168 454 168 454 142.84765625 453.936523438 c 0,124,125
 118 454 118 454 100.068359375 474.26171875 c 0,126,127
 82 495 82 495 82.3486328125 523.331054688 c 0,113,114
EndSplineSet
EndChar

StartChar: asciicircum
Encoding: 94 94 89
Width: 362
Flags: W
LayerCount: 2
Fore
SplineSet
174.623046875 648.688476562 m 0,0,1
 195.795898438 665.921875 195.795898438 665.921875 220.18359375 649.21875 c 0,2,3
 250.819335938 628.23828125 250.819335938 628.23828125 233.057617188 583.897460938 c 0,4,5
 227.374023438 569.708984375 227.374023438 569.708984375 216.376953125 554.701171875 c 0,6,7
 190.703125 526.029296875 190.703125 526.029296875 124.348632812 459.106445312 c 0,8,9
 89.9921875 428.301757812 89.9921875 428.301757812 70.06640625 436.16796875 c 128,-1,10
 50.140625 444.034179688 50.140625 444.034179688 40.8349609375 466.813476562 c 128,-1,11
 31.5283203125 489.592773438 31.5283203125 489.592773438 37.611328125 499.065429688 c 0,12,13
 46.341796875 512.659179688 46.341796875 512.659179688 94.8046875 568.580078125 c 0,14,15
 139.293945312 619.916992188 139.293945312 619.916992188 174.623046875 648.688476562 c 0,0,1
174.623046875 648.688476562 m 1,16,-1
 174.366210938 649.049804688 l 1,17,-1
 174.623046875 648.688476562 l 1,16,-1
216.376953125 554.701171875 m 1,18,-1
 216.690429688 554.387695312 l 1,19,-1
 216.376953125 554.701171875 l 1,18,-1
94.8046875 568.580078125 m 1,20,-1
 94.4892578125 568.88671875 l 1,21,-1
 94.8046875 568.580078125 l 1,20,-1
174.8828125 648.327148438 m 1,22,-1
 174.366210938 649.049804688 l 1,23,24
 186.594726562 658.885742188 186.594726562 658.885742188 202.83203125 656.513671875 c 128,-1,25
 219.069335938 654.141601562 219.069335938 654.141601562 229.448242188 641.254882812 c 0,26,27
 240.93359375 626.994140625 240.93359375 626.994140625 239.088867188 606.18359375 c 0,28,29
 236.947265625 582.03125 236.947265625 582.03125 216.71484375 554.424804688 c 1,30,-1
 216.0390625 554.978515625 l 1,31,32
 236.110351562 582.373046875 236.110351562 582.373046875 238.231445312 606.252929688 c 0,33,34
 240.041015625 626.67578125 240.041015625 626.67578125 228.786132812 640.65234375 c 0,35,36
 218.615234375 653.28515625 218.615234375 653.28515625 202.700195312 655.606445312 c 128,-1,37
 186.786132812 657.926757812 186.786132812 657.926757812 174.8828125 648.327148438 c 1,22,-1
216.376953125 554.701171875 m 1,38,-1
 216.686523438 554.388671875 l 1,39,-1
 216.68359375 554.383789062 l 2,40,41
 216.6484375 554.34765625 216.6484375 554.34765625 216.612304688 554.3046875 c 2,42,-1
 216.384765625 554.05078125 l 2,43,44
 215.630859375 553.21875 215.630859375 553.21875 215.458984375 553.029296875 c 0,45,46
 214.029296875 551.456054688 214.029296875 551.456054688 211.655273438 548.876953125 c 0,47,48
 204.572265625 541.205078125 204.572265625 541.205078125 195.594726562 531.728515625 c 0,49,50
 166.213867188 500.706054688 166.213867188 500.706054688 124.640625 458.77734375 c 1,51,-1
 124.053710938 459.435546875 l 1,52,53
 165.635742188 501.376953125 165.635742188 501.376953125 194.993164062 532.37109375 c 0,54,55
 203.979492188 541.858398438 203.979492188 541.858398438 211.04296875 549.51171875 c 0,56,57
 213.215820312 551.870117188 213.215820312 551.870117188 214.84375 553.659179688 c 0,58,59
 215.525390625 554.412109375 215.525390625 554.412109375 215.764648438 554.677734375 c 0,60,-1
 216.049804688 554.993164062 l 1,61,-1
 216.067382812 555.012695312 l 1,62,-1
 216.376953125 554.701171875 l 1,38,-1
37.966796875 498.8125 m 1,63,-1
 37.2568359375 499.319335938 l 1,64,65
 46 512.93359375 46 512.93359375 94.4892578125 568.88671875 c 1,66,-1
 95.119140625 568.2734375 l 1,67,68
 46.673828125 512.37109375 46.673828125 512.37109375 37.966796875 498.8125 c 1,63,-1
95.119140625 568.2734375 m 1,69,-1
 94.4892578125 568.88671875 l 1,70,71
 139.013671875 620.262695312 139.013671875 620.262695312 174.366210938 649.049804688 c 1,72,-1
 174.8828125 648.327148438 l 1,73,74
 139.594726562 619.590820312 139.594726562 619.590820312 95.119140625 568.2734375 c 1,69,-1
124.053710938 459.435546875 m 1,75,-1
 124.640625 458.77734375 l 1,76,77
 101.50390625 435.440429688 101.50390625 435.440429688 81.3388671875 434.391601562 c 0,78,79
 64.615234375 433.522460938 64.615234375 433.522460938 51.943359375 447.724609375 c 0,80,81
 41.494140625 459.436523438 41.494140625 459.436523438 37.13671875 476.630859375 c 0,82,83
 35.26953125 483.999023438 35.26953125 483.999023438 35.2802734375 490.075195312 c 128,-1,84
 35.291015625 496.2578125 35.291015625 496.2578125 37.2568359375 499.319335938 c 1,85,-1
 37.966796875 498.8125 l 2,86,87
 36.154296875 495.989257812 36.154296875 495.989257812 36.1435546875 490.08984375 c 128,-1,88
 36.1328125 484.134765625 36.1328125 484.134765625 37.970703125 476.8828125 c 0,89,90
 42.271484375 459.912109375 42.271484375 459.912109375 52.5751953125 448.359375 c 0,91,92
 64.9814453125 434.455078125 64.9814453125 434.455078125 81.3125 435.305664062 c 0,93,94
 101.155273438 436.338867188 101.155273438 436.338867188 124.053710938 459.435546875 c 1,75,-1
235.63671875 653.95703125 m 0,95,96
 261.790039062 621.381835938 261.790039062 621.381835938 291.1171875 566.142578125 c 0,97,98
 323.063476562 505.977539062 323.063476562 505.977539062 327.982421875 491.813476562 c 0,99,100
 329.75 486.7265625 329.75 486.7265625 325.32421875 475.875976562 c 128,-1,101
 320.8984375 465.024414062 320.8984375 465.024414062 311.70703125 455.159179688 c 128,-1,102
 302.516601562 445.29296875 302.516601562 445.29296875 291.017578125 439.618164062 c 128,-1,103
 279.51953125 433.943359375 279.51953125 433.943359375 264.963867188 440.4609375 c 128,-1,104
 250.408203125 446.979492188 250.408203125 446.979492188 237.430664062 467.642578125 c 2,105,-1
 174.231445312 571.934570312 l 1,106,107
 149.77734375 629.767578125 149.77734375 629.767578125 184.138671875 656.125 c 0,108,109
 207.975585938 674.408203125 207.975585938 674.408203125 229.469726562 659.668945312 c 0,110,111
 232.984375 657.258789062 232.984375 657.258789062 235.63671875 653.95703125 c 0,95,96
235.63671875 653.95703125 m 1,112,-1
 235.63671875 653.95703125 l 1,112,-1
174.231445312 571.934570312 m 1,113,-1
 174.231445312 571.934570312 l 1,113,-1
291.1171875 566.142578125 m 1,114,-1
 291.1171875 566.142578125 l 1,114,-1
235.309570312 653.657226562 m 1,115,116
 226.583984375 664.518554688 226.583984375 664.518554688 211.091796875 664.805664062 c 128,-1,117
 195.599609375 665.092773438 195.599609375 665.092773438 183.145507812 654.766601562 c 0,118,119
 169.2890625 643.33984375 169.2890625 643.33984375 166.1171875 623.826171875 c 0,120,121
 162.40625 601.02734375 162.40625 601.02734375 174.625976562 572.125 c 1,122,-1
 173.83984375 571.744140625 l 1,123,124
 161.51171875 600.895507812 161.51171875 600.895507812 165.266601562 623.975585938 c 0,125,126
 168.5 643.846679688 168.5 643.846679688 182.623046875 655.489257812 c 0,127,128
 195.243164062 666.0078125 195.243164062 666.0078125 211.114257812 665.721679688 c 128,-1,129
 226.985351562 665.435546875 226.985351562 665.435546875 235.96484375 654.255859375 c 1,130,-1
 235.309570312 653.657226562 l 1,115,116
174.231445312 571.934570312 m 1,131,-1
 174.60546875 572.168945312 l 1,132,-1
 174.60546875 572.1640625 l 2,133,134
 174.626953125 572.124023438 174.626953125 572.124023438 174.655273438 572.079101562 c 0,135,136
 174.875 571.68359375 174.875 571.68359375 175.081054688 571.315429688 c 0,137,138
 176.974609375 567.96875 176.974609375 567.96875 177.985351562 566.209960938 c 0,139,140
 182.65625 558.083007812 182.65625 558.083007812 188.896484375 547.581054688 c 0,141,142
 208.916015625 513.870117188 208.916015625 513.870117188 237.786132812 467.899414062 c 1,143,-1
 237.071289062 467.38671875 l 1,144,145
 208.26171875 513.251953125 208.26171875 513.251953125 188.1640625 547.087890625 c 0,146,147
 181.923828125 557.599609375 181.923828125 557.599609375 177.249023438 565.727539062 c 0,148,149
 175.879882812 568.112304688 175.879882812 568.112304688 174.68359375 570.228515625 c 0,150,151
 174.265625 570.96875 174.265625 570.96875 174.064453125 571.333984375 c 2,152,-1
 173.911132812 571.608398438 l 1,153,-1
 173.865234375 571.694335938 l 1,154,-1
 174.231445312 571.934570312 l 1,131,-1
327.580078125 491.65234375 m 1,155,156
 322.684570312 505.74609375 322.684570312 505.74609375 290.740234375 565.915039062 c 1,157,158
 323.458984375 506.165039062 323.458984375 506.165039062 327.580078125 491.65234375 c 1,155,156
290.740234375 565.915039062 m 1,159,160
 261.428710938 621.125976562 261.428710938 621.125976562 235.309570312 653.657226562 c 1,161,-1
 235.96484375 654.255859375 l 1,162,163
 262.142578125 621.653320312 262.142578125 621.653320312 290.740234375 565.915039062 c 1,159,160
237.786132812 467.899414062 m 1,164,165
 253.666992188 442.619140625 253.666992188 442.619140625 271.932617188 438.576171875 c 0,166,167
 286.987304688 435.244140625 286.987304688 435.244140625 301.893554688 446.415039062 c 0,168,169
 314.274414062 455.692382812 314.274414062 455.692382812 322.344726562 471.01953125 c 0,170,171
 325.78515625 477.555664062 325.78515625 477.555664062 327.203125 483.174804688 c 128,-1,172
 328.59375 488.725585938 328.59375 488.725585938 327.580078125 491.65234375 c 1,173,174
 329.499023438 488.7734375 329.499023438 488.7734375 328.03515625 482.9453125 c 128,-1,175
 326.59375 477.213867188 326.59375 477.213867188 323.095703125 470.576171875 c 0,176,177
 314.9296875 455.065429688 314.9296875 455.065429688 302.384765625 445.666992188 c 0,178,179
 287.168945312 434.263671875 287.168945312 434.263671875 271.750976562 437.6796875 c 0,180,181
 253.142578125 441.794921875 253.142578125 441.794921875 237.071289062 467.38671875 c 1,182,-1
 237.786132812 467.899414062 l 1,164,165
EndSplineSet
EndChar

StartChar: grave
Encoding: 96 96 90
Width: 280
Flags: W
LayerCount: 2
Fore
SplineSet
95.5224609375 725.672851562 m 0,0,1
 130.64453125 703.091796875 130.64453125 703.091796875 176 660 c 0,2,3
 225.404296875 613.060546875 225.404296875 613.060546875 234.547851562 601.209960938 c 0,4,5
 240.92578125 592.944335938 240.92578125 592.944335938 233.880859375 569.491210938 c 128,-1,6
 226.834960938 546.038085938 226.834960938 546.038085938 208.7734375 535.443359375 c 128,-1,7
 190.712890625 524.848632812 190.712890625 524.848632812 156.341796875 549.555664062 c 2,8,-1
 63.31640625 628.405273438 l 1,9,10
 21.3974609375 675.916992188 21.3974609375 675.916992188 46.3232421875 711.865234375 c 0,11,12
 63.021484375 735.946289062 63.021484375 735.946289062 87.5634765625 729.215820312 c 0,13,14
 91.8291015625 728.045898438 91.8291015625 728.045898438 95.5224609375 725.672851562 c 0,0,1
95.5224609375 725.672851562 m 1,15,-1
 95.740234375 726.060546875 l 1,16,-1
 95.5224609375 725.672851562 l 1,15,-1
63.31640625 628.405273438 m 1,17,-1
 63.0390625 628.0625 l 1,18,-1
 63.31640625 628.405273438 l 1,17,-1
176 660 m 1,19,-1
 176.284179688 660.334960938 l 1,20,-1
 176 660 l 1,19,-1
95.3056640625 725.284179688 m 1,21,22
 83.51953125 732.793945312 83.51953125 732.793945312 68.8046875 728.171875 c 128,-1,23
 54.08984375 723.55078125 54.08984375 723.55078125 45.4892578125 709.78515625 c 0,24,25
 35.974609375 694.557617188 35.974609375 694.557617188 39.1552734375 675.0390625 c 0,26,27
 42.8720703125 652.237304688 42.8720703125 652.237304688 63.6298828125 628.7109375 c 1,28,-1
 63.0029296875 628.099609375 l 1,29,30
 42.064453125 651.834960938 42.064453125 651.834960938 38.302734375 674.912109375 c 0,31,32
 35.0634765625 694.78125 35.0634765625 694.78125 44.76171875 710.303710938 c 0,33,34
 53.5224609375 724.32421875 53.5224609375 724.32421875 68.5341796875 729.047851562 c 128,-1,35
 83.5458984375 733.772460938 83.5458984375 733.772460938 95.740234375 726.060546875 c 1,36,-1
 95.3056640625 725.284179688 l 1,21,22
63.31640625 628.405273438 m 1,37,-1
 63.59765625 628.744140625 l 1,38,-1
 63.615234375 628.728515625 l 1,39,-1
 63.9033203125 628.465820312 l 2,40,41
 64.0322265625 628.346679688 64.0322265625 628.346679688 64.83984375 627.616210938 c 0,42,43
 66.6298828125 626.000976562 66.6298828125 626.000976562 68.693359375 624.16796875 c 0,44,45
 75.544921875 618.080078125 75.544921875 618.080078125 84.9501953125 609.962890625 c 0,46,47
 114.754882812 584.24609375 114.754882812 584.24609375 156.6015625 549.913085938 c 1,48,-1
 156.08203125 549.198242188 l 1,49,50
 114.115234375 583.6328125 114.115234375 583.6328125 84.416015625 609.263671875 c 0,51,52
 75.21875 617.196289062 75.21875 617.196289062 68.1494140625 623.4765625 c 0,53,54
 66.0712890625 625.32421875 66.0712890625 625.32421875 64.2880859375 626.930664062 c 0,55,56
 63.5166015625 627.62890625 63.5166015625 627.62890625 63.3486328125 627.782226562 c 2,57,-1
 63.1171875 627.994140625 l 1,58,-1
 63.060546875 628.046875 l 1,59,-1
 63.0390625 628.063476562 l 1,60,-1
 63.31640625 628.405273438 l 1,37,-1
234.212890625 600.928710938 m 1,61,62
 225.083007812 612.762695312 225.083007812 612.762695312 175.71875 659.665039062 c 1,63,-1
 176.284179688 660.334960938 l 1,64,65
 225.705078125 613.3828125 225.705078125 613.3828125 234.212890625 600.928710938 c 1,61,62
175.71875 659.665039062 m 1,66,67
 130.392578125 702.725585938 130.392578125 702.725585938 95.3056640625 725.284179688 c 1,68,-1
 95.740234375 726.060546875 l 1,69,70
 130.900390625 703.455078125 130.900390625 703.455078125 176.284179688 660.334960938 c 1,71,-1
 175.71875 659.665039062 l 1,66,67
156.6015625 549.913085938 m 1,72,73
 179.67578125 530.978515625 179.67578125 530.978515625 198.284179688 532.938476562 c 0,74,75
 213.620117188 534.555664062 213.620117188 534.555664062 224.209960938 549.87890625 c 0,76,77
 233.008789062 562.607421875 233.008789062 562.607421875 235.796875 579.702148438 c 0,78,79
 236.98828125 587.001953125 236.98828125 587.001953125 236.543945312 592.770507812 c 128,-1,80
 236.108398438 598.479492188 236.108398438 598.479492188 234.212890625 600.928710938 c 1,81,82
 236.9453125 598.81640625 236.9453125 598.81640625 237.409179688 592.81640625 c 128,-1,83
 237.862304688 586.931640625 237.862304688 586.931640625 236.651367188 579.520507812 c 0,84,85
 233.829101562 562.22265625 233.829101562 562.22265625 224.9140625 549.326171875 c 0,86,87
 214.108398438 533.685546875 214.108398438 533.685546875 198.39453125 532.030273438 c 0,88,89
 179.440429688 530.032226562 179.440429688 530.032226562 156.08203125 549.198242188 c 1,90,-1
 156.6015625 549.913085938 l 1,72,73
EndSplineSet
EndChar

StartChar: bracketleft
Encoding: 91 91 91
Width: 319
Flags: W
LayerCount: 2
Fore
SplineSet
252.534179688 661.46484375 m 0,0,1
 267.990234375 656.508789062 267.990234375 656.508789062 270.842773438 636.862304688 c 128,-1,2
 273.6953125 617.215820312 273.6953125 617.215820312 261.166992188 602.00390625 c 0,3,4
 242.895507812 579.81640625 242.895507812 579.81640625 200.266601562 579.1484375 c 0,5,6
 173.08203125 578.724609375 173.08203125 578.724609375 171.697265625 577.583984375 c 128,-1,7
 170.317382812 576.453125 170.317382812 576.453125 170.458984375 524.84765625 c 128,-1,8
 170.600585938 473.250976562 170.600585938 473.250976562 165.469726562 380.790039062 c 0,9,10
 160.370117188 288.99609375 160.370117188 288.99609375 158 242.010742188 c 2,11,-1
 155.665039062 195.694335938 l 1,12,-1
 204.8359375 192.31640625 l 1,13,-1
 254.00390625 188.943359375 l 1,14,-1
 262.6015625 178.508789062 l 2,15,16
 268.23828125 171.673828125 268.23828125 171.673828125 269.158203125 166.990234375 c 128,-1,17
 270.079101562 162.306640625 270.079101562 162.306640625 267.946289062 151.32421875 c 0,18,19
 262.568359375 123.595703125 262.568359375 123.595703125 234.430664062 110.725585938 c 0,20,21
 224.088867188 105.991210938 224.088867188 105.991210938 212.27734375 105.666015625 c 128,-1,22
 200.465820312 105.33984375 200.465820312 105.33984375 157.911132812 108.612304688 c 0,23,24
 113.317382812 112.040039062 113.317382812 112.040039062 103.7890625 113.880859375 c 128,-1,25
 94.2607421875 115.72265625 94.2607421875 115.72265625 88.7685546875 121.978515625 c 0,26,27
 62.83984375 151.505859375 62.83984375 151.505859375 65.5341796875 267.071289062 c 0,28,29
 71.54296875 524.838867188 71.54296875 524.838867188 81.39453125 580.3046875 c 0,30,31
 89.3037109375 624.829101562 89.3037109375 624.829101562 100.17578125 645.18359375 c 128,-1,32
 111.047851562 665.538085938 111.047851562 665.538085938 128.374023438 668.252929688 c 0,33,34
 139.640625 670.018554688 139.640625 670.018554688 191.607421875 667.178710938 c 128,-1,35
 243.575195312 664.337890625 243.575195312 664.337890625 252.534179688 661.46484375 c 0,0,1
EndSplineSet
EndChar

StartChar: bracketright
Encoding: 93 93 92
Width: 304
Flags: W
LayerCount: 2
Fore
SplineSet
99.857421875 667.463867188 m 0,0,1
 109.048828125 669.46484375 109.048828125 669.46484375 161.048828125 667.3125 c 128,-1,2
 213.049804688 665.159179688 213.049804688 665.159179688 224.095703125 662.321289062 c 0,3,4
 241.08203125 657.958007812 241.08203125 657.958007812 249.953125 636.654296875 c 128,-1,5
 258.82421875 615.350585938 258.82421875 615.350585938 262.426757812 570.275390625 c 0,6,7
 266.91796875 514.150390625 266.91796875 514.150390625 248.1953125 256.9609375 c 0,8,9
 239.796875 141.670898438 239.796875 141.670898438 211.16015625 114.764648438 c 0,10,11
 205.09375 109.064453125 205.09375 109.064453125 195.430664062 108.143554688 c 128,-1,12
 185.768554688 107.22265625 185.768554688 107.22265625 141.053710938 108.084960938 c 0,13,14
 98.375 108.907226562 98.375 108.907226562 86.6513671875 110.364257812 c 128,-1,15
 74.9287109375 111.8203125 74.9287109375 111.8203125 65.0888671875 117.5234375 c 0,16,17
 38.318359375 133.030273438 38.318359375 133.030273438 35.6181640625 161.149414062 c 0,18,19
 34.5478515625 172.284179688 34.5478515625 172.284179688 35.9140625 176.858398438 c 128,-1,20
 37.279296875 181.432617188 37.279296875 181.432617188 43.5439453125 187.697265625 c 2,21,-1
 53.103515625 197.255859375 l 1,22,-1
 102.370117188 195.904296875 l 1,23,-1
 151.63671875 194.551757812 l 1,24,-1
 153.750976562 240.87890625 l 2,25,26
 155.852539062 286.884765625 155.852539062 286.884765625 159.619140625 379.736328125 c 0,27,28
 163.372070312 472.25 163.372070312 472.25 168.458984375 523.610351562 c 128,-1,29
 173.544921875 574.96484375 173.544921875 574.96484375 172.28125 576.221679688 c 128,-1,30
 171.013671875 577.489257812 171.013671875 577.489257812 143.993164062 580.517578125 c 0,31,32
 101.625 585.267578125 101.625 585.267578125 85.5625 609.104492188 c 0,33,34
 74.5498046875 625.447265625 74.5498046875 625.447265625 79.2724609375 644.729492188 c 128,-1,35
 83.9951171875 664.012695312 83.9951171875 664.012695312 99.857421875 667.463867188 c 0,0,1
EndSplineSet
EndChar

StartChar: asterisk
Encoding: 42 42 93
Width: 475
Flags: W
LayerCount: 2
Fore
SplineSet
196.104492188 666.150390625 m 0,0,1
 199.1484375 699.377929688 199.1484375 699.377929688 221.2109375 710.286132812 c 0,2,3
 246.162109375 722.623046875 246.162109375 722.623046875 259.68359375 681.922851562 c 0,4,5
 265.940429688 663.088867188 265.940429688 663.088867188 267.905273438 634.448242188 c 0,6,7
 268.169921875 587.790039062 268.169921875 587.790039062 265.16796875 472.696289062 c 0,8,9
 263.127929688 394.5390625 263.127929688 394.5390625 227.796875 394.713867188 c 0,10,11
 207.612304688 394.8125 207.612304688 394.8125 197.795898438 413.610351562 c 0,12,13
 196.092773438 416.87109375 196.092773438 416.87109375 195.776367188 419.752929688 c 0,14,15
 193.711914062 438.544921875 193.711914062 438.544921875 192.28515625 528.004882812 c 0,16,17
 190.981445312 610.15234375 190.981445312 610.15234375 196.104492188 666.150390625 c 0,0,1
196.104492188 666.150390625 m 1,18,-1
 196.104492188 666.150390625 l 1,18,-1
267.905273438 634.448242188 m 1,19,-1
 268.349609375 634.475585938 l 1,20,-1
 267.905273438 634.448242188 l 1,19,-1
192.28515625 528.004882812 m 1,21,-1
 192.28515625 528.004882812 l 1,21,-1
196.544921875 666.106445312 m 1,22,23
 197.412109375 685.279296875 197.412109375 685.279296875 207.815429688 699.157226562 c 128,-1,24
 218.20703125 713.014648438 218.20703125 713.014648438 230.76953125 713.149414062 c 0,25,26
 244.698242188 713.296875 244.698242188 713.296875 254.385742188 695.528320312 c 0,27,28
 265.567382812 675.018554688 265.567382812 675.018554688 268.349609375 634.475585938 c 1,29,-1
 267.463867188 634.420898438 l 1,30,31
 264.693359375 674.767578125 264.693359375 674.767578125 253.60546875 695.106445312 c 0,32,33
 244.176757812 712.401367188 244.176757812 712.401367188 230.784179688 712.258789062 c 0,34,35
 218.658203125 712.12890625 218.658203125 712.12890625 208.52734375 698.619140625 c 128,-1,36
 198.271484375 684.939453125 198.271484375 684.939453125 196.544921875 666.106445312 c 1,22,23
267.905273438 634.448242188 m 1,37,-1
 268.349609375 634.4453125 l 1,38,-1
 268.349609375 634.413085938 l 1,39,-1
 268.353515625 633.896484375 l 2,40,41
 268.353515625 633.759765625 268.353515625 633.759765625 268.35546875 633.203125 c 128,-1,42
 268.356445312 632.646484375 268.356445312 632.646484375 268.356445312 632.225585938 c 0,43,44
 268.356445312 628.46484375 268.356445312 628.46484375 268.345703125 625.38671875 c 0,45,46
 268.305664062 613.276367188 268.305664062 613.276367188 268.111328125 596.80859375 c 0,47,48
 267.4921875 544.794921875 267.4921875 544.794921875 265.609375 472.681640625 c 1,49,50
 266.600585938 544.629882812 266.600585938 544.629882812 267.221679688 596.826171875 c 0,51,52
 267.416015625 613.291992188 267.416015625 613.291992188 267.456054688 625.396484375 c 0,53,54
 267.47265625 630.08203125 267.47265625 630.08203125 267.466796875 632.23046875 c 0,55,56
 267.466796875 633.532226562 267.466796875 633.532226562 267.463867188 633.900390625 c 0,57,-1
 267.463867188 634.415039062 l 1,58,-1
 267.463867188 634.447265625 l 1,59,-1
 267.905273438 634.448242188 l 1,37,-1
196.217773438 419.795898438 m 1,60,-1
 195.334960938 419.70703125 l 1,61,62
 193.264648438 438.543945312 193.264648438 438.543945312 191.844726562 528.000976562 c 1,63,-1
 192.73046875 528.008789062 l 1,64,65
 194.155273438 438.572265625 194.155273438 438.572265625 196.217773438 419.795898438 c 1,60,-1
192.73046875 528.008789062 m 1,66,-1
 191.844726562 528.000976562 l 1,67,68
 190.53515625 610.147460938 190.53515625 610.147460938 195.663085938 666.194335938 c 1,69,70
 191.42578125 610.118164062 191.42578125 610.118164062 192.73046875 528.008789062 c 1,66,-1
264.723632812 472.7109375 m 1,71,72
 264.567382812 432.653320312 264.567382812 432.653320312 253.784179688 412.500976562 c 0,73,74
 244.796875 395.716796875 244.796875 395.716796875 230.282226562 394.375976562 c 0,75,76
 218.280273438 393.268554688 218.280273438 393.268554688 206.9296875 402.280273438 c 0,77,78
 196.325195312 410.694335938 196.325195312 410.694335938 195.334960938 419.70703125 c 1,79,-1
 196.217773438 419.795898438 l 1,80,81
 197.16796875 411.162109375 197.16796875 411.162109375 207.477539062 402.977539062 c 0,82,83
 218.545898438 394.18359375 218.545898438 394.18359375 230.193359375 395.26171875 c 0,84,85
 244.243164062 396.560546875 244.243164062 396.560546875 252.997070312 412.927734375 c 0,86,87
 263.6796875 432.887695312 263.6796875 432.887695312 264.723632812 472.7109375 c 1,71,72
280.264648438 659.099609375 m 0,88,89
 304.97265625 681.962890625 304.97265625 681.962890625 328.607421875 674.10546875 c 0,90,91
 356.827148438 664.724609375 356.827148438 664.724609375 334.1796875 620.475585938 c 0,92,93
 326.501953125 605.475585938 326.501953125 605.475585938 312.805664062 587.853515625 c 0,94,95
 282.552734375 553.703125 282.552734375 553.703125 205.217773438 471.913085938 c 0,96,97
 149.591796875 413.0859375 149.591796875 413.0859375 124.294921875 442.608398438 c 0,98,99
 110.202148438 459.0546875 110.202148438 459.0546875 117.685546875 477.081054688 c 0,100,101
 118.350585938 478.681640625 118.350585938 478.681640625 119.225585938 479.91015625 c 0,102,103
 129.955078125 494.971679688 129.955078125 494.971679688 187.282226562 561.071289062 c 0,104,105
 239.916015625 621.754882812 239.916015625 621.754882812 280.264648438 659.099609375 c 0,88,89
280.264648438 659.099609375 m 1,106,-1
 280.264648438 659.099609375 l 1,106,-1
312.805664062 587.853515625 m 1,107,-1
 312.805664062 587.853515625 l 1,107,-1
187.282226562 561.071289062 m 1,108,-1
 187.282226562 561.071289062 l 1,108,-1
280.563476562 658.771484375 m 1,109,110
 293.723632812 672.158203125 293.723632812 672.158203125 310.495117188 675.28125 c 128,-1,111
 327.245117188 678.401367188 327.245117188 678.401367188 336.641601562 670.075195312 c 0,112,113
 347.061523438 660.83984375 347.061523438 660.83984375 342.6484375 641.40625 c 0,114,115
 337.549804688 618.96484375 337.549804688 618.96484375 313.154296875 587.578125 c 1,116,-1
 312.456054688 588.12890625 l 1,117,118
 336.731445312 619.356445312 336.731445312 619.356445312 341.784179688 641.604492188 c 0,119,120
 346.078125 660.525390625 346.078125 660.525390625 336.0546875 669.404296875 c 0,121,122
 326.981445312 677.4453125 326.981445312 677.4453125 310.655273438 674.403320312 c 0,123,124
 294.12890625 671.32421875 294.12890625 671.32421875 280.563476562 658.771484375 c 1,109,110
312.805664062 587.853515625 m 1,125,-1
 313.135742188 587.5546875 l 1,126,-1
 313.115234375 587.53125 l 1,127,-1
 313.046875 587.456054688 l 2,128,129
 312.774414062 587.146484375 312.774414062 587.146484375 311.69140625 585.93359375 c 0,130,131
 309.76953125 583.786132812 309.76953125 583.786132812 307.217773438 580.961914062 c 0,132,133
 299.22265625 572.102539062 299.22265625 572.102539062 288.395507812 560.311523438 c 0,134,135
 254.01171875 522.873046875 254.01171875 522.873046875 205.538085938 471.607421875 c 1,136,137
 253.416015625 523.538085938 253.416015625 523.538085938 287.745117188 560.91796875 c 0,138,139
 298.385742188 572.504882812 298.385742188 572.504882812 306.563476562 581.5625 c 0,140,141
 308.467773438 583.669921875 308.467773438 583.669921875 311.033203125 586.53125 c 0,142,143
 311.493164062 587.045898438 311.493164062 587.045898438 312.118164062 587.75 c 0,144,145
 312.431640625 588.100585938 312.431640625 588.100585938 312.453125 588.125976562 c 0,146,-1
 312.474609375 588.149414062 l 1,147,-1
 312.805664062 587.853515625 l 1,125,-1
119.584960938 479.650390625 m 1,148,149
 129.615234375 495.258789062 129.615234375 495.258789062 186.951171875 561.365234375 c 1,150,151
 130.309570312 494.704101562 130.309570312 494.704101562 119.584960938 479.650390625 c 1,148,149
187.616210938 560.77734375 m 1,152,153
 239.598632812 622.065429688 239.598632812 622.065429688 279.965820312 659.428710938 c 1,154,155
 240.217773438 621.426757812 240.217773438 621.426757812 187.616210938 560.77734375 c 1,152,153
204.897460938 472.22265625 m 1,156,157
 178.635742188 443.154296875 178.635742188 443.154296875 157.489257812 435.717773438 c 0,158,159
 139.875976562 429.517578125 139.875976562 429.517578125 128.237304688 438.280273438 c 0,160,161
 118.62109375 445.518554688 118.62109375 445.518554688 116.084960938 459.696289062 c 0,162,163
 113.715820312 472.94140625 113.715820312 472.94140625 118.865234375 480.169921875 c 1,164,165
 114.655273438 472.7265625 114.655273438 472.7265625 116.95703125 459.852539062 c 0,166,167
 119.431640625 446.0234375 119.431640625 446.0234375 128.768554688 438.995117188 c 0,168,169
 140.03125 430.520507812 140.03125 430.520507812 157.198242188 436.561523438 c 0,170,171
 178.138671875 443.923828125 178.138671875 443.923828125 204.897460938 472.22265625 c 1,156,157
182.883789062 659.099609375 m 0,172,173
 223.220703125 621.768554688 223.220703125 621.768554688 275.865234375 561.071289062 c 0,174,175
 333.197265625 494.965820312 333.197265625 494.965820312 343.922851562 479.91015625 c 0,176,177
 353.321289062 466.717773438 353.321289062 466.717773438 342.185546875 447.348632812 c 0,178,179
 323.931640625 415.596679688 323.931640625 415.596679688 278.521484375 452.544921875 c 0,180,181
 268.646484375 460.580078125 268.646484375 460.580078125 257.9296875 471.913085938 c 2,182,-1
 150.34375 587.853515625 l 1,183,184
 102.200195312 649.79296875 102.200195312 649.79296875 127.456054688 670.294921875 c 0,185,186
 145.08984375 684.609375 145.08984375 684.609375 173.65625 666.248046875 c 0,187,188
 178.577148438 663.084960938 178.577148438 663.084960938 182.883789062 659.099609375 c 0,172,173
182.883789062 659.099609375 m 1,189,-1
 182.883789062 659.099609375 l 1,189,-1
150.34375 587.853515625 m 1,190,-1
 150.34375 587.853515625 l 1,190,-1
275.865234375 561.071289062 m 1,191,-1
 275.865234375 561.071289062 l 1,191,-1
182.584960938 658.771484375 m 1,192,193
 169.017578125 671.32421875 169.017578125 671.32421875 152.494140625 674.403320312 c 128,-1,194
 136.168945312 677.4453125 136.168945312 677.4453125 127.09375 669.404296875 c 0,195,196
 117.0703125 660.522460938 117.0703125 660.522460938 121.365234375 641.604492188 c 0,197,198
 126.415039062 619.360351562 126.415039062 619.360351562 150.692382812 588.12890625 c 1,199,-1
 149.994140625 587.578125 l 1,200,201
 125.595703125 618.96875 125.595703125 618.96875 120.500976562 641.40625 c 0,202,203
 116.088867188 660.841796875 116.088867188 660.841796875 126.5078125 670.075195312 c 0,204,205
 135.905273438 678.401367188 135.905273438 678.401367188 152.655273438 675.28125 c 128,-1,206
 169.427734375 672.158203125 169.427734375 672.158203125 183.185546875 659.428710938 c 1,207,-1
 182.584960938 658.771484375 l 1,192,193
150.34375 587.853515625 m 1,208,-1
 150.673828125 588.150390625 l 1,209,-1
 150.6796875 588.14453125 l 2,210,211
 150.716796875 588.1015625 150.716796875 588.1015625 150.76171875 588.05078125 c 0,212,213
 151.55859375 587.155273438 151.55859375 587.155273438 152.1171875 586.53125 c 0,214,215
 154.079101562 584.338867188 154.079101562 584.338867188 156.584960938 581.5625 c 0,216,217
 164.716796875 572.5546875 164.716796875 572.5546875 175.403320312 560.91796875 c 0,218,219
 209.798828125 523.465820312 209.798828125 523.465820312 258.25390625 472.22265625 c 1,220,-1
 257.609375 471.607421875 l 1,221,222
 209.068359375 522.944335938 209.068359375 522.944335938 174.755859375 560.311523438 c 0,223,224
 164.094726562 571.91796875 164.094726562 571.91796875 155.9296875 580.961914062 c 0,225,226
 153.35546875 583.813476562 153.35546875 583.813476562 151.458984375 585.93359375 c 0,227,228
 151.271484375 586.143554688 151.271484375 586.143554688 150.953125 586.5 c 128,-1,229
 150.517578125 586.98828125 150.517578125 586.98828125 150.370117188 587.153320312 c 128,-1,230
 150.057617188 587.505859375 150.057617188 587.505859375 150.03515625 587.53125 c 0,231,-1
 150.013671875 587.5546875 l 1,232,-1
 150.34375 587.853515625 l 1,208,-1
343.563476562 479.650390625 m 1,233,234
 332.819335938 494.73046875 332.819335938 494.73046875 275.53125 560.77734375 c 1,235,-1
 276.200195312 561.365234375 l 1,236,237
 333.549804688 495.23828125 333.549804688 495.23828125 344.28515625 480.169921875 c 1,238,-1
 343.563476562 479.650390625 l 1,233,234
275.53125 560.77734375 m 1,239,240
 222.912109375 621.447265625 222.912109375 621.447265625 182.584960938 658.771484375 c 1,241,-1
 183.185546875 659.428710938 l 1,242,243
 223.546875 622.071289062 223.546875 622.071289062 276.200195312 561.365234375 c 1,244,-1
 275.53125 560.77734375 l 1,239,240
258.25390625 472.22265625 m 1,245,246
 285.012695312 443.924804688 285.012695312 443.924804688 305.951171875 436.561523438 c 0,247,248
 323.119140625 430.520507812 323.119140625 430.520507812 334.381835938 438.995117188 c 0,249,250
 343.717773438 446.024414062 343.717773438 446.024414062 346.193359375 459.852539062 c 0,251,252
 348.490234375 472.727539062 348.490234375 472.727539062 343.563476562 479.650390625 c 1,253,-1
 344.28515625 480.169921875 l 1,254,255
 349.431640625 472.9453125 349.431640625 472.9453125 347.065429688 459.696289062 c 0,256,257
 344.525390625 445.517578125 344.525390625 445.517578125 334.912109375 438.280273438 c 0,258,259
 323.272460938 429.518554688 323.272460938 429.518554688 305.659179688 435.717773438 c 0,260,261
 284.510742188 443.15625 284.510742188 443.15625 257.609375 471.607421875 c 1,262,-1
 258.25390625 472.22265625 l 1,245,246
348.029296875 582.508789062 m 0,263,264
 383.170898438 580.204101562 383.170898438 580.204101562 394.6796875 557.873046875 c 0,265,266
 407.403320312 533.188476562 407.403320312 533.188476562 365.178710938 518.950195312 c 0,267,268
 346.146484375 512.53125 346.146484375 512.53125 317.420898438 509.9609375 c 2,269,-1
 150.237304688 508.87109375 l 2,270,271
 68.6015625 509.0625 68.6015625 509.0625 68.552734375 544.98046875 c 0,272,273
 68.525390625 564.913085938 68.525390625 564.913085938 87.2666015625 574.881835938 c 0,274,275
 90.541015625 576.624023438 90.541015625 576.624023438 93.4716796875 577.00390625 c 0,276,277
 112.829101562 579.512695312 112.829101562 579.512695312 205.200195312 583.0546875 c 0,278,279
 290.014648438 586.306640625 290.014648438 586.306640625 348.029296875 582.508789062 c 0,263,264
348.029296875 582.508789062 m 1,280,-1
 348.029296875 582.508789062 l 1,280,-1
317.420898438 509.9609375 m 1,281,-1
 317.420898438 509.9609375 l 1,281,-1
205.200195312 583.0546875 m 1,282,-1
 205.185546875 583.499023438 l 1,283,-1
 205.200195312 583.0546875 l 1,282,-1
347.997070312 582.065429688 m 1,284,-1
 348.061523438 582.952148438 l 1,285,286
 367.82421875 581.657226562 367.82421875 581.657226562 382.463867188 571.583984375 c 128,-1,287
 397.083984375 561.525390625 397.083984375 561.525390625 397.602539062 548.962890625 c 0,288,289
 398.16796875 535.030273438 398.16796875 535.030273438 380.104492188 524.923828125 c 0,290,291
 359.25390625 513.258789062 359.25390625 513.258789062 317.456054688 509.517578125 c 1,292,293
 358.98828125 514.125976562 358.98828125 514.125976562 379.673828125 525.69921875 c 0,294,295
 397.256835938 535.538085938 397.256835938 535.538085938 396.712890625 548.919921875 c 0,296,297
 396.216796875 561.037109375 396.216796875 561.037109375 381.955078125 570.850585938 c 128,-1,298
 367.516601562 580.784179688 367.516601562 580.784179688 347.997070312 582.065429688 c 1,284,-1
317.420898438 509.9609375 m 1,299,-1
 317.41015625 510.405273438 l 1,300,-1
 317.375 510.404296875 l 2,301,302
 317.127929688 510.396484375 317.127929688 510.396484375 316.844726562 510.389648438 c 0,303,304
 315.921875 510.366210938 315.921875 510.366210938 315.118164062 510.346679688 c 0,305,306
 311.771484375 510.268554688 311.771484375 510.268554688 308.057617188 510.1953125 c 0,307,308
 295.140625 509.9453125 295.140625 509.9453125 278.53515625 509.755859375 c 0,309,310
 224.862304688 509.141601562 224.862304688 509.141601562 150.241210938 509.315429688 c 1,311,-1
 150.232421875 508.426757812 l 1,312,313
 224.770507812 508.251953125 224.770507812 508.251953125 278.538085938 508.8671875 c 0,314,315
 295.381835938 509.059570312 295.381835938 509.059570312 308.068359375 509.306640625 c 0,316,317
 312.254882812 509.388671875 312.254882812 509.388671875 315.1328125 509.458007812 c 0,318,319
 316.291015625 509.486328125 316.291015625 509.486328125 316.862304688 509.500976562 c 0,320,-1
 317.392578125 509.515625 l 1,321,-1
 317.427734375 509.516601562 l 1,322,-1
 317.420898438 509.9609375 l 1,299,-1
93.525390625 576.5625 m 1,323,324
 112.787109375 579.955078125 112.787109375 579.955078125 205.185546875 583.499023438 c 1,325,-1
 205.21484375 582.610351562 l 1,326,327
 112.857421875 579.068359375 112.857421875 579.068359375 93.525390625 576.5625 c 1,323,324
205.21484375 582.610351562 m 1,328,-1
 205.185546875 583.499023438 l 1,329,330
 290.01953125 586.750976562 290.01953125 586.750976562 348.061523438 582.952148438 c 1,331,-1
 347.997070312 582.065429688 l 1,332,333
 290.000976562 585.861328125 290.000976562 585.861328125 205.21484375 582.610351562 c 1,328,-1
150.241210938 509.315429688 m 1,334,-1
 150.232421875 508.426757812 l 1,335,336
 108.850585938 508.524414062 108.850585938 508.524414062 87.720703125 518.826171875 c 0,337,338
 70.1201171875 527.409179688 70.1201171875 527.409179688 68.30078125 541.89453125 c 0,339,340
 66.796875 553.873046875 66.796875 553.873046875 75.771484375 565.442382812 c 0,341,342
 84.1494140625 576.243164062 84.1494140625 576.243164062 93.41796875 577.444335938 c 1,343,344
 84.6220703125 575.408203125 84.6220703125 575.408203125 76.4736328125 564.901367188 c 0,345,346
 67.724609375 553.623046875 67.724609375 553.623046875 69.1845703125 542.01171875 c 0,347,348
 70.943359375 527.999023438 70.943359375 527.999023438 88.1162109375 519.625976562 c 0,349,350
 109.061523438 509.413085938 109.061523438 509.413085938 150.241210938 509.315429688 c 1,334,-1
EndSplineSet
EndChar

StartChar: bar
Encoding: 124 124 94
Width: 277
Flags: W
LayerCount: 2
Fore
SplineSet
96.3056640625 607.841796875 m 0,0,1
 100.8515625 667.166992188 100.8515625 667.166992188 128.149414062 690.897460938 c 0,2,3
 154.877929688 714.133789062 154.877929688 714.133789062 173.173828125 667.76171875 c 0,4,5
 188.53515625 628.829101562 188.53515625 628.829101562 191.327148438 547.97265625 c 0,6,7
 190.505859375 458.255859375 190.505859375 458.255859375 183.59765625 236.885742188 c 0,8,9
 179.07421875 91.865234375 179.07421875 91.865234375 134.465820312 86.5263671875 c 0,10,11
 112.213867188 83.86328125 112.213867188 83.86328125 96.306640625 113.067382812 c 0,12,13
 90.291015625 124.110351562 90.291015625 124.110351562 89.6650390625 134.021484375 c 0,14,15
 87.3857421875 170.120117188 87.3857421875 170.120117188 87.736328125 342.134765625 c 0,16,17
 88.0595703125 500.048828125 88.0595703125 500.048828125 96.3056640625 607.841796875 c 0,0,1
96.3056640625 607.841796875 m 1,18,-1
 96.3056640625 607.841796875 l 1,18,-1
191.327148438 547.97265625 m 1,19,-1
 191.768554688 547.942382812 l 1,20,-1
 191.327148438 547.97265625 l 1,19,-1
87.736328125 342.134765625 m 1,21,-1
 87.2919921875 342.16015625 l 1,22,-1
 87.736328125 342.134765625 l 1,21,-1
96.7470703125 607.78125 m 1,23,-1
 95.865234375 607.903320312 l 1,24,25
 98.6708984375 644.484375 98.6708984375 644.484375 112.84375 671.208984375 c 0,26,27
 119.49609375 683.751953125 119.49609375 683.751953125 127.334960938 690.791015625 c 0,28,29
 135.497070312 698.119140625 135.497070312 698.119140625 143.708007812 698.337890625 c 0,30,31
 162.27734375 698.833984375 162.27734375 698.833984375 174.708007812 664.944335938 c 0,32,33
 189.083007812 625.762695312 189.083007812 625.762695312 191.768554688 547.961914062 c 1,34,-1
 190.885742188 547.984375 l 1,35,36
 188.203125 625.650390625 188.203125 625.650390625 173.8828125 664.676757812 c 0,37,38
 161.685546875 697.921875 161.685546875 697.921875 143.786132812 697.442382812 c 0,39,40
 135.87890625 697.23046875 135.87890625 697.23046875 127.943359375 690.104492188 c 0,41,42
 120.208984375 683.163085938 120.208984375 683.163085938 113.625976562 670.748046875 c 0,43,44
 99.53515625 644.181640625 99.53515625 644.181640625 96.7470703125 607.78125 c 1,23,-1
191.327148438 547.97265625 m 1,45,-1
 191.768554688 547.94140625 l 1,46,-1
 191.768554688 547.924804688 l 1,47,-1
 191.768554688 547.678710938 l 2,48,49
 191.764648438 547.502929688 191.764648438 547.502929688 191.7578125 546.884765625 c 0,50,51
 191.7421875 545.282226562 191.7421875 545.282226562 191.72265625 543.670898438 c 0,52,53
 191.65625 538.419921875 191.65625 538.419921875 191.534179688 530.522460938 c 0,54,55
 191.186523438 507.892578125 191.186523438 507.892578125 190.501953125 475.569335938 c 0,56,57
 188.368164062 375.525390625 188.368164062 375.525390625 184.04296875 236.846679688 c 1,58,-1
 183.15625 236.928710938 l 1,59,60
 187.470703125 375.11328125 187.470703125 375.11328125 189.615234375 475.642578125 c 0,61,62
 190.272460938 506.446289062 190.272460938 506.446289062 190.651367188 530.590820312 c 0,63,64
 190.759765625 537.4921875 190.759765625 537.4921875 190.8359375 543.736328125 c 0,65,66
 190.868164062 546.205078125 190.868164062 546.205078125 190.875 546.948242188 c 128,-1,67
 190.8828125 547.655273438 190.8828125 547.655273438 190.8828125 547.741210938 c 0,68,-1
 190.885742188 547.98828125 l 1,69,-1
 191.327148438 547.97265625 l 1,45,-1
90.1064453125 134.021484375 m 1,70,-1
 89.224609375 134.017578125 l 1,71,72
 86.9453125 170.119140625 86.9453125 170.119140625 87.2919921875 342.16015625 c 1,73,-1
 88.177734375 342.106445312 l 1,74,75
 87.8271484375 170.091796875 87.8271484375 170.091796875 90.1064453125 134.021484375 c 1,70,-1
88.177734375 342.106445312 m 1,76,-1
 87.2919921875 342.16015625 l 1,77,78
 87.619140625 500.150390625 87.619140625 500.150390625 95.865234375 607.903320312 c 1,79,-1
 96.7470703125 607.78125 l 1,80,81
 88.5009765625 500.005859375 88.5009765625 500.005859375 88.177734375 342.106445312 c 1,76,-1
183.15625 236.928710938 m 1,82,-1
 184.04296875 236.846679688 l 1,83,84
 181.640625 159.971679688 181.640625 159.971679688 166.786132812 121.177734375 c 0,85,86
 154.447265625 88.9462890625 154.447265625 88.9462890625 135.1171875 86.15625 c 0,87,88
 119.071289062 83.8388671875 119.071289062 83.8388671875 104.16015625 100.982421875 c 0,89,90
 90.306640625 116.908203125 90.306640625 116.908203125 89.224609375 134.017578125 c 1,91,-1
 90.1064453125 134.021484375 l 1,92,93
 91.1650390625 117.233398438 91.1650390625 117.233398438 104.807617188 101.551757812 c 0,94,95
 119.37890625 84.7978515625 119.37890625 84.7978515625 134.939453125 87.04296875 c 0,96,97
 153.791015625 89.763671875 153.791015625 89.763671875 165.9609375 121.547851562 c 0,98,99
 180.762695312 160.19921875 180.762695312 160.19921875 183.15625 236.928710938 c 1,82,-1
EndSplineSet
EndChar

StartChar: braceleft
Encoding: 123 123 95
Width: 739
Flags: W
LayerCount: 2
Fore
SplineSet
250.170898438 654.69140625 m 128,-1,1
 277.282226562 664.400390625 277.282226562 664.400390625 314.790039062 664.583007812 c 2,2,-1
 352.305664062 664.768554688 l 1,3,-1
 367.612304688 643.743164062 l 2,4,5
 382.918945312 622.713867188 382.918945312 622.713867188 388.935546875 603.793945312 c 128,-1,6
 394.930664062 584.942382812 394.930664062 584.942382812 404.084960938 564.252929688 c 0,7,8
 424.267578125 518.70703125 424.267578125 518.70703125 437.259765625 454.09765625 c 0,9,10
 444.900390625 416.12109375 444.900390625 416.12109375 463.868164062 379.35546875 c 128,-1,11
 482.87890625 342.515625 482.87890625 342.515625 505.352539062 298.344726562 c 128,-1,12
 527.884765625 254.0703125 527.884765625 254.0703125 545.010742188 233.27734375 c 0,13,14
 576.4765625 195.051757812 576.4765625 195.051757812 604.271484375 151.857421875 c 128,-1,15
 632.067382812 108.6640625 632.067382812 108.6640625 632.067382812 97.9931640625 c 0,16,17
 632.067382812 81.2021484375 632.067382812 81.2021484375 614.796875 103.928710938 c 0,18,19
 608.28515625 112.498046875 608.28515625 112.498046875 601.501953125 124.87890625 c 0,20,21
 583.872070312 157.056640625 583.872070312 157.056640625 563.950195312 180.946289062 c 128,-1,22
 544.014648438 204.853515625 544.014648438 204.853515625 544.014648438 208.619140625 c 128,-1,23
 544.014648438 212.369140625 544.014648438 212.369140625 528.387695312 230.092773438 c 128,-1,24
 512.764648438 247.791992188 512.764648438 247.791992188 489.27734375 292.629882812 c 0,25,26
 465.4453125 338.1015625 465.4453125 338.1015625 448.153320312 369.686523438 c 0,27,28
 430.517578125 401.911132812 430.517578125 401.911132812 424.725585938 434.1171875 c 0,29,30
 420.604492188 457.016601562 420.604492188 457.016601562 408.569335938 497.11328125 c 128,-1,31
 396.534179688 537.209960938 396.534179688 537.209960938 388.7578125 553.943359375 c 0,32,33
 383.958007812 564.293945312 383.958007812 564.293945312 375.84375 589.211914062 c 128,-1,34
 367.720703125 614.158203125 367.720703125 614.158203125 353.747070312 632.392578125 c 2,35,-1
 339.783203125 650.614257812 l 1,36,-1
 305.932617188 647.655273438 l 2,37,38
 265.948242188 644.16015625 265.948242188 644.16015625 241.208007812 633.536132812 c 128,-1,39
 216.46875 622.911132812 216.46875 622.911132812 193.864257812 599.526367188 c 0,40,41
 160.731445312 565.249023438 160.731445312 565.249023438 160.731445312 582.974609375 c 0,42,43
 160.731445312 587.725585938 160.731445312 587.725585938 178.083007812 606.561523438 c 128,-1,44
 195.435546875 625.396484375 195.435546875 625.396484375 208.045898438 634.3359375 c 0,45,0
 223.06640625 644.981445312 223.06640625 644.981445312 250.170898438 654.69140625 c 128,-1,1
265.310546875 557.413085938 m 0,46,47
 281.590820312 562.13671875 281.590820312 562.13671875 302.73828125 559.953125 c 128,-1,48
 323.885742188 557.768554688 323.885742188 557.768554688 323.885742188 551.366210938 c 0,49,50
 323.885742188 543.633789062 323.885742188 543.633789062 288.924804688 543.633789062 c 0,51,52
 252.505859375 543.633789062 252.505859375 543.633789062 253.380859375 550.749023438 c 0,53,54
 253.7890625 554.071289062 253.7890625 554.071289062 265.310546875 557.413085938 c 0,46,47
167.206054688 540.897460938 m 0,55,56
 178.985351562 545.606445312 178.985351562 545.606445312 190.397460938 545.703125 c 128,-1,57
 201.809570312 545.799804688 201.809570312 545.799804688 204.659179688 541.211914062 c 0,58,59
 206.456054688 538.318359375 206.456054688 538.318359375 197.805664062 533.0546875 c 128,-1,60
 189.154296875 527.791992188 189.154296875 527.791992188 177.97265625 524.383789062 c 128,-1,61
 166.791015625 520.975585938 166.791015625 520.975585938 162.30078125 522.690429688 c 0,62,63
 154.473632812 525.6796875 154.473632812 525.6796875 156.002929688 531.353515625 c 128,-1,64
 157.532226562 537.02734375 157.532226562 537.02734375 167.206054688 540.897460938 c 0,55,56
139.474609375 492.932617188 m 0,65,66
 153.140625 498.3671875 153.140625 498.3671875 159.930664062 497.530273438 c 128,-1,67
 166.719726562 496.693359375 166.719726562 496.693359375 163.094726562 490.083984375 c 128,-1,68
 159.469726562 483.475585938 159.469726562 483.475585938 146.471679688 476.46875 c 0,69,70
 133.879882812 469.6796875 133.879882812 469.6796875 130.614257812 464.849609375 c 128,-1,71
 127.349609375 460.01953125 127.349609375 460.01953125 127.877929688 448.963867188 c 0,72,73
 128.852539062 428.532226562 128.852539062 428.532226562 150.236328125 410.052734375 c 128,-1,74
 171.619140625 391.573242188 171.619140625 391.573242188 194.2890625 391.573242188 c 0,75,76
 207.641601562 391.573242188 207.641601562 391.573242188 238.423828125 407.03515625 c 128,-1,77
 269.204101562 422.498046875 269.204101562 422.498046875 277.5546875 422.498046875 c 0,78,79
 292.306640625 422.498046875 292.306640625 422.498046875 277.84765625 409.361328125 c 0,80,81
 272.276367188 404.299804688 272.276367188 404.299804688 263.461914062 399.302734375 c 2,82,-1
 245.28125 388.993164062 l 1,83,-1
 254.775390625 373.530273438 l 2,84,85
 274.094726562 342.052734375 274.094726562 342.052734375 248.783203125 285.900390625 c 0,86,87
 233.244140625 251.434570312 233.244140625 251.434570312 233.244140625 239.796875 c 128,-1,88
 233.244140625 228.18359375 233.244140625 228.18359375 227.909179688 212.924804688 c 128,-1,89
 222.575195312 197.715820312 222.575195312 197.715820312 218.845703125 156.747070312 c 128,-1,90
 215.115234375 115.796875 215.115234375 115.796875 207.3671875 115.796875 c 0,91,92
 203.909179688 115.796875 203.909179688 115.796875 202.404296875 118.626953125 c 128,-1,93
 200.899414062 121.45703125 200.899414062 121.45703125 200.959960938 131.3359375 c 128,-1,94
 201.01953125 141.213867188 201.01953125 141.213867188 202.6328125 156.67578125 c 128,-1,95
 204.24609375 172.13671875 204.24609375 172.13671875 207.875 200.850585938 c 0,96,97
 211.600585938 230.307617188 211.600585938 230.307617188 223.692382812 268.607421875 c 128,-1,98
 235.784179688 306.90625 235.784179688 306.90625 244.411132812 316.573242188 c 0,99,100
 249.791015625 322.599609375 249.791015625 322.599609375 248.41015625 337.569335938 c 128,-1,101
 247.028320312 352.538085938 247.028320312 352.538085938 239.961914062 364.796875 c 0,102,103
 233.599609375 375.828125 233.599609375 375.828125 228.31640625 377.595703125 c 128,-1,104
 223.033203125 379.36328125 223.033203125 379.36328125 202.079101562 377.473632812 c 0,105,106
 176.34765625 375.151367188 176.34765625 375.151367188 159.909179688 382.008789062 c 128,-1,107
 143.471679688 388.866210938 143.471679688 388.866210938 125.241210938 409.530273438 c 0,108,109
 108.935546875 428.014648438 108.935546875 428.014648438 108.935546875 450.396484375 c 0,110,111
 108.935546875 468.022460938 108.935546875 468.022460938 114.909179688 476.342773438 c 128,-1,112
 120.8828125 484.6640625 120.8828125 484.6640625 139.474609375 492.932617188 c 0,65,66
388.629882812 307.266601562 m 0,113,114
 425.359375 319.432617188 425.359375 319.432617188 448.430664062 296.060546875 c 128,-1,115
 471.501953125 272.689453125 471.501953125 272.689453125 471.501953125 223.313476562 c 2,116,-1
 471.501953125 193.896484375 l 1,117,-1
 423.655273438 148.40234375 l 2,118,119
 357.551757812 85.560546875 357.551757812 85.560546875 357.551757812 107.608398438 c 0,120,121
 357.551757812 112.303710938 357.551757812 112.303710938 391.448242188 143.216796875 c 2,122,-1
 425.341796875 174.127929688 l 1,123,-1
 407.40234375 180.021484375 l 2,124,125
 395.224609375 184.021484375 395.224609375 184.021484375 378.978515625 200.469726562 c 128,-1,126
 362.733398438 216.91796875 362.733398438 216.91796875 362.733398438 225.245117188 c 0,127,128
 362.733398438 229.71875 362.733398438 229.71875 356.790039062 235.629882812 c 0,129,130
 347.354492188 245.01953125 347.354492188 245.01953125 327.72265625 207.517578125 c 0,131,132
 324.88671875 202.100585938 324.88671875 202.100585938 321.807617188 195.668945312 c 0,133,134
 313.453125 178.2265625 313.453125 178.2265625 289.588867188 150.877929688 c 128,-1,135
 265.724609375 123.530273438 265.724609375 123.530273438 258.857421875 123.530273438 c 0,136,137
 243.880859375 123.530273438 243.880859375 123.530273438 275.364257812 158.822265625 c 0,138,139
 296.76953125 182.819335938 296.76953125 182.819335938 304.259765625 200.366210938 c 128,-1,140
 311.73828125 217.91015625 311.73828125 217.91015625 329.473632812 244.114257812 c 128,-1,141
 347.192382812 270.3046875 347.192382812 270.3046875 347.192382812 279.206054688 c 0,142,143
 347.192382812 293.54296875 347.192382812 293.54296875 388.629882812 307.266601562 c 0,113,114
436.736328125 284.530273438 m 0,144,145
 429.306640625 292.702148438 429.306640625 292.702148438 413.219726562 292.90625 c 128,-1,146
 397.133789062 293.110351562 397.133789062 293.110351562 379.056640625 285.263671875 c 0,147,148
 367.627929688 280.29296875 367.627929688 280.29296875 365.267578125 276.6328125 c 128,-1,149
 362.907226562 272.97265625 362.907226562 272.97265625 365.19921875 263.772460938 c 0,150,151
 373.515625 230.374023438 373.515625 230.374023438 396.655273438 208.474609375 c 128,-1,152
 419.794921875 186.575195312 419.794921875 186.575195312 438.032226562 194.84375 c 0,153,154
 450.4921875 200.500976562 450.4921875 200.500976562 453.508789062 212.430664062 c 128,-1,155
 456.514648438 224.362304688 456.514648438 224.362304688 450.51171875 250.17578125 c 128,-1,156
 444.509765625 275.989257812 444.509765625 275.989257812 436.736328125 284.530273438 c 0,144,145
EndSplineSet
EndChar

